<?xml version="1.0" encoding="UTF-8" standalone="no"?>
<!-- Created with Inkscape (http://www.inkscape.org/) -->

<svg
   xmlns:dc="http://purl.org/dc/elements/1.1/"
   xmlns:cc="http://creativecommons.org/ns#"
   xmlns:rdf="http://www.w3.org/1999/02/22-rdf-syntax-ns#"
   xmlns:svg="http://www.w3.org/2000/svg"
   xmlns="http://www.w3.org/2000/svg"
   xmlns:xlink="http://www.w3.org/1999/xlink"
   xmlns:sodipodi="http://sodipodi.sourceforge.net/DTD/sodipodi-0.dtd"
   xmlns:inkscape="http://www.inkscape.org/namespaces/inkscape"
   inkscape:export-ydpi="90"
   inkscape:export-xdpi="90"
   inkscape:export-filename="/media/morgan/Acclaro/Projects/Derby Makers/Hello my name is v1-2.png"
   sodipodi:docname="Example_Christmas_Card_v2.svg"
   inkscape:version="0.48.4 r9939"
   version="1.1"
   id="svg3059"
   height="673.22833"
   width="602.36218">
  <sodipodi:namedview
     id="base"
     pagecolor="#ffffff"
     bordercolor="#666666"
     borderopacity="1.0"
     inkscape:pageopacity="0.0"
     inkscape:pageshadow="2"
     inkscape:zoom="1"
     inkscape:cx="342.13377"
     inkscape:cy="238.85183"
     inkscape:document-units="px"
     inkscape:current-layer="text3007"
     showgrid="true"
     inkscape:window-width="1920"
     inkscape:window-height="1025"
     inkscape:window-x="0"
     inkscape:window-y="27"
     inkscape:window-maximized="1"
     units="cm"
     showguides="true"
     inkscape:guide-bbox="true"
     height="21cm"
     width="14.8cm"
     inkscape:snap-grids="true"
     inkscape:snap-to-guides="false">
    <inkscape:grid
       type="xygrid"
       id="grid3912"
       empspacing="10"
       visible="true"
       enabled="true"
       snapvisiblegridlinesonly="true"
       units="mm"
       dotted="false" />
  </sodipodi:namedview>
  <defs
     id="defs3061">
    <linearGradient
       inkscape:collect="always"
       id="linearGradient3904">
      <stop
         style="stop-color:#f9f9f9;stop-opacity:1;"
         offset="0"
         id="stop3906" />
      <stop
         style="stop-color:#f9f9f9;stop-opacity:0;"
         offset="1"
         id="stop3908" />
    </linearGradient>
    <linearGradient
       inkscape:collect="always"
       xlink:href="#linearGradient3904"
       id="linearGradient3910"
       x1="190.97148"
       y1="702.85077"
       x2="396.9415"
       y2="702.85077"
       gradientUnits="userSpaceOnUse"
       gradientTransform="translate(-5.5644373,-4.4725589)" />
  </defs>
  <metadata
     id="metadata3064">
    <rdf:RDF>
      <cc:Work
         rdf:about="">
        <dc:format>image/svg+xml</dc:format>
        <dc:type
           rdf:resource="http://purl.org/dc/dcmitype/StillImage" />
        <dc:title></dc:title>
      </cc:Work>
    </rdf:RDF>
  </metadata>
  <g
     transform="translate(0,-379.12165)"
     style="display:inline"
     id="layer1"
     inkscape:groupmode="layer"
     inkscape:label="Layer 1">
    <g
       transform="matrix(1.1450442,0,0,1.1450442,-72.842346,-65.693501)"
       id="text3007"
       style="font-size:12px;font-style:normal;font-variant:normal;font-weight:normal;font-stretch:normal;line-height:125%;letter-spacing:0px;word-spacing:0px;fill:none;stroke:#000000;stroke-width:0.37188435;stroke-miterlimit:4;stroke-opacity:1;stroke-dasharray:none;font-family:Purisa;-inkscape-font-specification:Purisa">
      <rect
         style="color:#000000;fill:none;stroke:#00ff00;stroke-width:0.63401448999999999;stroke-linecap:butt;stroke-linejoin:miter;stroke-miterlimit:4;stroke-opacity:1;stroke-dasharray:none;stroke-dashoffset:0;marker:none;visibility:visible;display:inline;overflow:visible;enable-background:accumulate"
         id="rect2995"
         width="452.56552"
         height="580.90265"
         x="69.417931"
         y="391.99335"
         rx="19.702888"
         ry="45.132851" />
      <g
         transform="matrix(1.0272882,0,0,1.0272882,-1.8695802,-30.801409)"
         style="font-size:16.82174873px;line-height:125%;stroke:#000000;stroke-width:0.00309447;font-family:Liberation Sans;-inkscape-font-specification:Liberation Sans"
         id="text3065">
        <path
           d="m 132.81002,592.18796 -14.1206,-17.44962 c -0.51075,-0.63112 -1.02532,-1.27966 -1.54371,-1.94562 -0.51841,-0.66588 -0.98555,-1.28112 -1.40144,-1.84571 -0.486,-0.65115 -0.95078,-1.28878 -1.39435,-1.91289 0.33748,0.7714 0.66377,1.54158 0.97887,2.31054 0.26974,0.66238 0.55097,1.37687 0.84368,2.14347 0.29506,0.74429 0.54506,1.43284 0.75,2.06567 l 7.66395,23.28886 -2.4875,2.01294 -21.27093,-12.2778 c -0.22447,-0.12552 -0.48016,-0.277 -0.76709,-0.45444 -0.274541,-0.1874 -0.571477,-0.37718 -0.890811,-0.56935 -0.316957,-0.21451 -0.64011,-0.42404 -0.969459,-0.62859 -0.326971,-0.22689 -0.648943,-0.44761 -0.965918,-0.66218 -0.741149,-0.48563 -1.496149,-1.00104 -2.265003,-1.54625 0.573206,0.68305 1.147579,1.35487 1.723122,2.01548 0.495448,0.56165 1.009734,1.15922 1.54286,1.79271 0.523129,0.62116 0.979974,1.17306 1.370535,1.65568 l 14.120594,17.44962 -3.15578,2.55372 -21.165871,-26.15586 4.659418,-3.77049 21.637693,12.50324 c 0.28691,0.17743 0.65248,0.41407 1.09671,0.70993 0.4342,0.28351 0.87224,0.58439 1.31411,0.90264 0.44185,0.31828 0.85632,0.628 1.2434,0.92914 0.38941,0.2788 0.68281,0.50217 0.88018,0.67012 -0.12312,-0.22804 -0.28539,-0.56776 -0.48681,-1.01916 -0.20145,-0.45137 -0.40553,-0.93133 -0.61224,-1.43989 -0.19436,-0.51854 -0.38488,-1.01971 -0.57157,-1.50352 -0.18671,-0.48377 -0.3307,-0.88948 -0.43198,-1.21713 l -7.84506,-23.66452 4.54804,-3.68037 21.16587,26.15586 -3.19291,2.58377"
           style="font-size:48.90641022px;text-align:start;letter-spacing:4.20543718px;text-anchor:start;stroke:#000000"
           id="path4534"
           inkscape:connector-curvature="0" />
        <path
           d="m 141.62584,571.10085 c 0.7439,1.1304 1.54395,2.09996 2.40015,2.90868 0.86075,0.78668 1.75804,1.36826 2.69189,1.74472 0.93838,0.35443 1.91349,0.47505 2.92532,0.36185 1.00307,-0.12647 2.03655,-0.53978 3.10046,-1.23993 1.55593,-1.02393 2.5937,-2.15474 3.11329,-3.39241 0.53286,-1.2464 0.65048,-2.45775 0.35283,-3.63407 l 3.74254,-1.17649 c 0.16773,0.74724 0.24676,1.56237 0.2371,2.4454 -0.005,0.86101 -0.18493,1.7607 -0.53933,2.69907 -0.36319,0.92511 -0.95176,1.88418 -1.7657,2.87722 -0.80943,0.97101 -1.93226,1.9291 -3.36851,2.87427 -3.1917,2.10042 -6.25111,2.75112 -9.17824,1.95212 -2.91383,-0.80775 -5.60474,-3.08674 -8.07272,-6.83698 -1.33025,-2.02139 -2.20217,-3.89656 -2.61576,-5.62551 -0.42232,-1.7422 -0.48343,-3.34098 -0.18334,-4.79633 0.30011,-1.4553 0.9084,-2.76087 1.82488,-3.91671 0.90774,-1.16909 2.02655,-2.19123 3.35641,-3.06643 1.80863,-1.1902 3.51057,-1.89094 5.10583,-2.10224 1.60855,-0.21998 3.11986,-0.052 4.53393,0.50391 1.4186,0.53394 2.7403,1.39843 3.96511,2.59348 1.23809,1.18635 2.39099,2.59073 3.45871,4.21315 l 0.31506,0.47875 -15.39991,10.13448 m 9.87797,-10.44559 c -1.69603,-2.14278 -3.36411,-3.41776 -5.00425,-3.82497 -1.64889,-0.42045 -3.371,-0.0399 -5.16632,1.14151 -0.59844,0.39385 -1.16449,0.9093 -1.69816,1.54634 -0.52911,0.61504 -0.91103,1.35236 -1.14577,2.21196 -0.23472,0.85965 -0.26487,1.84192 -0.0904,2.94681 0.16569,1.09164 0.65078,2.30659 1.45525,3.64485 l 11.64967,-7.6665"
           style="font-size:48.90641022px;text-align:start;letter-spacing:4.20543718px;text-anchor:start;stroke:#000000"
           id="path4536"
           inkscape:connector-curvature="0" />
        <path
           d="m 172.13735,566.13294 -9.57599,-17.35372 c -0.26151,-0.47389 -0.53383,-0.95093 -0.81698,-1.43112 -0.27689,-0.50177 -0.54922,-0.97881 -0.81699,-1.43112 -0.26775,-0.45226 -0.52013,-0.87667 -0.75713,-1.27323 -0.23698,-0.3965 -0.4509,-0.75122 -0.64176,-1.06414 l 3.55438,-1.96135 c 0.19085,0.31293 0.40861,0.67461 0.65329,1.08505 0.25094,0.38887 0.5026,0.79549 0.75497,1.21988 0.26632,0.41674 0.511,0.82721 0.73405,1.23141 0.22931,0.38261 0.42088,0.7133 0.5747,0.99205 l 0.0836,-0.0462 c -0.21204,-1.01032 -0.34476,-1.90987 -0.39817,-2.69866 -0.0472,-0.81037 0.0198,-1.52921 0.20101,-2.15651 0.17348,-0.64119 0.48515,-1.2132 0.93501,-1.71603 0.44218,-0.51672 1.06052,-0.9943 1.85503,-1.43274 0.30665,-0.16919 0.61475,-0.30283 0.92429,-0.40094 0.30185,-0.11198 0.54097,-0.18939 0.71737,-0.23221 l 1.90366,3.44984 c -0.28935,0.0688 -0.60899,0.18152 -0.9589,0.33821 -0.3576,0.14281 -0.74549,0.32957 -1.16365,0.56029 -0.8642,0.4769 -1.49527,1.0797 -1.89321,1.80838 -0.384,0.72105 -0.57885,1.53771 -0.58456,2.44999 5.4e-4,0.89069 0.17557,1.8669 0.52508,2.92864 0.34182,1.04785 0.82424,2.13627 1.44726,3.2653 l 6.50705,11.79216 -3.76345,2.07672"
           style="font-size:48.90641022px;text-align:start;letter-spacing:4.20543718px;text-anchor:start;stroke:#000000"
           id="path4538"
           inkscape:connector-curvature="0" />
        <path
           d="m 190.29076,556.52961 -8.36623,-17.96823 c -0.22847,-0.49068 -0.46752,-0.98523 -0.71716,-1.48367 -0.2419,-0.51954 -0.48096,-1.01409 -0.71715,-1.48366 -0.23618,-0.46952 -0.45893,-0.9102 -0.66824,-1.32205 -0.2093,-0.41179 -0.39845,-0.78031 -0.56745,-1.10556 l 3.68024,-1.71356 c 0.16899,0.32525 0.3615,0.70098 0.57753,1.12721 0.22374,0.40512 0.44698,0.82801 0.66973,1.26867 0.23718,0.43398 0.45321,0.86023 0.64808,1.27875 0.20259,0.3974 0.37109,0.74042 0.50548,1.02904 l 0.0866,-0.0403 c -0.14242,-1.02245 -0.21329,-1.92898 -0.2126,-2.71957 0.008,-0.8117 0.12442,-1.52427 0.34808,-2.13771 0.21695,-0.62782 0.56702,-1.17716 1.05024,-1.64804 0.47649,-0.48525 1.12606,-0.9194 1.9487,-1.30246 0.31751,-0.14781 0.63403,-0.26006 0.94956,-0.33676 0.3088,-0.0911 0.55266,-0.15193 0.73158,-0.18258 l 1.66316,3.57199 c -0.29338,0.0488 -0.61998,0.13943 -0.97979,0.27181 -0.36654,0.11801 -0.76629,0.2778 -1.19926,0.47937 -0.8948,0.41665 -1.56564,0.97486 -2.0125,1.67461 -0.43243,0.69309 -0.68271,1.4945 -0.75082,2.40425 -0.0604,0.88864 0.0474,1.87454 0.32348,2.95771 0.26933,1.06877 0.67615,2.18766 1.22046,3.35666 l 5.685,12.20973 -3.89672,1.81437"
           style="font-size:48.90641022px;text-align:start;letter-spacing:4.20543718px;text-anchor:start;stroke:#000000"
           id="path4540"
           inkscape:connector-curvature="0" />
        <path
           d="m 219.41544,544.3826 c -0.0406,1.67286 -0.15006,3.20133 -0.32845,4.5854 -0.15805,1.39366 -0.4557,2.63455 -0.89295,3.72268 -0.43189,1.10309 -1.01897,2.03364 -1.76123,2.79167 -0.7369,0.77298 -1.6895,1.36985 -2.8578,1.79059 -0.50928,0.18339 -0.98649,0.33832 -1.43164,0.4648 -0.44517,0.12646 -0.92629,0.22357 -1.44335,0.29134 l -1.09229,-3.03312 c 0.30077,-0.0576 0.63359,-0.14358 0.99847,-0.25805 0.37027,-0.0995 0.68272,-0.1951 0.93736,-0.2868 1.18328,-0.42613 2.12507,-1.26445 2.82536,-2.51497 0.70028,-1.25052 1.08445,-2.97943 1.15253,-5.18674 l 0.034,-1.10366 -18.35266,-20.72656 4.31378,-1.55348 9.96106,11.59088 c 0.29542,0.35049 0.67683,0.82229 1.14425,1.41539 0.48238,0.58774 0.95727,1.17816 1.42469,1.77126 0.48237,0.58774 0.91053,1.11884 1.28446,1.59333 0.37392,0.4745 0.60013,0.77376 0.67865,0.89777 -0.0144,-0.18094 -0.0255,-0.54073 -0.0334,-1.07938 0.002,-0.55901 -4.4e-4,-1.17584 -0.006,-1.85051 0.009,-0.68003 0.0151,-1.36757 0.0186,-2.0626 0.004,-0.69502 -7.4e-4,-1.29417 -0.0128,-1.79748 l -0.23713,-15.60028 4.26885,-1.5373 -0.59202,27.67582"
           style="font-size:48.90641022px;text-align:start;letter-spacing:4.20543718px;text-anchor:start;stroke:#000000"
           id="path4542"
           inkscape:connector-curvature="0" />
        <path
           d="m 264.85862,502.42965 c -1.89388,0.25088 -3.53288,0.78914 -4.917,1.6148 -1.36836,0.82363 -2.47233,1.88522 -3.31192,3.18477 -0.82382,1.29751 -1.37954,2.80037 -1.66717,4.50859 -0.28764,1.70826 -0.29872,3.56455 -0.0332,5.56888 0.26547,2.00436 0.77729,3.80745 1.53547,5.40928 0.77185,1.58398 1.74225,2.9088 2.91119,3.97445 1.1847,1.06359 2.55482,1.8296 4.11038,2.29805 1.5713,0.46636 3.28022,0.57726 5.12676,0.33268 1.29412,-0.1714 2.44795,-0.49285 3.46148,-0.96433 1.02718,-0.48935 1.92614,-1.09822 2.69688,-1.82661 0.78648,-0.73046 1.46365,-1.55887 2.03152,-2.48523 0.56573,-0.94211 1.04108,-1.96058 1.42605,-3.05542 l 3.93761,1.35738 c -0.43462,1.32624 -1.02274,2.58447 -1.76437,3.77472 -0.74169,1.19025 -1.65999,2.25937 -2.75489,3.20734 -1.07918,0.94589 -2.34599,1.74801 -3.80044,2.40637 -1.4408,0.64048 -3.09234,1.08406 -4.95462,1.33071 -2.69878,0.35746 -5.12255,0.24489 -7.27132,-0.3377 -2.1351,-0.60045 -3.99056,-1.57519 -5.56637,-2.92421 -1.56213,-1.36688 -2.82256,-3.06279 -3.7813,-5.08773 -0.95874,-2.02492 -1.60429,-4.29207 -1.93666,-6.80146 -0.34491,-2.60405 -0.30127,-5.00263 0.13092,-7.19575 0.44796,-2.19517 1.26127,-4.11757 2.43992,-5.7672 1.19234,-1.66745 2.74631,-3.02953 4.66193,-4.08624 1.91351,-1.07242 4.1644,-1.78006 6.7527,-2.12291 3.55098,-0.47029 6.61001,-0.16886 9.1771,0.9043 2.56704,1.07323 4.59166,2.90078 6.07385,5.48266 l -4.09674,1.98792 c -0.42019,-0.74727 -0.9456,-1.44049 -1.57623,-2.07964 -0.63278,-0.65488 -1.38818,-1.20522 -2.26622,-1.65103 -0.87807,-0.44573 -1.88353,-0.76221 -3.01639,-0.94944 -1.1171,-0.18925 -2.37006,-0.19192 -3.75888,-0.008"
           style="font-size:48.90641022px;text-align:start;letter-spacing:4.20543718px;text-anchor:start;stroke:#000000"
           id="path4544"
           inkscape:connector-curvature="0" />
        <path
           d="m 297.52007,509.28481 c 0.49941,-0.86333 1.03521,-1.5904 1.60742,-2.18122 0.57258,-0.60669 1.19809,-1.1006 1.87651,-1.48173 0.6784,-0.38109 1.41768,-0.64919 2.21784,-0.80432 0.80053,-0.17099 1.69416,-0.24413 2.68091,-0.2194 1.65515,0.0415 3.00234,0.2983 4.04157,0.77024 1.05511,0.4724 1.87488,1.122 2.45931,1.94882 0.6007,0.81134 0.9985,1.77682 1.19338,2.89644 0.21076,1.12007 0.29938,2.34852 0.26587,3.68536 l -0.43179,17.21213 -4.32093,-0.1084 0.41082,-16.37658 c 0.0275,-1.09812 -0.0199,-2.06278 -0.14239,-2.89397 -0.10658,-0.83076 -0.34405,-1.52149 -0.71242,-2.07221 -0.36801,-0.56658 -0.89874,-0.99395 -1.59219,-1.28209 -0.6931,-0.30402 -1.59666,-0.47001 -2.7107,-0.49798 -1.01857,-0.0255 -1.94624,0.13434 -2.78299,0.4796 -0.82086,0.34571 -1.5341,0.84538 -2.13971,1.49902 -0.58972,0.65407 -1.0557,1.45456 -1.39795,2.40146 -0.34227,0.94694 -0.52836,2.01721 -0.5583,3.21082 l -0.38208,15.2307 -4.29706,-0.10779 0.88872,-35.4269 4.29706,0.10779 -0.23116,9.21482 c -0.0132,0.52522 -0.0343,1.05022 -0.0634,1.57499 -0.0291,0.52482 -0.0652,1.00963 -0.10815,1.45443 -0.0271,0.44524 -0.0526,0.82681 -0.0765,1.14468 -0.0235,0.30201 -0.0446,0.50851 -0.0633,0.61949 l 0.0716,0.002"
           style="font-size:48.90641022px;text-align:start;letter-spacing:4.20543718px;text-anchor:start;stroke:#000000"
           id="path4546"
           inkscape:connector-curvature="0" />
        <path
           d="m 324.17383,532.32831 2.757,-19.62779 c 0.0753,-0.536 0.1438,-1.08101 0.20554,-1.63503 0.0797,-0.56753 0.14823,-1.11254 0.20555,-1.63503 0.0573,-0.52244 0.11019,-1.01338 0.15865,-1.47281 0.0485,-0.45939 0.0903,-0.8715 0.12543,-1.23634 l 4.02015,0.56469 c -0.0352,0.36484 -0.0781,0.78483 -0.12875,1.25998 -0.0327,0.46165 -0.0755,0.93792 -0.12836,1.42884 -0.0371,0.49318 -0.0878,0.96835 -0.15201,1.42552 -0.0462,0.44366 -0.0915,0.82314 -0.13579,1.13842 l 0.0946,0.0133 c 0.43683,-0.93535 0.87061,-1.73451 1.30134,-2.39746 0.44869,-0.67647 0.93375,-1.21119 1.45517,-1.60419 0.52361,-0.40872 1.11623,-0.67916 1.77786,-0.81132 0.66382,-0.14787 1.44504,-0.15871 2.34368,-0.0325 0.34682,0.0487 0.67346,0.12677 0.97992,0.2341 0.30865,0.0916 0.54637,0.17323 0.71316,0.24486 l -0.54808,3.90191 c -0.27272,-0.11867 -0.59604,-0.22035 -0.96996,-0.30505 -0.37174,-0.10042 -0.79408,-0.18386 -1.26702,-0.25031 -0.97747,-0.13728 -1.84403,-0.0339 -2.59969,0.31004 -0.73992,0.34623 -1.38596,0.88246 -1.93809,1.6087 -0.53419,0.71273 -0.98014,1.59859 -1.33788,2.65759 -0.35554,1.04327 -0.62299,2.20339 -0.80235,3.48036 l -1.87343,13.33744 -4.25663,-0.5979"
           style="font-size:48.90641022px;text-align:start;letter-spacing:4.20543718px;text-anchor:start;stroke:#000000"
           id="path4548"
           inkscape:connector-curvature="0" />
        <path
           d="m 351.02161,505.07625 0.87948,-4.01211 4.19872,0.9204 -0.87948,4.01211 -4.19872,-0.9204 m -6.70864,30.60401 5.53258,-25.23898 4.19872,0.9204 -5.53258,25.23897 -4.19872,-0.92039"
           style="font-size:48.90641022px;text-align:start;letter-spacing:4.20543718px;text-anchor:start;stroke:#000000"
           id="path4550"
           inkscape:connector-curvature="0" />
        <path
           d="m 379.68574,538.12345 c -0.36362,1.154 -0.9167,2.11476 -1.65926,2.88229 -0.72262,0.75712 -1.60716,1.31301 -2.6536,1.66765 -1.0417,0.33945 -2.23772,0.48005 -3.58806,0.42181 -1.3304,-0.0686 -2.79277,-0.35414 -4.38709,-0.85647 -1.42733,-0.44972 -2.6821,-0.97025 -3.76433,-1.56161 -1.07185,-0.57139 -1.96397,-1.23638 -2.67637,-1.99497 -0.71241,-0.75859 -1.24032,-1.62596 -1.58372,-2.60213 -0.32344,-0.98655 -0.44002,-2.09989 -0.34974,-3.34001 l 3.84389,0.43496 c -0.067,1.43106 0.34808,2.6301 1.2452,3.59711 0.90188,0.95182 2.32462,1.73392 4.26821,2.34629 0.88067,0.27748 1.70457,0.4703 2.4717,0.57847 0.78228,0.11295 1.4846,0.1089 2.10696,-0.0122 0.62712,-0.13624 1.16148,-0.40185 1.60309,-0.79685 0.46154,-0.40539 0.80714,-0.97251 1.0368,-1.70135 0.2344,-0.74403 0.25115,-1.40641 0.0502,-1.98716 -0.19616,-0.59593 -0.55528,-1.1514 -1.07734,-1.66642 -0.5221,-0.51502 -1.1952,-1.02754 -2.01929,-1.53757 -0.80415,-0.52043 -1.69222,-1.09233 -2.6642,-1.71573 -0.90565,-0.56909 -1.79414,-1.16617 -2.66544,-1.79123 -0.87134,-0.62505 -1.62046,-1.32009 -2.24736,-2.08514 -0.60696,-0.77543 -1.03139,-1.62689 -1.27328,-2.55439 -0.24191,-0.92747 -0.17867,-1.97581 0.18971,-3.14501 0.70805,-2.24724 2.04343,-3.70429 4.00616,-4.37116 1.98268,-0.67723 4.50763,-0.53266 7.57485,0.43372 2.71795,0.85638 4.72341,2.01403 6.01637,3.47296 1.3081,1.46374 1.84224,3.31788 1.60243,5.56242 l -3.83329,-0.70702 c 0.0643,-0.68078 -0.0188,-1.29116 -0.24928,-1.83116 -0.2257,-0.55514 -0.55601,-1.04312 -0.99092,-1.46393 -0.43017,-0.43596 -0.95496,-0.80995 -1.57437,-1.12197 -0.59948,-0.32239 -1.24845,-0.59363 -1.9469,-0.81372 -1.85249,-0.58365 -3.30758,-0.73331 -4.36526,-0.449 -1.05771,0.28436 -1.76596,0.99593 -2.12476,2.13473 -0.21052,0.66812 -0.2257,1.27257 -0.0456,1.81337 0.20008,0.53042 0.54079,1.03837 1.02212,1.52383 0.50127,0.4751 1.126,0.95569 1.8742,1.44179 0.75295,0.47093 1.58465,0.98335 2.49509,1.53726 0.60028,0.37275 1.21098,0.76546 1.83209,1.17814 0.62586,0.3975 1.21461,0.83338 1.76625,1.30762 0.57157,0.46385 1.08086,0.9665 1.52788,1.50792 0.46694,0.53104 0.83407,1.11408 1.10137,1.74911 0.26726,0.63504 0.41712,1.32488 0.44959,2.06953 0.0476,0.74943 -0.0673,1.56449 -0.34478,2.44518"
           style="font-size:48.90641022px;text-align:start;letter-spacing:4.20543718px;text-anchor:start;stroke:#000000"
           id="path4552"
           inkscape:connector-curvature="0" />
        <path
           d="m 395.38145,552.0685 c -0.66987,-0.0895 -1.3391,-0.22186 -2.00771,-0.39707 -0.66005,-0.1544 -1.40152,-0.4031 -2.22441,-0.74611 -3.17403,-1.32305 -4.0107,-3.78465 -2.51002,-7.38482 l 6.6336,-15.9142 -2.75523,-1.14848 1.2036,-2.88748 2.90952,1.21279 3.39167,-4.84717 2.64502,1.10254 -2.22345,5.33412 4.40837,1.83757 -1.20361,2.88748 -4.40836,-1.83757 -6.27528,15.05458 c -0.47777,1.14618 -0.63098,2.03094 -0.45961,2.6543 0.19217,0.61478 0.75113,1.11512 1.6769,1.50101 0.38205,0.15925 0.76166,0.28299 1.13884,0.37122 0.39185,0.0943 0.81923,0.18626 1.28214,0.27572 l -1.22198,2.93157"
           style="font-size:48.90641022px;text-align:start;letter-spacing:4.20543718px;text-anchor:start;stroke:#000000"
           id="path4554"
           inkscape:connector-curvature="0" />
        <path
           d="m 415.78045,562.45917 7.93875,-14.3296 c 0.60946,-1.10013 1.04902,-2.0578 1.31869,-2.87302 0.26961,-0.81521 0.36076,-1.53821 0.27345,-2.169 -0.0657,-0.63699 -0.31301,-1.19259 -0.74187,-1.6668 -0.42119,-0.48812 -1.01474,-0.94435 -1.78063,-1.36869 -0.79379,-0.43974 -1.59969,-0.67692 -2.4177,-0.71153 -0.81033,-0.0485 -1.61114,0.0993 -2.40241,0.44353 -0.76967,0.33801 -1.52286,0.87624 -2.25955,1.61468 -0.71508,0.73225 -1.38508,1.66237 -2.00998,2.79034 l -7.25597,13.09717 -3.73907,-2.07148 9.84822,-17.77622 c 0.2623,-0.47346 0.52922,-0.97169 0.80076,-1.49467 0.29316,-0.52916 0.56008,-1.02738 0.80077,-1.49467 0.24837,-0.48117 0.45817,-0.89273 0.62942,-1.23468 0.17122,-0.34191 0.27688,-0.56548 0.31698,-0.67069 l 3.55106,1.96733 c -0.0247,0.0774 -0.11489,0.27307 -0.27068,0.58713 -0.15582,0.3141 -0.33863,0.67692 -0.54842,1.08847 -0.18819,0.40537 -0.39103,0.82079 -0.60854,1.24626 -0.20983,0.41157 -0.39188,0.75661 -0.54617,1.03511 l 0.0627,0.0347 c 0.69681,-0.46933 1.38676,-0.86059 2.06987,-1.17376 0.68308,-0.31314 1.38254,-0.50803 2.09841,-0.58466 0.73746,-0.0828 1.49442,-0.0365 2.27089,0.1388 0.79807,0.16917 1.64273,0.50062 2.53401,0.99437 1.71284,0.94896 2.87462,2.0385 3.48534,3.26861 0.62459,1.23786 0.7191,2.70982 0.28355,4.41588 l 0.0627,0.0347 c 0.6968,-0.46934 1.40068,-0.85288 2.11165,-1.15062 0.71091,-0.29772 1.44519,-0.47331 2.20285,-0.52679 0.7653,-0.0674 1.55012,-0.006 2.35445,0.18509 0.81198,0.17687 1.66361,0.51219 2.55489,1.00594 1.14187,0.63264 2.03877,1.32973 2.6907,2.09128 0.66578,0.76927 1.08583,1.62078 1.26016,2.55453 0.17424,0.93376 0.10512,1.97836 -0.20737,3.13381 -0.30486,1.14152 -0.84302,2.40857 -1.61448,3.80115 l -8.34379,15.0607 -3.71818,-2.05991 7.93876,-14.3296 c 0.60944,-1.10013 1.04901,-2.05781 1.31868,-2.87302 0.2696,-0.81522 0.36075,-1.53822 0.27345,-2.169 -0.0657,-0.63699 -0.31302,-1.19259 -0.74187,-1.6668 -0.4212,-0.48813 -1.01474,-0.94436 -1.78062,-1.36869 -0.79381,-0.43975 -1.59585,-0.68389 -2.40613,-0.73242 -0.80263,-0.0624 -1.59572,0.0715 -2.37927,0.40175 -0.76969,0.33801 -1.52287,0.87624 -2.25955,1.61468 -0.72281,0.74618 -1.40437,1.69718 -2.04469,2.85301 l -7.25598,13.09717 -3.71817,-2.05991"
           style="font-size:48.90641022px;text-align:start;letter-spacing:4.20543718px;text-anchor:start;stroke:#000000"
           id="path4556"
           inkscape:connector-curvature="0" />
        <path
           d="m 446.44915,582.23001 c -2.09641,-1.52936 -3.26848,-3.23177 -3.5162,-5.10722 -0.24773,-1.87545 0.3321,-3.77778 1.73949,-5.70699 1.00393,-1.37616 2.08214,-2.31387 3.23462,-2.81315 1.1747,-0.50274 2.36301,-0.69998 3.56494,-0.59171 1.21475,0.11767 2.43269,0.4741 3.6538,1.06931 1.22107,0.59523 2.40047,1.28812 3.5382,2.07868 l 4.74426,3.34279 0.83036,-1.13823 c 0.62861,-0.86171 1.07339,-1.66049 1.33434,-2.39633 0.26089,-0.73584 0.34091,-1.4263 0.24006,-2.07138 -0.10092,-0.64507 -0.37332,-1.25762 -0.81722,-1.83766 -0.42171,-0.5835 -1.01196,-1.15204 -1.77076,-1.70563 -0.66881,-0.48788 -1.31083,-0.87742 -1.92604,-1.16861 -0.60588,-0.30402 -1.20198,-0.47286 -1.78832,-0.50651 -0.57699,-0.0465 -1.14716,0.0598 -1.71052,0.31879 -0.55401,0.24617 -1.10884,0.66906 -1.66451,1.26868 l -3.38765,-2.97386 c 0.72909,-0.72928 1.52234,-1.3034 2.37975,-1.72236 0.86676,-0.43178 1.81107,-0.65922 2.83294,-0.68232 1.0347,-0.0137 2.14573,0.20565 3.33311,0.65801 1.20958,0.44891 2.52176,1.18939 3.93654,2.22147 2.62369,1.91406 4.15693,3.95877 4.59971,6.13414 0.45211,2.16252 -0.15218,4.38201 -1.81287,6.65847 l -6.55844,8.9901 c -0.75063,1.0289 -1.18323,1.90553 -1.29781,2.62989 -0.10523,0.71148 0.22157,1.34401 0.98041,1.89759 0.1929,0.14073 0.3952,0.26861 0.60691,0.38364 0.21167,0.115 0.42161,0.21889 0.62984,0.31168 l -1.57627,2.16071 c -0.51237,-0.21613 -1.00596,-0.45797 -1.48075,-0.72552 -0.46198,-0.2582 -0.93732,-0.56556 -1.42603,-0.92208 -0.65595,-0.47853 -1.16087,-0.97496 -1.51474,-1.4893 -0.33167,-0.51784 -0.51874,-1.05829 -0.56121,-1.62133 -0.0331,-0.57593 0.0608,-1.17741 0.28181,-1.80445 0.23033,-0.63992 0.57954,-1.3212 1.04764,-2.04386 l -0.11576,-0.0844 c -0.86089,0.39669 -1.71343,0.70093 -2.55763,0.91273 -0.83138,0.22116 -1.6836,0.30886 -2.55669,0.26311 -0.86373,-0.0586 -1.75006,-0.26183 -2.65899,-0.60962 -0.89609,-0.33841 -1.83287,-0.86415 -2.81032,-1.57723 m 2.69095,-2.02739 c 1.10607,0.8069 2.2161,1.31124 3.3301,1.51303 1.13622,0.1983 2.2043,0.17938 3.20424,-0.0567 1.01277,-0.22676 1.9263,-0.6146 2.7406,-1.16352 0.81426,-0.54893 1.47003,-1.16422 1.96733,-1.84587 l 1.25258,-1.71699 -3.85683,-2.69539 c -0.85825,-0.60639 -1.71543,-1.13319 -2.57154,-1.58039 -0.8339,-0.45068 -1.6575,-0.72637 -2.47081,-0.82705 -0.81334,-0.10068 -1.60474,0.0117 -2.37421,0.33712 -0.75662,0.33482 -1.47739,0.97167 -2.16231,1.91054 -0.82568,1.1318 -1.16145,2.22687 -1.00732,3.2852 0.16697,1.06771 0.81636,2.01439 1.94817,2.84007"
           style="font-size:48.90641022px;text-align:start;letter-spacing:4.20543718px;text-anchor:start;stroke:#000000"
           id="path4558"
           inkscape:connector-curvature="0" />
        <path
           d="m 485.71538,604.44882 c -0.80197,0.90597 -1.69832,1.5583 -2.68904,1.95699 -0.96829,0.3973 -2.00252,0.54488 -3.10269,0.44273 -1.08966,-0.1141 -2.2393,-0.47264 -3.44892,-1.07564 -1.18719,-0.60439 -2.40661,-1.46055 -3.65827,-2.5685 -1.12056,-0.9919 -2.05468,-1.97822 -2.80237,-2.95898 -0.74633,-0.95829 -1.2904,-1.9289 -1.63221,-2.91183 -0.34182,-0.98292 -0.47083,-1.99009 -0.38703,-3.02149 0.10626,-1.03278 0.45309,-2.09712 1.04047,-3.19303 l 3.33376,1.96234 c -0.64385,1.2798 -0.75295,2.54394 -0.32728,3.79244 0.4362,1.23657 1.41723,2.53018 2.94309,3.88084 0.69139,0.61201 1.3654,1.12358 2.02202,1.53472 0.66852,0.42167 1.31164,0.70393 1.92937,0.84676 0.62825,0.1309 1.22446,0.10586 1.78863,-0.0751 0.58661,-0.18235 1.13318,-0.55962 1.63969,-1.13181 0.51703,-0.58412 0.80202,-1.1823 0.85498,-1.79453 0.0635,-0.62416 -0.0384,-1.27773 -0.30551,-1.96069 -0.26717,-0.68297 -0.67327,-1.42514 -1.2183,-2.22652 -0.52258,-0.80275 -1.10085,-1.68668 -1.7348,-2.65182 -0.59547,-0.88853 -1.16387,-1.79563 -1.70519,-2.72129 -0.54135,-0.92566 -0.94257,-1.86549 -1.20367,-2.81951 -0.23864,-0.95537 -0.27962,-1.90587 -0.12292,-2.85149 0.15668,-0.94561 0.64128,-1.87737 1.45379,-2.79528 1.56168,-1.76425 3.37462,-2.55135 5.43882,-2.3613 2.08663,0.18871 4.33394,1.34881 6.74195,3.4803 2.13378,1.88882 3.49413,3.7627 4.08106,5.62166 0.59879,1.86952 0.33173,3.78049 -0.80119,5.73293 l -3.21329,-2.20652 c 0.33587,-0.59563 0.50849,-1.18696 0.51788,-1.774 0.0199,-0.59894 -0.0831,-1.17912 -0.30901,-1.74055 -0.2154,-0.57333 -0.54245,-1.12859 -0.98115,-1.66578 -0.41628,-0.53854 -0.89858,-1.05051 -1.44691,-1.53591 -1.45435,-1.28734 -2.72242,-2.01648 -3.80423,-2.18744 -1.08184,-0.17094 -2.01845,0.19061 -2.80983,1.08465 -0.46431,0.52452 -0.72429,1.07043 -0.77995,1.63771 -0.0332,0.56593 0.0712,1.16859 0.31312,1.80797 0.26441,0.63803 0.63934,1.33135 1.12479,2.07996 0.49597,0.7367 1.04698,1.54336 1.65301,2.41996 0.3965,0.58487 0.79439,1.19221 1.19366,1.82201 0.40979,0.61789 0.77006,1.25571 1.08082,1.91347 0.33318,0.65639 0.59369,1.32284 0.78153,1.99937 0.21027,0.67514 0.3082,1.35714 0.29379,2.04598 -0.0145,0.68884 -0.15846,1.37993 -0.43199,2.07328 -0.26166,0.70389 -0.69849,1.40153 -1.31048,2.09294"
           style="font-size:48.90641022px;text-align:start;letter-spacing:4.20543718px;text-anchor:start;stroke:#000000"
           id="path4560"
           inkscape:connector-curvature="0" />
      </g>
      <flowRoot
         xml:space="preserve"
         id="flowRoot3168"
         style="font-size:40px;font-style:normal;font-weight:normal;line-height:125%;letter-spacing:0px;word-spacing:0px;fill:#000000;fill-opacity:1;stroke:none;font-family:Sans"><flowRegion
           id="flowRegion3170"><rect
             id="rect3172"
             width="94.045204"
             height="74.953316"
             x="77.074638"
             y="118.85661" /></flowRegion><flowPara
           id="flowPara3174" /></flowRoot>      <flowRoot
         xml:space="preserve"
         id="flowRoot3176"
         style="font-size:40px;font-style:normal;font-weight:normal;line-height:125%;letter-spacing:0px;word-spacing:0px;fill:#000000;fill-opacity:1;stroke:none;font-family:Sans"><flowRegion
           id="flowRegion3178"><rect
             id="rect3180"
             width="362.74579"
             height="108.18734"
             x="137.88582"
             y="55.924114" /></flowRegion><flowPara
           id="flowPara3182" /></flowRoot>      <path
         style="fill:#00ff00;fill-opacity:1;stroke:#00ff00;stroke-width:0.00360995"
         d="m 547.38486,391.47802 c -2.8248,0.042 -5.8863,0.67165 -9.17005,2.14269 l -1.25542,0 0,0.60601 c -3.81158,1.92714 -7.89929,4.96893 -12.22673,9.54465 l 12.22673,0 0,235.26175 19.65009,0 0,-235.26175 11.79006,0 c 0,0 -7.89393,-12.48876 -21.01468,-12.29335 z"
         id="rect3713"
         inkscape:connector-curvature="0" />
      <path
         id="path4487"
         d="m 549.12971,970.89627 c -2.82456,-0.0427 -5.88582,-0.67165 -9.16931,-2.14281 l -1.25532,0 0,-0.60582 c -3.81128,-1.92732 -7.89866,-4.96909 -12.22576,-9.54477 l 12.22576,0 0,-235.2617 19.64853,0 0,235.2617 11.78913,0 c 0,0 -7.89332,12.4888 -21.01303,12.2934 z"
         style="fill:#00ff02;fill-opacity:1;stroke:#00ff00;stroke-width:0.00360981"
         inkscape:connector-curvature="0" />
      <path
         style="fill:#ff0000;fill-opacity:1;stroke:#ff0000;stroke-width:0.00484273;stroke-miterlimit:4;stroke-opacity:1;stroke-dasharray:none"
         d="m 414.97593,555.20827 c -0.31597,-0.0139 -0.63094,0.11768 -0.94434,0.37774 -0.59477,0.49362 -1.07924,1.6816 -1.07924,2.64412 0,0.96253 -1.11813,3.51502 -2.48224,5.66599 -3.13018,4.93581 -3.7851,8.53564 -2.02357,11.22407 0.92427,1.41064 2.05654,2.02358 3.72337,2.02358 2.66798,0 2.87564,-0.511 1.16018,-2.77904 -0.64773,-0.85636 -1.18716,-2.34893 -1.18716,-3.31866 0,-1.99837 2.7747,-5.82885 3.61544,-4.99147 0.30325,0.30205 0.8147,2.74886 1.1332,5.45015 0.55251,4.68587 0.49184,4.99537 -1.51093,6.42146 -1.15454,0.82212 -3.3215,1.60869 -4.80261,1.75376 -1.81085,0.17732 -3.21636,0.97462 -4.31694,2.45526 l -1.64585,2.21244 1.75377,2.37432 c 1.82646,2.47039 2.08998,3.95265 1.24112,7.12296 -0.43739,1.63353 -0.84248,1.81527 -3.18375,1.37604 -3.11335,-0.58406 -5.41935,0.41163 -8.47201,3.6694 l -2.15848,2.32037 -20.72135,0 c -11.38483,8.4e-4 -30.71132,0.22194 -42.95364,0.51263 l -22.25927,0.53962 0,-5.36921 c 0,-4.2998 0.26321,-5.46515 1.34906,-5.88184 0.76419,-0.29327 1.5188,-0.1114 1.69979,0.43169 0.3888,1.16637 4.40361,3.34564 6.17863,3.34564 2.54723,0 5.20733,-3.71229 5.20733,-7.25788 0,-9.60338 -7.38117,-13.96108 -16.32347,-9.63218 -4.72273,2.28624 -6.59825,5.41097 -7.90541,13.24764 l -1.05226,6.34052 -4.39789,2.69809 -4.39789,2.69809 -16.05364,-0.37773 c -18.08868,-0.42448 -21.27227,-1.09855 -21.20702,-4.39789 l 0.054,-2.1315 1.24111,1.80773 c 1.70895,2.44986 3.96444,2.31729 4.61374,-0.26981 0.62704,-2.4983 -0.005,-4.7678 -2.18544,-7.71655 -1.39413,-1.88564 -1.50229,-2.50027 -0.67453,-4.31694 0.8111,-1.7802 0.74196,-2.46845 -0.45867,-4.23601 -0.78728,-1.15904 -1.45193,-3.5506 -1.48396,-5.31525 -0.0647,-3.57166 -4.20576,-11.04643 -6.90712,-12.49217 -2.1474,-1.14925 -9.92594,-3.15676 -12.27632,-3.15676 -1.04753,0 -2.90801,0.85458 -4.15506,1.88865 -1.65922,1.37587 -3.35169,1.9028 -6.28656,1.96962 -2.34014,0.0533 -8.17971,1.48158 -14.03008,3.42658 -10.51216,3.4949 -13.09645,3.68827 -25.14623,1.8347 -2.9005,-0.4462 -3.2816,-0.24627 -6.90712,3.61543 -2.11577,2.25358 -5.31325,6.90972 -7.09598,10.33371 -1.78272,3.424 -5.6442,10.3597 -8.57994,15.43309 l -5.34222,9.22748 0.48566,5.80089 0.51263,5.77392 -3.04884,3.10281 c -7.69687,7.86343 -6.99878,5.81683 -7.44673,22.09738 l -0.40473,14.56971 -4.55976,0.4047 c -2.83194,0.25239 -5.42439,1.0441 -6.82619,2.07754 -2.81901,2.07824 -7.4737,9.65625 -7.4737,12.16839 0,1.03406 -0.56001,3.0016 -1.26811,4.37092 -0.70812,1.36933 -1.47436,5.22866 -1.6998,8.57994 -0.69192,10.28498 1.78741,15.7592 8.39107,18.58985 4.22562,1.81133 5.6719,1.9022 7.36579,0.43171 0.69648,-0.60465 3.11121,-1.3337 5.3692,-1.61887 3.34378,-0.4223 4.44039,-0.23445 5.96279,0.9983 l 1.88867,1.51093 -2.85997,6.31354 c -1.57341,3.47636 -3.67099,8.75234 -4.64073,11.70972 -1.29932,3.96241 -2.21663,5.50796 -3.50752,5.90883 -4.0768,1.266 -11.12641,7.16561 -14.21895,11.89859 -3.51009,5.372 -3.80928,6.6629 -1.88866,8.0673 1.14178,0.8349 1.16993,1.48187 0.26979,5.5041 -0.79756,3.56395 -0.79776,5.2339 -0.054,7.71654 1.16397,3.88498 4.5465,8.06731 6.52938,8.06731 1.00029,0 2.44455,1.83353 4.55977,5.8009 2.56329,4.8078 3.72674,6.14351 6.66429,7.6356 3.89796,1.97992 11.04811,2.41839 15.99969,0.99829 3.29197,-0.94415 3.66458,-0.50498 4.28997,4.77563 0.24708,2.08616 1.43101,6.71782 2.61715,10.3067 2.07041,6.26437 2.08565,6.65835 0.86339,9.71314 -1.15208,2.87928 -1.14139,3.5592 -0.027,7.31184 0.85864,2.89139 2.21608,5.0606 4.47883,7.14995 l 3.23772,2.99488 -0.70151,6.69127 -0.67453,6.66428 -8.44503,2.21245 c -15.13035,3.96344 -20.8352,7.65095 -20.82927,13.4365 0.008,8.02268 5.83499,10.93862 20.69436,10.36067 5.15029,-0.20031 12.40893,-0.0137 16.13461,0.40472 4.74563,0.53296 7.68989,0.49552 9.79408,-0.13492 2.59215,-0.77661 3.37433,-0.69566 5.66599,0.70151 3.28753,2.00437 9.2784,2.13811 16.16157,0.35076 4.22314,-1.09662 5.77404,-1.12601 10.79237,-0.26981 6.48627,1.10668 21.67064,0.58446 26.95396,-0.91735 1.72987,-0.49171 4.25837,-1.99197 5.61203,-3.34563 2.45154,-2.45156 2.50145,-2.46054 10.98124,-2.37433 7.69166,0.0783 9.44746,0.4067 18.23911,3.34563 13.27188,4.43664 19.40681,5.39456 26.79206,4.26299 17.12991,-2.62459 26.21363,-4.42373 29.19337,-5.80089 4.41294,-2.03957 11.4299,-8.28427 13.92215,-12.38425 1.77248,-2.9159 2.01588,-4.16482 1.99659,-10.9003 -0.02,-7.03212 -1.09684,-12.3572 -4.15507,-20.6404 -0.29032,-0.78641 0.63997,-0.19501 2.05056,1.29508 l 2.56318,2.69808 8.60693,-0.35074 c 4.7335,-0.19822 9.39765,-0.80258 10.36067,-1.32207 1.32562,-0.71515 3.2662,-0.73153 8.01334,-0.054 7.12827,1.01745 29.9892,0.37508 32.40409,-0.91735 1.13431,-0.60704 2.06837,-0.44654 3.69639,0.62057 1.78359,1.1691 3.93229,1.403 11.84463,1.403 8.79746,0 9.89385,-0.1546 12.24934,-1.83471 2.98815,-2.13135 4.63523,-6.90394 3.75035,-10.84633 -0.80659,-3.59348 -0.54627,-57.37765 0.29679,-61.16576 0.38382,-1.72448 0.44347,-5.8378 0.1349,-9.14654 -0.30856,-3.30873 -0.20009,-10.90735 0.21585,-16.86308 1.3999,-20.04489 1.64031,-29.15117 1.61886,-58.27881 l -0.027,-29.00449 5.74694,0.43169 c 4.95745,0.37161 5.98161,0.19713 7.71655,-1.21415 l 2.02356,-1.61885 0,-15.67592 c 0,-10.70185 -0.2902,-15.96664 -0.91735,-16.59327 -0.61878,-0.61826 -4.8938,-0.88318 -13.08575,-0.80943 l -12.16839,0.10789 0.51263,-2.75205 c 0.64546,-3.44056 -1.3134,-7.50981 -4.12809,-8.57993 -3.28473,-1.24887 -7.73586,-0.87434 -10.63047,0.89037 l -2.6981,1.64583 0.5666,-6.90712 c 0.49836,-5.9826 0.40443,-7.13071 -0.80942,-8.47201 -0.77217,-0.85321 -1.88241,-1.56489 -2.45527,-1.56489 -0.78523,0 -0.71515,-0.55719 0.29679,-2.32037 1.28889,-2.24573 1.24304,-2.61924 -0.91735,-9.03861 -2.07941,-6.17867 -3.51435,-8.89729 -4.88355,-8.95767 z m -179.53111,9.98294 c 3.94749,-0.20531 8.14602,2.16698 10.19879,6.23259 1.73108,3.42853 1.77297,3.86028 0.62056,5.58507 -1.17698,1.76153 -1.10347,1.96107 0.97132,3.61543 1.92468,1.5347 2.09554,2.01976 1.37603,3.91223 -0.4517,1.18804 -1.90833,2.71215 -3.23772,3.39961 -5.19607,2.68698 -11.35991,7.5967 -14.46177,11.52086 -1.78745,2.26128 -4.26613,4.64755 -5.47713,5.28826 -3.65656,1.93457 -12.62165,11.24163 -15.67593,16.26949 -1.57769,2.59717 -4.88988,6.72459 -7.3388,9.17352 -3.1502,3.15018 -4.45185,5.08722 -4.45185,6.58334 0,2.26865 -4.02769,7.46616 -5.01846,6.47543 -1.31277,-1.3128 -0.41327,-4.62997 3.02187,-11.19708 2.63423,-5.03599 3.61544,-7.83841 3.61544,-10.3337 0,-4.9906 1.88792,-10.50583 4.72166,-13.73329 1.36536,-1.55505 2.48225,-3.65621 2.48225,-4.66771 0,-3.99579 5.45278,-15.33463 9.79407,-20.39758 1.31428,-1.53276 2.23943,-3.5748 2.23943,-4.88354 0,-1.62479 0.56675,-2.49302 2.02356,-3.15677 1.10942,-0.5055 2.40939,-1.78483 2.88696,-2.833 0.47758,-1.04817 2.00873,-2.49662 3.39959,-3.23771 1.39088,-0.7411 3.4299,-1.87208 4.5328,-2.50923 1.1679,-0.6747 2.4615,-1.03778 3.77733,-1.10622 z m -16.99798,5.12638 c 0.13585,-0.0151 0.21761,-0.0253 0.24283,0 0.20176,0.20176 -1.11177,1.98179 -2.94093,3.9662 -1.82915,1.98441 -3.31865,4.3055 -3.31865,5.15336 0,0.84784 -1.23279,3.36751 -2.72508,5.58504 -1.4923,2.21753 -3.69744,6.67095 -4.88353,9.90201 -1.18611,3.23105 -2.88563,7.32792 -3.80432,9.09257 -0.9187,1.76465 -2.3835,4.53726 -3.23771,6.17863 -0.85423,1.64136 -1.85538,5.49436 -2.23942,8.55296 -0.43648,3.47603 -1.75216,7.75663 -3.48055,11.43991 -1.5208,3.24098 -3.13718,6.87345 -3.58845,8.04031 -0.55576,1.437 -2.18617,2.74039 -5.0994,4.07413 -9.05246,4.14433 -12.50378,3.64975 -18.37401,-2.6981 -3.3816,-3.65676 -3.99052,-4.00987 -6.82618,-3.77733 -2.48992,0.2042 -3.1028,0.57717 -3.1028,1.86169 0,1.11005 0.53452,1.62912 1.75376,1.64584 0.9691,0.0132 2.02257,0.26882 2.32036,0.56659 0.29778,0.29779 -0.20036,3.33335 -1.10623,6.77221 -0.90585,3.43887 -2.25679,9.33586 -2.99487,13.08575 -0.73809,3.74989 -1.7095,7.27302 -2.15849,7.82448 -1.06569,1.30888 -1.95362,1.26964 -2.48224,-0.10789 -0.23413,-0.61016 -0.0816,-8.83975 0.35076,-18.26609 l 0.78244,-17.13289 3.88526,-3.99318 c 5.02153,-5.19945 5.60104,-6.45033 6.44844,-13.86819 0.51445,-4.50329 1.59504,-8.14699 3.96619,-13.30159 4.56418,-9.92193 11.42828,-21.25135 14.81253,-24.49869 l 2.833,-2.75206 4.64072,1.1332 c 7.25519,1.77854 12.45089,1.31189 21.82758,-1.94262 4.02959,-1.39864 7.54804,-2.43082 8.49899,-2.53621 z m 200.79207,10.63049 c 0.076,0.006 0.13255,0.0446 0.1619,0.081 0.2348,0.29097 0.2348,3.95718 0,8.14824 l -0.43171,7.60863 -3.72337,0.24282 -3.69638,0.24283 0.10789,-6.25958 0.081,-6.25957 3.61546,-2.1315 c 1.73709,-1.02664 3.35314,-1.71353 3.88525,-1.67282 z m -105.36053,0.18886 c 0.66177,0 1.1931,0.47382 1.18717,1.02527 -0.0183,1.49356 -1.20838,3.10857 -1.83472,2.48225 -1.01869,-1.01871 -0.56285,-3.50752 0.64755,-3.50752 z m -6.85316,0.80943 c 0.87049,0 1.77725,0.75364 2.07754,1.69979 0.76951,2.42444 -0.66762,3.46927 -2.29338,1.67282 -1.78656,-1.97414 -1.69128,-3.37261 0.21584,-3.37261 z m 11.11615,4.88354 c 0.1293,0.0497 0.0815,0.54343 -0.027,1.48396 -0.12321,1.06837 -0.66271,2.0848 -1.21415,2.2664 -1.36441,0.44932 -1.26964,-0.78573 0.21586,-2.67112 0.59399,-0.7539 0.89598,-1.12893 1.02527,-1.07924 z m -14.75857,0.75547 c 0.61508,-0.057 1.3365,0.23191 1.72679,0.86339 0.29639,0.47959 0.21878,1.13639 -0.16189,1.48395 -0.98254,0.89715 -2.6981,0.10751 -2.6981,-1.24111 0,-0.66767 0.51813,-1.04919 1.1332,-1.10623 z m -58.11691,5.71996 c 1.0045,-0.0632 1.64583,1.24706 1.64583,3.5345 0,1.51805 -0.3962,2.75205 -0.86339,2.75205 -0.46715,0 -0.60841,-0.37583 -0.32378,-0.8364 0.28466,-0.46057 -0.0605,-1.69157 -0.75546,-2.75206 -0.77631,-1.18484 -0.94607,-2.12706 -0.45866,-2.42829 0.26681,-0.1649 0.52364,-0.25521 0.75546,-0.2698 z m 190.37743,0.67453 c 0.24681,0.0411 0.57529,0.44701 0.89036,1.2681 0.26848,0.69967 0.16709,1.85193 -0.21584,2.53621 -0.53473,0.95551 -0.79559,0.63745 -1.07924,-1.29509 -0.2415,-1.64551 -0.008,-2.57777 0.40472,-2.50922 z m -5.20732,2.56318 c 0.31675,-0.042 0.60379,0.01 0.78244,0.18886 0.21191,0.21192 0.15333,0.93809 -0.10789,1.61885 -0.59178,1.54214 -2.91395,1.65282 -2.91395,0.13492 0,-0.84524 1.28918,-1.81689 2.23942,-1.94263 z m -127.91659,1.6998 c 0.67754,0.0729 1.34906,0.77796 1.34906,1.80773 0,1.21922 -2.05098,1.60339 -2.72508,0.51263 -0.21752,-0.35194 -0.0929,-1.11288 0.26981,-1.6998 0.29344,-0.47479 0.69969,-0.66428 1.10621,-0.62056 z m 100.18019,0.64754 c 1.05105,0 2.31193,0.22253 3.42658,0.7015 1.20332,0.51709 0.65401,0.71306 -2.23941,0.75548 -2.37997,0.0348 -3.67847,-0.26058 -3.37262,-0.75548 0.29603,-0.47897 1.13442,-0.7015 2.18545,-0.7015 z m 19.88496,0.7015 c 0.44115,0 0.78244,0.36827 0.78244,0.80943 0,0.44117 -0.34129,0.80944 -0.78244,0.80944 -0.44119,0 -0.80944,-0.36827 -0.80944,-0.80944 0,-0.44116 0.36825,-0.80943 0.80944,-0.80943 z m -181.55468,1.88867 c 0.47364,-0.11581 0.1582,0.74418 -0.9983,2.50923 -1.94541,2.96904 -1.65957,8.99109 0.53962,11.33199 2.07033,2.20379 4.08373,2.47242 5.5311,0.72847 1.09906,-1.32428 3.67675,-1.6088 4.37091,-0.48563 0.24283,0.39288 -0.46027,1.29047 -1.53792,1.99657 -3.57249,2.3408 -6.06042,5.64017 -7.77051,10.30672 -1.13972,3.11007 -2.14154,4.61374 -3.04885,4.61374 -1.72574,0 -4.72172,-2.80467 -5.66599,-5.28826 -0.90017,-2.36759 -3.61133,-2.54968 -4.8026,-0.32377 -0.57797,1.07992 -1.68172,1.59187 -3.37263,1.59187 -1.38148,0 -2.24089,-0.24135 -1.91564,-0.5666 0.32525,-0.32525 1.16073,-0.61463 1.83471,-0.62056 0.67396,-0.006 2.00078,-1.44608 2.9679,-3.21072 0.96713,-1.76468 3.2693,-4.70633 5.12638,-6.5294 3.71996,-3.65175 4.23464,-5.96806 2.15848,-9.98295 -1.45118,-2.8062 -1.01932,-3.97077 1.26809,-3.37261 1.0512,0.2749 2.35633,-0.22011 3.61545,-1.40301 0.84452,-0.79338 1.4156,-1.22557 1.6998,-1.29508 z m 55.47278,1.75377 c 0.11492,-0.003 0.20073,0.0113 0.26981,0.054 0.36656,0.22656 0.67453,1.90969 0.67453,3.75035 0,3.07052 -0.42661,3.76224 -5.18034,8.31013 -4.3441,4.156 -4.99298,5.12844 -4.02016,5.93582 2.05883,1.70866 4.7051,0.14631 9.38936,-5.47713 4.4339,-5.32286 8.08939,-8.18014 9.11956,-7.14995 0.96029,0.96029 -0.50996,4.44635 -3.26469,7.74353 -2.68887,3.21835 -2.75026,3.49867 -2.29338,8.39106 0.34274,3.67049 0.0762,6.18225 -0.91736,9.17351 -1.36307,4.10392 -2.64139,5.49057 -8.68786,9.38937 -1.67394,1.07938 -3.16052,1.96961 -3.29166,1.96961 -0.13119,0 -0.67723,-1.47262 -1.21415,-3.26469 -0.53692,-1.79208 -2.21667,-4.64294 -3.75035,-6.34052 -2.69039,-2.97797 -2.79244,-3.32285 -2.88695,-9.79408 -0.10689,-7.32173 0.3366,-8.64878 4.85657,-14.19197 2.86313,-3.51129 9.47257,-8.45716 11.19707,-8.49899 z m -51.10186,0.37772 c 1.11686,0 0.80865,3.06861 -0.37776,3.77733 -0.59056,0.35281 -1.50882,1.3571 -2.05053,2.23942 -0.86761,1.41317 -0.91718,1.27252 -0.51264,-1.1332 0.47419,-2.81996 1.71113,-4.88355 2.94093,-4.88355 z m 57.03766,0.75546 c 0.33054,-0.0558 0.62492,0.14103 0.67453,0.62057 0.0332,0.31985 -0.36097,0.74089 -0.89037,0.91735 -0.52948,0.17647 -0.824,-0.11819 -0.64753,-0.64755 0.17233,-0.51701 0.53285,-0.83455 0.86337,-0.89037 z m 159.83505,1.24113 0.21584,12.65406 c 0.16957,9.70741 0.003,12.73107 -0.78246,12.97782 -0.5627,0.17688 -16.77145,0.49381 -35.99256,0.70151 l -34.9403,0.37774 -1.29507,-8.14825 c -1.16561,-7.27174 -1.57585,-8.36221 -3.77734,-10.3337 -4.42321,-3.96105 -7.83592,-2.66883 -14.48875,5.50412 -2.43662,2.99338 -6.66448,7.34881 -9.41636,9.68615 l -5.01845,4.26299 -8.76879,0 c -4.82197,0 -8.9311,-0.26272 -9.11956,-0.59359 -0.96147,-1.68795 -3.70882,-12.38412 -4.18205,-16.24251 -0.29759,-2.42641 -1.05422,-5.64844 -1.67282,-7.14995 -0.61857,-1.50154 -1.03346,-2.80831 -0.91735,-2.91393 0.11606,-0.10551 29.45163,-0.32808 65.18593,-0.48567 l 64.97009,-0.29679 z m -151.22813,0.40472 6.44845,0 c 3.53631,0 6.42146,0.0923 6.42146,0.21585 0,0.12347 -2.73041,3.01556 -6.07072,6.42146 -3.34028,3.40589 -6.46834,6.20561 -6.93409,6.20561 -0.5543,0 -0.64488,-1.45244 -0.29678,-4.20902 0.29247,-2.31612 0.50828,-5.20826 0.48565,-6.42147 l -0.054,-2.21243 z m -34.45464,0.78244 c 8.6872,-0.0472 7.43557,0.19528 1.80773,6.9341 -3.3221,3.97795 -3.42658,4.25918 -3.42658,9.79407 0,4.81515 -0.22742,5.82803 -1.53792,6.5294 -4.49805,2.40728 -13.00389,-1.77142 -9.22748,-4.53279 1.85036,-1.35303 1.69557,-4.73292 -0.35074,-7.50071 -0.99664,-1.348 -1.6998,-3.516 -1.6998,-5.20732 0,-1.59093 -0.37974,-3.59854 -0.83641,-4.45185 -0.8034,-1.5011 -0.44809,-1.53792 10.92727,-1.53792 1.66273,0 3.1029,-0.0202 4.34393,-0.027 z m -46.75794,1.78075 c 0.83918,-0.0751 1.17436,0.57468 1.51093,1.91564 0.76076,3.03113 -0.89362,4.06868 -5.69298,3.56149 l -4.02016,-0.4317 3.77734,-2.59017 c 2.26677,-1.57411 3.58568,-2.38012 4.42487,-2.45526 z m 20.72135,0.64753 c 0.64788,0 1.16017,0.34035 1.16017,0.75548 0,1.3447 -1.41517,1.66556 -1.88865,0.43168 -0.27939,-0.72803 0.0129,-1.18716 0.72848,-1.18716 z m 77.2194,0 c 0.9639,0 1.75378,0.36829 1.75378,0.80944 0,0.44119 -0.49337,0.78245 -1.10623,0.78245 -0.61287,0 -1.98037,0.69402 -3.02186,1.53791 -1.70642,1.38261 -1.79106,1.79975 -0.94433,4.04713 1.16627,3.09549 0.32061,9.74527 -2.45526,19.29137 -1.32096,4.5425 -1.7213,7.07415 -1.18717,7.60862 1.18402,1.18474 2.83587,-1.43961 4.88355,-7.79748 1.48055,-4.59698 2.02323,-5.42149 3.3996,-5.2343 1.32126,0.17967 1.7232,-0.32793 2.05055,-2.59017 0.43227,-2.98731 1.0182,-2.64032 1.91564,1.10621 0.30365,1.26764 2.16491,5.7279 4.12809,9.92898 1.96315,4.20109 3.56148,8.64378 3.56148,9.87503 0,1.23124 -2.07705,6.31411 -4.61374,11.30501 -2.5367,4.99091 -6.66816,13.4577 -9.20049,18.8057 -4.85927,10.26225 -9.10084,15.59983 -14.03008,17.67251 -1.41962,0.59693 -3.99465,1.07923 -5.71997,1.07923 -2.73745,0 -3.27482,-0.30322 -4.15506,-2.42828 -1.37172,-3.31162 -0.6179,-9.60738 2.02357,-16.89006 3.7311,-10.28687 5.22343,-16.20391 5.20732,-20.77532 -0.017,-4.81207 -1.6769,-16.84884 -3.34563,-24.39076 l -1.02528,-4.74864 2.37432,-1.64583 c 1.31824,-0.91568 5.87108,-5.18559 10.09087,-9.49729 5.07422,-5.18472 8.25729,-7.85146 9.41633,-7.85146 z m -70.9868,0.40472 c 1.10928,0 1.62876,2.80182 0.75546,4.1011 -0.3334,0.49604 -1.79161,1.17017 -3.23772,1.48396 l -2.61715,0.5666 2.07754,-3.07584 c 1.1483,-1.69212 2.50346,-3.07582 3.02187,-3.07582 z m 71.52644,4.3979 c 0.2206,0 0.4047,0.18413 0.4047,0.4047 0,0.22059 -0.1841,0.40472 -0.4047,0.40472 -0.22058,0 -0.40473,-0.18413 -0.40473,-0.40472 0,-0.22057 0.18415,-0.4047 0.40473,-0.4047 z m 52.39695,1.69979 c 0.30888,-0.0693 0.84459,0.024 1.61885,0.26981 1.27269,0.40394 1.80413,1.68052 2.53623,6.28656 0.50551,3.18039 2.1698,10.98547 3.72335,17.32175 4.36805,17.81554 4.39062,22.15466 0.081,30.97412 -4.49543,9.19959 -18.30772,24.35605 -25.41603,27.89828 -12.93236,6.44444 -13.91146,-1.8988 -2.75207,-23.44644 5.76414,-11.12984 6.12537,-14.13822 2.85998,-23.74322 -1.34294,-3.95018 -2.69492,-8.87248 -2.99488,-10.95426 l -0.53962,-3.77732 7.71655,-7.66258 c 8.71146,-8.64095 9.24116,-8.43626 5.666,2.05054 -2.18081,6.39689 -2.29619,9.17352 -0.37774,9.17352 0.78669,0 1.94673,-2.17794 3.31867,-6.25957 2.47793,-7.37202 3.1028,-8.25584 3.1028,-4.37091 0,3.66175 0.68994,5.39619 2.1045,5.39619 0.66497,0 1.13991,-0.87271 1.18717,-2.18547 0.21489,-5.97892 0.48498,-8.779 1.02526,-10.41463 0.44775,-1.3554 0.0808,-2.32055 -1.51092,-3.91223 -1.58374,-1.58371 -2.02857,-2.4916 -1.34904,-2.64414 z m -156.05769,1.59187 c 0.5203,-0.0201 0.99041,0.0751 1.34905,0.29679 1.48135,0.91555 0.92786,1.84857 -1.34905,2.23942 -1.21319,0.20827 -2.873,0.64842 -3.69638,0.9983 -1.32714,0.56394 -1.40793,0.44237 -0.59359,-1.07925 0.72605,-1.3566 2.72904,-2.39509 4.28997,-2.45526 z m 31.13599,1.78075 c 0.29402,0.003 0.595,0.0201 0.89038,0.054 5.69821,0.65464 6.12074,2.25925 1.42998,5.5041 -1.75381,1.21321 -3.91144,2.21244 -4.77563,2.21244 -1.12245,0 -2.07571,1.15785 -3.31864,4.04713 -0.95696,2.22449 -2.48147,4.56424 -3.3996,5.20733 -1.90543,1.33463 -2.85475,1.4365 -4.39788,0.45868 -0.90415,-0.57291 -0.89208,-1.00543 0.13489,-2.59017 0.67921,-1.04811 1.98242,-3.90682 2.88697,-6.34052 1.95199,-5.25183 6.1393,-8.602 10.54953,-8.55295 z m 50.69717,0.91736 c 0.73386,0.0629 1.41512,1.74162 0.78244,2.37431 -0.86067,0.86069 -1.80771,0.50668 -1.80771,-0.67452 0,-0.63571 0.33355,-1.37477 0.72848,-1.61885 0.10325,-0.0638 0.19196,-0.0899 0.29679,-0.081 z m -91.2495,0.62054 c 0.26136,-0.14151 0.15465,0.47388 -0.1349,2.02359 -1.2264,6.56349 5.51598,11.93967 11.70973,9.33539 2.556,-1.07473 2.76499,-1.0186 5.7739,1.6998 1.71108,1.54584 3.62257,2.80602 4.26299,2.80602 0.64042,0 2.05384,0.89366 3.15677,1.99659 2.82855,2.82853 6.13321,2.64768 9.79408,-0.5666 2.16924,-1.9046 3.57271,-2.53012 5.31524,-2.34734 1.30164,0.13653 3.459,-0.19894 4.8026,-0.75547 2.10997,-0.87399 2.57711,-0.83797 3.42658,0.32377 0.54095,0.73978 1.52128,1.34905 2.15848,1.34905 0.63719,0 2.4364,1.19348 4.02016,2.64413 4.22668,3.87148 5.85785,11.32659 3.77733,17.29477 -1.00953,2.8959 -1.27126,2.99632 -3.21073,1.24113 -1.85813,-1.68159 -3.12979,-0.80756 -3.12979,2.15847 0,3.03566 -3.19407,9.2925 -6.15164,12.08746 -1.25436,1.18539 -4.26487,3.0826 -6.69128,4.20902 -3.61389,1.67771 -5.5628,2.03416 -10.81935,1.99659 -7.5264,-0.0538 -11.66651,-1.18021 -16.53931,-4.5328 -3.73027,-2.56647 -4.84405,-4.19818 -6.5024,-9.44332 -0.73606,-2.32796 -1.52401,-3.2676 -2.83301,-3.45356 -0.99226,-0.14097 -1.81246,0.0431 -1.8347,0.40472 -0.2541,4.14164 -0.72179,7.68288 -1.05225,8.01334 -1.20161,1.20159 -2.22949,-7.24675 -1.78075,-14.5697 0.27052,-4.4141 0.56812,-9.48641 0.67452,-11.25106 0.16515,-2.73824 -0.0339,-3.18375 -1.40301,-3.18375 -1.10874,0 -1.6862,0.61068 -1.86167,1.99658 -0.13963,1.10291 -0.62346,3.3641 -1.05227,5.01847 -0.74899,2.88947 -0.89073,2.99488 -4.20902,2.99488 -3.76245,0 -6.18134,-1.77607 -6.0707,-4.47884 0.0347,-0.84758 1.03391,-3.00434 2.21243,-4.8026 1.17853,-1.79827 2.9802,-4.57028 3.99318,-6.15164 1.01294,-1.58137 2.34442,-3.05243 2.96789,-3.29169 0.62347,-0.23926 2.01715,-2.17371 3.10281,-4.28996 1.08567,-2.11626 2.54856,-4.56783 3.23771,-5.45015 0.44775,-0.57327 0.73356,-0.94037 0.89038,-1.02529 z m 42.84571,8.63391 c 1.33422,0 1.01221,2.18136 -0.40471,2.72507 -1.77121,0.6797 -2.58337,0.61429 -3.12979,-0.2698 -0.47485,-0.76835 1.95045,-2.45527 3.5345,-2.45527 z m 15.94573,4.88354 c 2.61793,-0.13347 5.58983,2.58878 8.06731,7.44675 3.54663,6.9544 4.79235,13.00939 5.42316,26.22546 0.46097,9.65812 0.36026,11.13584 -0.91735,13.08574 -1.76182,2.68885 -5.12166,4.50583 -8.31013,4.50583 -1.3139,0 -2.92672,0.55238 -3.58846,1.21413 -1.61617,1.61618 -1.63821,1.59522 -3.18375,-1.64584 -0.95258,-1.99758 -1.34906,-4.92059 -1.34906,-9.92898 0,-6.65216 0.1403,-7.25207 2.21245,-9.4703 3.5919,-3.84515 6.82392,-10.99472 6.74523,-14.92046 -0.0839,-4.18336 -2.69365,-10.56923 -5.53108,-13.54442 -1.87074,-1.96158 -1.93616,-2.24096 -0.67453,-2.72508 0.35657,-0.13682 0.73223,-0.22375 1.10621,-0.24283 z m 150.36472,2.61715 c 2.3692,0.0241 3.76816,0.17971 4.02016,0.43171 0.43295,0.43302 0.55967,1.62368 0.29679,2.6711 -0.43054,1.71533 -1.18383,2.01435 -7.52768,2.94092 -16.34337,2.38714 -20.82653,1.66443 -20.12777,-3.26469 0.25712,-1.81384 0.508,-1.87596 13.40952,-2.50922 4.20936,-0.20662 7.55976,-0.29391 9.92898,-0.26982 z m 8.2022,0.13492 6.42146,0 c 6.31006,0 6.42148,0.0247 6.42148,1.99657 0,1.95956 -0.16953,2.01086 -6.69128,2.23943 l -6.6643,0.24283 0.26982,-2.23942 0.24282,-2.23941 z m -81.59033,0.67451 c 2.52019,-0.0962 3.34938,0.16839 3.93923,0.97132 1.17571,1.60054 2.17617,7.21703 1.48394,8.33711 -0.55413,0.89659 -2.28775,1.11182 -3.02186,0.37773 -0.24854,-0.24856 -2.15469,-0.58588 -4.23601,-0.75547 -2.08132,-0.1696 -3.88035,-0.40629 -3.99317,-0.53962 -0.11292,-0.13333 -0.91969,-1.93106 -1.80773,-3.96619 l -1.61885,-3.69639 6.12466,-0.51264 c 1.27434,-0.10814 2.28973,-0.18377 3.12979,-0.21585 z m 43.95194,0.5666 c 0.25465,-8.5e-4 0.55021,0.0215 0.86339,0.081 1.12135,0.2129 1.54102,1.13418 1.72677,3.69639 0.32055,4.42138 -1.77022,4.70815 -3.53449,0.48566 -1.1628,-2.78297 -0.83819,-4.25697 0.94433,-4.26298 z m -92.13987,2.29338 c 0.24042,-0.0303 0.46763,0.009 0.62056,0.16189 0.24702,0.24702 0.51555,1.86594 0.62056,3.58846 0.1588,2.60456 -0.069,3.17492 -1.40301,3.34563 -2.79355,0.35749 -4.05965,-1.02188 -3.18375,-3.48054 0.63901,-1.79374 2.30379,-3.48425 3.34564,-3.61544 z m 140.1929,4.55978 c 0.50333,0.01 0.8506,0.0521 0.99829,0.10789 2.43121,0.91941 3.59099,12.75946 1.45698,14.89348 -0.79527,0.79528 -3.81466,1.35375 -9.41635,1.6998 -4.53924,0.28041 -10.6711,0.69505 -13.59838,0.94433 -3.70196,0.31524 -5.49552,0.18312 -5.90884,-0.48565 -0.72805,-1.17801 -1.17348,-14.43924 -0.48565,-14.46178 0.27112,-0.009 2.8524,-0.36711 5.71996,-0.80943 6.39767,-0.98683 17.71067,-1.96156 21.23399,-1.88866 z m -255.48242,0.40472 3.61544,2.02355 c 1.99293,1.11388 3.61546,2.28017 3.61546,2.59019 0,0.31001 -1.65534,1.96329 -3.69639,3.6694 -4.49193,3.75478 -7.39976,9.66173 -8.17523,16.62026 l -0.5396,4.99147 -6.82619,4.64072 c -3.74988,2.55304 -7.08888,4.65513 -7.41976,4.66769 -0.33086,0.0126 -0.61561,-0.63097 -0.62056,-1.40301 -0.01,-1.94258 -4.18699,-9.00459 -6.71825,-11.35897 -1.32451,-1.23193 -2.07753,-2.79036 -2.07753,-4.26298 0,-2.01254 3.39216,-18.36157 4.42488,-21.31493 0.25501,-0.72925 1.37155,-0.22777 3.6694,1.61885 4.34807,3.49418 8.06245,3.51525 15.35214,0.081 l 5.39619,-2.56318 z m 107.14128,0.72848 c 0.6357,0 1.16018,0.34129 1.16018,0.78246 0,0.44114 -0.73748,0.80942 -1.64585,0.80942 -0.90836,0 -1.43283,-0.36828 -1.16018,-0.80942 0.27267,-0.44117 1.01013,-0.78246 1.64585,-0.78246 z m 106.87145,2.50922 c 0.83311,-0.004 1.74389,0.0216 2.67112,0.054 l 6.71825,0.24282 0,5.98977 0,6.01675 -2.80602,0.89037 c -1.54407,0.49338 -4.66361,1.14026 -6.9341,1.42999 l -4.12808,0.53961 -0.32377,-7.04202 c -0.18737,-3.86932 -0.10412,-7.31274 0.18886,-7.66259 0.21976,-0.26238 2.11444,-0.44605 4.61374,-0.45867 z m -52.72073,1.48396 c 2.69705,0 3.33388,0.31647 3.99318,2.05055 0.43024,1.13162 0.78244,3.31421 0.78244,4.82958 0,3.27338 -0.6509,3.32785 -5.82789,0.45867 -3.92533,-2.1755 -4.39342,-3.11028 -2.96789,-5.77391 0.60792,-1.1359 1.67724,-1.56489 4.02016,-1.56489 z m -48.83548,0.70151 c 5.11385,-0.14627 4.6677,0.23447 4.6677,6.12466 l 0,6.01675 -5.63901,0 c -6.20264,0 -5.95961,0.19147 -7.12298,-6.01675 -0.95136,-5.07698 -0.22209,-5.88275 5.55808,-6.04372 0.97491,-0.0273 1.80565,-0.06 2.53621,-0.081 z m 58.30579,1.02526 c 0.7382,0.12309 1.66709,2.67185 2.21243,7.31185 0.53069,4.51527 -0.0914,5.84757 -2.1315,4.58676 -0.8316,-0.51398 -1.18141,-2.33728 -1.21413,-6.36751 -0.0314,-3.85348 0.48183,-5.63972 1.1332,-5.5311 z m -158.99862,2.37433 c 0.75682,-0.0236 1.67962,0.0221 2.91394,0.081 l 4.99147,0.24283 0.51265,6.23259 c 0.3999,4.92371 0.99474,7.04444 2.80601,9.95596 3.21588,5.16936 4.78348,5.99146 6.79919,3.53451 l 1.59187,-1.94263 2.96791,2.85998 c 1.63598,1.5791 4.78225,3.71581 6.98805,4.74864 3.55013,1.66232 4.02845,2.20438 4.26299,4.6677 0.2564,2.69264 0.2136,2.74394 -1.2681,1.40301 -1.92061,-1.73815 -3.39959,-1.7929 -3.39959,-0.10789 0,2.46849 4.91742,10.52046 8.66087,14.16498 2.07128,2.01654 6.11708,5.24985 8.98466,7.20391 l 5.20732,3.56147 -0.10789,7.2309 c -0.0576,3.97743 -0.72769,10.27375 -1.51093,13.97612 -0.78323,3.7024 -1.83518,8.68969 -2.34733,11.08916 -0.51212,2.39949 -1.33012,4.48152 -1.80773,4.64072 -1.45823,0.48609 -20.06861,-18.07823 -23.79718,-23.74322 -5.15875,-7.83792 -7.65931,-14.75483 -12.0335,-33.18655 -0.55685,-2.34653 -2.65205,-3.00032 -3.39959,-1.05225 -0.99195,2.58497 4.87592,22.94466 8.90371,30.89317 2.71678,5.3613 12.62645,16.99454 19.53419,22.90681 3.09266,2.64697 5.66243,5.43357 5.69298,6.20561 0.0782,1.97704 -0.88655,1.74928 -4.34393,-0.99829 -4.77969,-3.79841 -11.26378,-6.58574 -16.67422,-7.17694 -2.83513,-0.30979 -6.73239,-1.44368 -9.01163,-2.61714 -8.51101,-4.38187 -24.77539,-7.76436 -32.45805,-6.74524 -2.61577,0.34701 -5.95562,-0.005 -10.54955,-1.10621 -3.69848,-0.88662 -9.16356,-1.58891 -12.14142,-1.59187 -6.1831,-0.006 -6.1687,0.003 -3.88525,-6.50242 4.27335,-12.17234 11.86032,-26.06873 17.61854,-32.29616 1.16778,-1.26292 5.7623,-4.76145 10.22578,-7.77051 4.46345,-3.00907 8.35485,-6.07199 8.6339,-6.79919 0.27904,-0.72718 0.51263,-2.95624 0.51263,-4.96449 0,-5.7657 1.62502,-9.92972 5.39619,-13.70632 2.55081,-2.55446 3.26062,-3.22069 5.53109,-3.29166 z m 143.13382,5.74694 c 2.54788,0.1393 13.07537,5.13528 14.94745,7.2039 1.21705,1.34484 1.07495,1.88741 -2.18546,8.22919 -1.92308,3.74056 -3.53607,6.7992 -3.58847,6.7992 -0.0524,0 -1.33966,-1.29767 -2.85997,-2.88697 -1.52032,-1.5893 -4.67194,-3.9679 -6.98806,-5.28825 -3.18149,-1.81372 -4.20902,-2.8561 -4.20902,-4.263 0,-2.72815 2.95867,-9.1568 4.47883,-9.7401 0.094,-0.036 0.23486,-0.0633 0.4047,-0.054 z m -202.68073,3.91223 c 0.53128,-0.0132 1.13693,0.023 1.91565,0.10789 4.06172,0.44341 4.03688,0.43429 4.64072,3.45356 0.41377,2.06887 0.17388,2.44543 -1.99659,3.26469 -2.66827,1.00717 -3.72437,2.73397 -2.94093,4.77563 0.45377,1.18286 0.63686,1.17377 2.42828,0 2.87877,-1.88626 8.82766,-0.92279 10.95427,1.78073 1.38916,1.76607 1.84007,1.91837 3.18375,1.07925 1.42799,-0.89182 1.73693,-0.56419 3.56147,3.56147 1.09987,2.48694 1.99659,5.40668 1.99659,6.50241 0,1.09574 -1.85138,4.74995 -4.10109,8.12126 -2.24972,3.3713 -4.14615,6.21666 -4.23601,6.31354 -0.0898,0.0968 -1.14397,-0.79322 -2.32036,-1.96961 -2.05149,-2.05149 -2.28499,-2.09888 -5.9628,-1.18716 -2.10895,0.52279 -6.5393,0.85164 -9.84802,0.72848 l -6.01675,-0.21585 -1.86169,-3.58847 c -1.5214,-2.93281 -1.7911,-4.53865 -1.56489,-8.95766 0.24868,-4.85773 0.62281,-5.88755 3.77733,-10.36068 3.03527,-4.30399 3.362,-5.16385 2.50922,-6.52938 -0.85313,-1.36607 -0.61925,-1.92963 1.69981,-4.34393 1.81051,-1.88487 2.58819,-2.49637 4.18204,-2.53621 z m 303.18469,1.61885 c 3.48065,-0.0743 3.68186,1.1461 3.69639,5.61204 0.008,2.35599 -0.44979,4.22713 -1.24111,5.01845 -0.9587,0.95868 -2.9946,1.26811 -8.47202,1.26811 l -7.20391,0 0.53963,-5.01846 c 0.30093,-2.75728 0.66826,-5.15242 0.80942,-5.31524 0.14109,-0.16278 3.36707,-0.67121 7.17693,-1.1332 2.00719,-0.24339 3.53446,-0.40692 4.69467,-0.4317 z m -142.51325,0.89037 c 1.50303,-0.0717 2.71345,0.0367 2.94091,0.40473 0.27726,0.44863 -0.93976,5.10813 -2.69809,10.33369 -3.56823,10.60445 -3.87623,14.35181 -1.64583,19.26438 1.9927,4.38913 5.41057,6.23286 10.33368,5.55806 7.86831,-1.07847 14.8262,-7.52011 20.6674,-19.12946 4.21015,-8.36764 4.97591,-8.60727 12.1684,-3.80432 6.91025,4.61449 7.66812,6.03649 6.23259,11.54785 -1.45455,5.58439 -0.53789,9.23123 2.99489,12.06046 1.42088,1.13792 3.08544,2.48742 3.69639,2.99489 0.88282,0.7333 0.98654,2.32481 0.48565,7.79748 -0.34665,3.78723 -0.72272,19.71069 -0.80943,35.372 -0.1511,27.31499 -0.70394,47.53125 -1.67282,59.95163 -0.43498,5.57632 -1.44995,7.40262 -2.45525,4.42487 -1.71412,-5.07722 -7.35467,-15.40983 -11.41295,-20.88324 -4.59433,-6.19638 -4.79424,-6.6642 -4.91052,-11.54783 -0.17055,-7.16169 -0.18892,-7.02986 1.96961,-8.01333 1.07307,-0.48895 2.39006,-1.96181 2.94091,-3.29169 0.90742,-2.19073 0.82916,-2.56354 -0.83641,-3.91223 -1.01107,-0.81873 -2.32803,-1.48395 -2.94091,-1.48395 -0.68568,0 -1.1332,-0.88436 -1.1332,-2.2664 0,-1.23526 -0.37412,-2.61354 -0.8364,-3.07583 -0.58596,-0.58592 -0.55735,-1.4808 0.10789,-2.94091 0.77415,-1.69906 0.74016,-2.43897 -0.24282,-3.93922 -0.66649,-1.01716 -1.46644,-3.02086 -1.78075,-4.45186 -0.65048,-2.96161 -2.44268,-4.18204 -6.07071,-4.18204 -1.83287,0 -3.22217,-0.75839 -5.15336,-2.80601 -3.98706,-4.22753 -8.47883,-3.41467 -11.305,2.05055 -0.67056,1.29672 -1.72212,2.34734 -2.34734,2.34734 -0.62524,0 -3.19745,2.62943 -5.69299,5.82788 -2.49552,3.19845 -4.84604,5.92657 -5.23429,6.07071 -0.38827,0.14406 -1.31913,-1.05374 -2.07753,-2.64414 -1.28338,-2.69126 -1.30692,-3.024 -0.081,-5.09939 0.7245,-1.22647 2.02244,-4.78566 2.88696,-7.90541 1.30328,-4.70297 1.48144,-6.70675 0.91735,-11.73671 -0.80539,-7.18167 -2.10198,-9.95979 -6.17863,-13.32857 -4.76734,-3.93952 -9.02503,-5.66601 -13.97612,-5.66601 -3.9345,0 -4.53984,-0.23551 -5.34223,-1.99658 -0.53302,-1.16986 -1.81248,-2.15714 -3.12977,-2.42828 -1.22823,-0.25283 -3.53112,-0.82002 -5.12639,-1.24113 -1.59526,-0.4211 -3.77786,-0.76178 -4.82959,-0.78244 -1.80523,-0.0355 -1.7543,-0.1656 0.89037,-2.21244 1.54082,-1.1925 4.45688,-3.69784 6.47544,-5.55807 3.31451,-3.05454 3.9685,-3.32442 6.66428,-2.88696 2.32535,0.37737 3.36738,0.12535 4.74865,-1.1332 0.97522,-0.88853 3.16435,-2.07495 4.85657,-2.61714 7.01076,-2.24636 11.70473,-9.82404 10.68444,-17.2678 -0.31201,-2.27629 -0.14739,-3.71521 0.51263,-4.26299 0.91587,-0.76009 4.24016,-1.39124 6.74524,-1.51094 z m 121.5221,0.10789 c 5.6264,0.0623 5.64315,1.18694 4.72166,5.28827 -0.41952,1.86709 -1.14862,3.81881 -1.64584,4.31694 -1.03086,1.03274 -29.75304,1.78767 -30.73127,0.80944 -0.88829,-0.88829 -0.70191,-5.57863 0.29679,-7.77051 0.74123,-1.62683 1.44765,-1.91862 4.61373,-1.91566 2.0555,0.003 8.83962,-0.2343 15.08235,-0.51263 3.29073,-0.14671 5.78711,-0.23661 7.66258,-0.21585 z m -156.24657,7.68956 c 0.2909,0 0.31502,1.24374 0.027,2.77904 -0.34438,1.83566 -0.0494,4.1589 0.89036,6.77222 l 1.42999,3.99318 -2.94091,3.58846 c -3.34644,4.08384 -9.42344,8.78258 -13.65235,10.54954 -3.53053,1.47514 -3.62393,1.46845 -6.34052,-0.21584 -2.20835,-1.3692 -2.91016,-3.68227 -1.40301,-4.61375 2.45034,-1.51438 -0.69818,-9.27096 -4.45184,-10.98124 -1.12114,-0.5108 -1.93528,-1.47079 -1.80773,-2.13149 0.18254,-0.94603 1.36502,-1.14947 5.53108,-0.99828 6.45215,0.234 12.71612,-1.78799 18.29307,-5.88185 2.14371,-1.57364 4.13311,-2.85999 4.42488,-2.85999 z m 161.39993,7.2309 c 20.77567,-0.0143 20.05016,-0.29782 19.02155,7.36579 -0.60412,4.50091 -0.92379,5.15394 -3.07582,6.20561 -3.15227,1.54049 -33.56877,2.35075 -34.45464,0.91736 -0.31292,-0.50626 -0.77292,-3.65115 -1.02529,-6.98807 -0.35626,-4.71058 -0.2254,-6.2195 0.64754,-6.77221 0.61839,-0.39151 9.12476,-0.72255 18.88666,-0.72848 z m -32.16128,0.78245 c 7.9432,0 8.39108,0.43739 8.39108,7.95937 0,5.57826 -0.32378,5.87015 -7.39278,7.17692 -2.51045,0.46409 -8.7831,1.09415 -13.94914,1.40301 -7.95765,0.47574 -9.28392,0.38889 -8.71484,-0.5666 1.53551,-2.57807 12.60128,-15.05266 13.73329,-15.48706 0.67522,-0.2591 4.2341,-0.48564 7.93239,-0.48564 z m -156.86712,8.20219 c 0.069,8.3e-4 0.13776,9.9e-4 0.21585,0.027 0.55147,0.18311 1.3639,1.30283 1.78074,2.48224 0.99853,2.82533 -0.57799,4.71538 -1.88866,2.2664 -1.12591,-2.10363 -1.14158,-4.78808 -0.10789,-4.77562 z m 202.11415,10.14484 c 1.78168,0.004 3.09212,0.0896 3.45354,0.26981 2.15407,1.07414 2.02008,10.67686 -0.16188,11.84462 -1.69292,0.90602 -18.69382,1.16415 -19.56116,0.29679 -0.84582,-0.8458 -0.60811,-10.54659 0.26981,-11.08916 1.06255,-0.6567 10.65463,-1.33294 15.99969,-1.32206 z m -32.37712,0.1349 c 4.9982,-0.0113 9.00577,0.3307 9.84804,1.02528 1.20091,0.9903 0.86212,9.76836 -0.4317,11.06218 -0.37953,0.37953 -4.84004,1.06293 -9.902,1.51093 l 0,-0.027 c -10.26063,0.90813 -18.61092,0.97373 -21.6387,0.13489 -3.01825,-0.83618 -4.41761,-4.38112 -3.2647,-8.22918 0.51111,-1.7059 0.98662,-3.09292 1.07924,-3.10281 0.0926,-0.01 3.9747,-0.60211 8.60692,-1.29508 4.72747,-0.70717 10.70471,-1.06788 15.7029,-1.07923 z m -41.79346,2.23943 c 0.95105,-0.0186 2.16184,-0.0113 3.69639,0.027 3.6964,0.0909 7.01821,0.46186 7.39278,0.83641 0.97557,0.97558 -0.21097,7.9545 -1.59189,9.3354 -1.47624,1.47625 -13.10675,1.65181 -14.54272,0.21585 -1.46983,-1.46982 -1.14297,-6.63694 0.53962,-8.71484 1.01737,-1.25603 1.65264,-1.64421 4.50582,-1.6998 z m -108.81409,5.2073 c 0.47437,0.0198 1.06351,0.31709 1.72678,0.91736 1.06514,0.96398 2.22882,1.20791 4.20903,0.83641 3.5662,-0.66902 3.95922,-0.0829 6.20562,9.22748 2.46232,10.20572 2.49353,19.81635 0.081,28.62676 -0.99175,3.62169 -2.32267,7.01457 -2.94093,7.52768 -0.61826,0.51311 -1.10622,1.56042 -1.10622,2.32036 0,0.75994 -0.67717,1.96798 -1.48395,2.69809 -1.66651,1.50817 -3.02549,1.71249 -3.75035,0.53961 -0.27266,-0.44115 -1.46189,-0.80942 -2.6711,-0.80942 -1.20923,0 -2.65255,-0.44009 -3.18375,-0.97131 -0.53123,-0.53122 -2.17833,-0.88292 -3.66942,-0.78244 -3.63635,0.24491 -3.91914,-0.94875 -1.56489,-6.69128 4.47949,-10.92651 8.1983,-32.25372 6.96107,-39.87781 -0.37443,-2.30745 0.14356,-3.6051 1.18717,-3.56149 z m 18.83269,6.34053 c 1.38793,-0.0437 3.16258,0.14203 5.18034,0.59358 3.16806,0.70898 5.35694,1.8572 7.58164,3.93921 2.75797,2.58108 3.22738,3.56812 4.02016,8.52598 0.49382,3.08813 0.85214,6.80678 0.80944,8.25616 -0.13202,4.47924 -2.62313,10.5825 -5.50412,13.46348 -1.51301,1.513 -3.04284,2.75207 -3.39961,2.75207 -0.35675,0 -1.64025,-2.55717 -2.85998,-5.66601 -1.33169,-3.39429 -3.0023,-6.1518 -4.15505,-6.90712 -1.72955,-1.13322 -1.91565,-1.82987 -1.91565,-7.01504 0,-5.04852 -1.17656,-11.61995 -2.83299,-15.89177 -0.48928,-1.26179 0.76262,-1.97777 3.07582,-2.05054 z m 103.41791,1.67281 c 0.67432,0.033 1.57739,0.46607 3.34563,1.32208 2.59459,1.25598 4.95652,1.7344 8.28315,1.64583 2.55221,-0.0678 5.08755,-0.11719 5.63901,-0.081 1.46895,0.0963 1.35549,11.31423 -0.1349,13.35556 -1.02054,1.39776 -2.24396,1.56388 -11.84463,1.64583 -12.30289,0.10513 -23.87818,-0.59499 -25.3351,-1.5379 -1.8956,-1.22688 -0.6345,-12.08996 1.56489,-13.51746 0.58338,-0.37861 4.17479,-0.59803 7.98636,-0.48564 5.81685,0.17134 7.19116,-0.0145 8.57993,-1.26812 0.80837,-0.72973 1.24133,-1.11228 1.91566,-1.07923 z m 41.95534,0.054 c 0.64705,-0.0392 1.20845,0.071 1.6998,0.32375 0.81207,0.41789 5.57268,0.78206 10.57651,0.80944 5.00388,0.0275 9.31274,0.2741 9.57824,0.53962 0.74293,0.74295 0.67364,11.43859 -0.081,12.19538 -0.36682,0.3679 -4.17963,0.89664 -8.44504,1.18716 -4.26542,0.29051 -13.04203,0.80406 -19.53418,1.1332 l -11.81766,0.59358 -0.78244,-2.05055 c -0.44732,-1.17657 -0.56068,-4.268 -0.24283,-7.14995 l 0.56661,-5.07241 6.96108,-0.48567 c 3.82225,-0.26162 8.01398,-0.90959 9.3354,-1.45696 0.79951,-0.33117 1.53841,-0.52734 2.18545,-0.56659 z m -269.32364,17.86135 c 0.57766,-0.006 1.15711,-0.008 1.78074,0 5.74611,0.0643 9.70199,0.52651 12.43822,1.48396 2.71767,0.95094 8.03357,1.61732 16.45836,2.02357 15.94041,0.76866 20.29157,2.10677 31.62165,9.74011 7.28512,4.90813 8.63529,5.55765 9.74011,4.64072 1.14588,-0.95102 0.994,-1.3032 -1.40301,-3.29167 -2.02176,-1.67721 -2.31668,-2.25009 -1.24112,-2.2664 2.82443,-0.0427 11.06751,4.88888 15.37913,9.20049 4.70074,4.70077 6.33579,7.28351 7.23089,11.43991 0.48448,2.24977 0.34012,2.61716 -1.02527,2.61716 -1.75547,0 -2.55064,1.44314 -2.5632,4.66771 -0.004,1.17711 -0.92347,4.08529 -2.02356,6.44843 -1.98202,4.25764 -2.01133,4.28698 -3.39961,2.61716 -1.64251,-1.97564 -2.66819,-1.50722 -4.53279,2.13148 -0.74471,1.45331 -2.49987,3.34786 -3.91223,4.20904 -1.41239,0.86117 -2.74732,1.57379 -2.96791,1.56488 -0.22057,-0.01 -1.05541,-1.46186 -1.86168,-3.21072 -1.25674,-2.72601 -2.42054,-3.63206 -8.04031,-6.36751 -8.06787,-3.92697 -15.73181,-5.51079 -31.40579,-6.50239 -6.61749,-0.41866 -14.13282,-1.13252 -16.67422,-1.59188 -2.54141,-0.45935 -4.95974,-0.62052 -5.39619,-0.35076 -1.16516,0.72011 -0.97212,2.44577 0.4047,3.58847 0.66175,0.54919 1.21415,1.84647 1.21415,2.88696 0,2.39716 -2.27448,3.03634 -9.28143,2.59017 -5.05922,-0.32214 -5.31109,-0.45358 -9.57824,-4.66771 -4.23847,-4.18584 -6.33186,-8.24099 -6.98807,-13.62536 -0.28734,-2.35795 -3.55887,-3.31392 -4.34391,-1.26811 -0.26485,0.69023 -0.79223,1.0535 -1.18717,0.80943 -1.17876,-0.72852 -0.80303,-5.2284 0.89037,-10.63048 1.17195,-3.73858 1.38851,-5.47787 0.78245,-6.61033 -0.67978,-1.27014 -0.27071,-2.16905 2.45527,-5.12637 5.04254,-5.47053 8.76488,-7.06292 17.42967,-7.14996 z m 282.03166,1.21415 c 0.97815,-0.006 1.94897,0.0226 2.88696,0.054 l 6.82617,0.21584 0.21585,6.42146 c 0.11279,3.5293 -0.13925,6.97386 -0.56661,7.6356 -0.58073,0.8993 -2.55641,1.21581 -7.82446,1.32208 -12.55593,0.25335 -13.74092,-0.59233 -12.60009,-9.03862 l 0.72847,-5.47713 3.21074,-0.64754 c 1.32196,-0.27216 4.18852,-0.46722 7.12297,-0.48566 z m -32.80882,0.10788 c 0.60683,0.0161 1.2432,0.16783 2.07754,0.45868 1.43114,0.49891 5.41325,0.91736 8.87671,0.91736 l 6.31356,0 0,5.55806 c 0,4.09042 -0.34998,5.90806 -1.32208,6.88014 -1.15606,1.15605 -3.39573,1.30013 -17.86136,1.10621 -9.08952,-0.12183 -17.40602,-0.44174 -18.50892,-0.70149 -1.67075,-0.39348 -2.06717,-1.01085 -2.2664,-3.69639 -0.13153,-1.7728 0.1421,-4.2087 0.59357,-5.39618 0.80855,-2.12665 0.9282,-2.15848 8.14825,-2.15848 5.99409,0 7.87386,-0.30215 10.36066,-1.6998 1.62519,-0.9134 2.5771,-1.29495 3.58847,-1.26811 z m -40.6063,1.8347 c 3.14083,-0.13492 12.88822,0.79686 13.49047,1.40301 1.0121,1.01864 0.59401,9.2106 -0.53962,10.57653 -0.70588,0.85054 -2.54793,1.17737 -6.31353,1.16018 -7.58039,-0.0348 -8.12127,-0.50502 -8.12127,-7.17693 0,-3.04019 0.26272,-5.66211 0.59358,-5.82787 0.13378,-0.0671 0.44168,-0.11568 0.89037,-0.13492 z m -44.84229,4.34394 c 1.47374,0 2.57082,2.53709 2.32035,5.3692 -0.32752,3.70374 1.44022,4.43315 4.64072,1.91565 3.58928,-2.82333 5.96762,-1.82568 2.6981,1.13319 -0.88232,0.79851 -1.59188,1.94282 -1.59188,2.53621 0,1.55249 -1.39658,1.26186 -6.61033,-1.40301 -4.01619,-2.05276 -4.61373,-2.66456 -4.61373,-4.69468 0,-2.19434 1.7243,-4.85656 3.15677,-4.85656 z m -40.82216,1.83469 c 0.0716,-0.0211 0.14208,-0.0246 0.21586,0 0.47176,0.15725 1.56045,1.97123 2.40131,4.02017 1.40509,3.42385 1.42922,3.83205 0.24281,5.01845 -2.14691,2.14693 -1.67646,12.72651 1.05227,23.63529 2.6552,10.61495 3.71522,13.62537 4.8026,13.62537 1.69685,0 1.59071,-1.84223 -0.64755,-11.00821 -2.775,-11.36411 -3.71811,-19.12177 -2.64412,-21.88154 l 0.78245,-1.9966 0.94432,2.40131 c 1.85714,4.7817 7.96977,13.6631 10.38766,15.08234 1.91833,1.126 2.36976,1.85841 2.02357,3.23771 -0.90221,3.59475 2.63502,6.97653 12.89689,12.33028 11.30216,5.89651 15.00306,9.41664 16.94403,16.18857 2.0512,7.15657 4.28995,8.50694 4.28995,2.59017 0,-7.04123 -7.54234,-16.35588 -16.6742,-20.58645 -9.73488,-4.50992 -14.59669,-8.24213 -14.59669,-11.22407 0,-0.74818 9.53466,-0.33728 10.00993,0.4317 0.99099,1.60345 6.22391,0.80581 10.41463,-1.59188 4.50117,-2.57531 14.13865,-6.42146 16.08063,-6.42146 2.58074,0 0.91776,1.70054 -4.236,4.3709 -10.78112,5.58615 -16.42041,8.92114 -16.43139,9.65919 -0.006,0.41413 0.54009,1.08575 1.21415,1.51092 0.90588,0.57144 2.76119,-0.15399 7.12296,-2.77903 3.24552,-1.95323 6.20139,-3.69422 6.58335,-3.85827 1.38666,-0.59563 1.85057,1.68562 1.10621,5.45014 -0.7253,3.66829 -0.62663,4.01849 1.96961,7.41977 4.02679,5.27537 14.7379,24.51783 16.21555,29.13939 0.70526,2.20582 2.1884,6.78897 3.29166,10.17181 2.59838,7.96714 2.73356,16.28478 0.35076,21.20701 -3.37829,6.97861 -10.85044,11.85785 -20.18173,13.16669 -3.21847,0.45144 -8.67365,1.34387 -12.14142,1.9966 -10.55406,1.98653 -18.77982,1.4859 -29.0045,-1.75377 -15.67179,-4.96552 -16.0148,-5.03441 -23.12265,-4.5328 l -6.6643,0.48567 -5.42317,-4.91053 c -5.99596,-5.4338 -13.58774,-9.50538 -19.23739,-10.27974 l -3.6964,-0.48566 0,-7.82447 c 0,-9.31446 1.68804,-15.66096 6.17864,-23.06869 3.93201,-6.48632 12.72275,-15.40611 15.16328,-15.40611 2.57031,0 3.11229,-1.32293 2.833,-6.88014 -0.26458,-5.26409 -0.80259,-4.22982 7.41975,-14.38083 1.28114,-1.58166 2.99438,-5.11461 3.77734,-7.85145 2.00486,-7.01001 1.99993,-2.30263 0,7.55466 -2.50136,12.32856 -3.52318,21.63908 -2.48225,22.66398 1.43342,1.41132 2.96865,-1.36972 3.58847,-6.55637 0.30099,-2.51884 1.42819,-9.45039 2.5362,-15.40611 1.10802,-5.95574 2.12564,-14.26388 2.23942,-18.45496 0.23115,-8.50969 1.03124,-13.90226 2.1045,-14.21895 z m 32.51203,7.14995 c 0.447,-0.0309 0.88878,0.10576 1.45696,0.32377 1.93884,0.74402 1.60515,1.68119 -2.59016,7.01505 -2.13117,2.70955 -5.02912,6.6463 -6.44845,8.74182 -2.75183,4.06289 -3.24007,4.36854 -4.74863,2.85998 -1.67912,-1.6791 -1.11111,-2.95101 5.0724,-11.11614 4.58706,-6.05707 5.91688,-7.73181 7.25788,-7.82448 z m 112.24066,1.99659 c 0.8208,0.009 1.81641,0.34088 3.2647,1.07925 2.46822,1.25838 4.72065,1.59187 11.25104,1.59187 6.70709,0 8.23405,0.2261 8.63389,1.26809 0.82244,2.14323 0.5348,7.83232 -0.51262,9.90201 -0.98323,1.94282 -1.11953,1.98056 -12.70803,2.02357 -6.43612,0.0239 -15.45499,-0.49843 -20.04682,-1.16018 l -8.33711,-1.21414 0,-5.61203 0,-5.61205 7.7705,-0.56659 c 4.28283,-0.30544 8.49493,-0.92619 9.3354,-1.37602 0.4302,-0.23024 0.85657,-0.32927 1.34905,-0.32378 z m -105.54939,1.05227 c 0.30173,0 1.25512,0.51209 2.10451,1.13319 1.48602,1.0866 1.41502,1.28126 -1.67283,5.01845 -1.76499,2.13619 -4.2218,5.22577 -5.45013,6.88014 -1.84074,2.47915 -2.72771,3.02186 -5.04544,3.02186 -3.24806,0 -3.65231,0.87318 4.39789,-9.47031 2.8124,-3.61358 5.36428,-6.58333 5.666,-6.58333 z m 14.65065,0 c 1.36403,0 1.47965,0.21149 0.64754,1.21412 -1.10067,1.32626 -3.67482,1.61197 -4.37091,0.48567 -0.51603,-0.83496 1.36693,-1.69979 3.72337,-1.69979 z m -40.6063,0.80942 c 1.28638,0 4.56575,6.29475 4.02015,7.71655 -0.771,2.00922 -2.01975,1.14158 -4.02015,-2.80602 -1.95161,-3.85084 -1.95388,-4.91053 0,-4.91053 z m 94.62212,0.054 c 12.88416,-0.13784 12.38609,0.48937 12.97782,7.01504 0.33697,3.71618 0.18337,4.82004 -0.75546,5.18034 -1.99388,0.76504 -20.62899,1.20452 -28.24904,0.67451 -6.78439,-0.47189 -7.19354,-0.61028 -7.68956,-2.50922 -0.28819,-1.10291 -0.312,-3.81091 -0.054,-6.01675 l 0.48566,-3.99318 16.91705,-0.24282 c 2.42912,-0.0352 4.52691,-0.0882 6.3675,-0.10789 z m -61.30068,3.34562 c 0.30091,0.0391 0.59843,0.19372 0.80942,0.40472 0.48833,0.48832 -0.47924,2.61157 -2.6711,5.88185 -2.648,3.95081 -3.94307,5.20104 -5.63903,5.39617 -1.21319,0.13962 -2.21243,-0.0921 -2.21243,-0.5396 0,-0.88936 7.43433,-10.0628 8.87673,-10.95427 0.24556,-0.15175 0.5355,-0.2279 0.83641,-0.18887 z m 5.71996,2.53622 c 0.29964,-0.0167 0.62062,0.0481 0.91735,0.16188 2.33263,0.8951 1.51169,3.52395 -1.48395,4.77564 -4.05117,1.69267 -4.66071,1.489 -3.31865,-1.10624 1.27265,-2.46105 2.58675,-3.75908 3.88525,-3.83128 z m -78.10979,2.88696 c 2.20604,-0.0467 13.7333,3.6412 13.7333,4.39789 0,1.32004 -4.00156,6.65599 -7.50071,9.98294 -3.05738,2.90693 -4.06923,5.27416 -4.91053,11.49388 -0.40194,2.97137 -0.9976,4.13011 -2.67111,5.18034 -5.18581,3.25451 -9.97533,7.94695 -13.40951,13.11273 l -3.69639,5.55807 -5.07243,0 c -7.0185,0 -7.31139,-0.50042 -5.9358,-9.82106 l 1.10622,-7.41975 3.39959,-0.45868 c 1.8788,-0.25074 4.47836,-1.22761 5.77393,-2.18546 1.29555,-0.95784 2.86976,-1.5398 3.50752,-1.29509 1.88462,0.72321 7.02441,-4.4935 9.41635,-9.55124 1.21846,-2.57647 2.8739,-5.40756 3.6694,-6.28655 1.01329,-1.11971 1.53382,-3.25744 1.75376,-7.14996 0.17268,-3.05573 0.55531,-5.55214 0.83641,-5.55806 z m 151.03924,7.85144 c 2.43775,-0.009 4.32024,0.0618 5.04543,0.26982 1.34198,0.38486 3.75911,0.70151 5.3692,0.70151 3.45107,0 3.88525,0.78012 3.88525,6.85315 0,3.61729 -0.29918,4.52978 -1.80771,5.47712 -3.53215,2.21818 -30.53416,2.17443 -32.75485,-0.054 -1.11524,-1.11917 -1.22853,-10.50817 -0.13491,-11.6018 0.78502,-0.78502 13.08433,-1.61912 20.39759,-1.64584 z m -31.00109,0.51264 c 1.36031,0.0309 2.46066,0.16058 3.1028,0.40472 2.00216,0.76123 2.10452,1.09073 2.10452,6.42146 0,5.18461 -0.14259,5.65298 -1.80771,5.98978 -3.69279,0.74687 -12.5941,1.19665 -12.92387,0.64753 -0.18794,-0.31288 -0.46272,-3.27626 -0.62057,-6.58335 l -0.29678,-6.01675 5.71995,-0.62056 c 1.73724,-0.19008 3.36134,-0.27374 4.72166,-0.24283 z m 62.51481,1.32208 c 5.74449,-0.0411 9.6574,0.7009 10.68446,2.1045 0.60858,0.83169 0.94542,2.96842 0.80942,5.04544 -0.19207,2.93453 -0.60267,3.77893 -2.23941,4.55978 -2.1974,1.04829 -17.06389,2.04817 -19.64212,1.32206 -2.28048,-0.64226 -2.56827,-1.36881 -2.72508,-7.069 l -0.1349,-5.07241 6.93411,-0.5936 c 2.28575,-0.19039 4.39871,-0.28307 6.31352,-0.29677 z m -258.01863,6.44843 c 1.74459,0.0183 3.88636,0.11203 6.44845,0.26981 13.95258,0.85922 24.74822,2.92998 32.539,6.25958 l 3.88525,1.67281 -0.53961,6.88014 c -0.74033,9.12396 -1.24668,11.30502 -2.56319,11.30502 -1.6753,0 -1.30791,2.44765 0.89037,6.01673 1.35162,2.1945 1.97948,4.39475 1.99659,6.98807 0.0353,5.3496 -1.33893,6.02103 -11.97954,5.90882 l -8.41805,-0.081 -0.59357,-3.21074 c -0.32792,-1.76465 -0.8385,-8.25848 -1.13321,-14.43479 -0.59354,-12.43854 -1.19623,-15.08808 -3.31865,-14.67763 -1.23269,0.23841 -1.35602,1.13384 -1.1332,7.47372 0.13933,3.96382 0.61512,10.46431 1.07924,14.43481 0.46412,3.97044 0.886,7.92721 0.94433,8.79577 0.11932,1.77676 -0.18634,1.84623 -7.5007,1.48396 -6.84628,-0.33912 -8.5405,-0.79699 -10.44161,-2.6981 -1.92765,-1.92764 -2.14624,-8.91283 -0.37774,-12.00651 1.6012,-2.80098 1.47487,-5.40905 -0.26981,-5.96279 -1.11263,-0.35313 -2.04631,-2.89805 -3.99317,-10.76539 -1.40365,-5.67222 -2.5632,-10.91681 -2.5632,-11.62879 0,-1.47755 1.80828,-2.07853 7.04202,-2.02355 z m 241.45234,9.2005 c 1.14961,-0.0205 2.48081,0.254 4.34393,0.86339 3.16089,1.03386 5.79894,1.19548 12.54613,0.80942 4.70006,-0.26891 9.07379,-0.15232 9.71314,0.24284 0.85534,0.52865 1.1175,2.24009 1.05225,6.47541 -0.0489,3.16587 -0.38464,6.02955 -0.75546,6.3675 -0.85934,0.78319 -28.4714,1.44554 -36.12746,0.8634 -7.56707,-0.57537 -8.25999,-1.30568 -7.58165,-8.0673 l 0.51264,-5.20733 6.01675,-0.62055 c 3.30875,-0.3281 7.04969,-0.93858 8.31013,-1.37602 0.6399,-0.2221 1.27984,-0.3385 1.9696,-0.35076 z m -46.38021,0.7015 c 3.02628,-0.0151 6.70567,0.0562 10.30671,0.18887 15.57609,0.57413 15.72185,0.63236 15.21724,7.60862 -0.18623,2.57472 -0.70517,5.0491 -1.13318,5.47713 -0.42806,0.42805 -2.66845,1.12434 -4.99148,1.56489 -2.32303,0.44054 -9.81346,0.97848 -16.64724,1.18716 l -12.43821,0.37774 -0.75547,-2.02357 c -0.84181,-2.21404 -0.86072,-7.36727 -0.054,-11.14313 0.4529,-2.11965 0.92818,-2.46971 4.1011,-2.96791 0.99057,-0.15544 3.36819,-0.25479 6.39448,-0.2698 z m 27.35866,17.91533 c 2.99485,-0.008 6.74262,0.22297 12.76198,0.70151 l 8.41805,0.67453 -0.2698,3.58846 c -0.14568,1.98524 -0.59833,3.98371 -1.02529,4.42488 -0.79108,0.81741 -25.91017,1.34085 -31.16296,0.64753 -3.26317,-0.43069 -4.00346,-1.29931 -4.02016,-4.8026 -0.0151,-3.14811 0.33756,-3.37065 7.04202,-4.47884 3.02919,-0.5007 5.26131,-0.74813 8.25616,-0.75547 z m 24.87642,0.97133 9.92898,0 c 11.77198,0 12.95002,0.55804 12.11444,5.93579 -0.27957,1.79919 -1.13034,3.73851 -1.86169,4.28997 -1.28629,0.96986 -14.77352,1.28799 -18.05024,0.4317 -1.61146,-0.42112 -1.50203,-0.0293 -1.86169,-6.04372 l -0.2698,-4.61374 z m -50.10359,1.21413 c 5.51309,-0.14609 5.73968,0.70832 5.15335,5.80091 -0.39519,3.43255 -0.68432,3.85333 -2.85997,4.31694 -1.32349,0.28204 -5.01927,0.54128 -8.2022,0.59358 -6.61808,0.10852 -7.44674,-0.59373 -7.44674,-6.25957 0,-3.8008 0.0183,-3.79945 10.65747,-4.34394 1.01668,-0.052 1.9105,-0.087 2.69809,-0.10789 z m -147.4238,8.57994 c 0.47423,-0.008 1.11788,0.0448 1.94263,0.10789 2.44372,0.18723 3.32815,0.59319 3.12979,1.403 -1.77494,7.24617 -2.61579,13.19377 -2.4013,17.15988 l 0.26981,4.82958 -4.61374,0.21585 -4.61374,0.24283 0,-6.9341 c 0,-6.5814 0.12346,-7.11881 2.4013,-9.71314 1.51023,-1.72006 2.4013,-3.61471 2.4013,-5.0994 0,-1.71694 0.0612,-2.19265 1.48395,-2.21243 z m -39.608,11.19709 c 2.44763,-0.049 7.51666,0.0942 13.05877,0.37773 l 13.4365,0.67452 0.51264,6.20561 c 0.29085,3.57961 1.05933,7.06001 1.80772,8.2022 1.65907,2.53206 6.73403,3.92948 11.7637,3.23772 7.02922,-0.96678 22.94818,5.30618 25.95564,10.22577 2.65867,4.34907 -11.87058,6.80251 -26.98093,4.55978 -4.78623,-0.71038 -6.8331,-0.63392 -11.305,0.40471 -6.48876,1.50702 -9.55297,1.52009 -13.46349,0.081 -1.75666,-0.6465 -6.83103,-1.12132 -12.84293,-1.18717 -31.08812,-0.34088 -31.86186,-0.37773 -33.34842,-1.86167 -3.03239,-3.02712 1.59707,-6.15657 13.94914,-9.47031 4.65385,-1.24854 9.30068,-2.83067 10.33369,-3.50753 2.07348,-1.35858 3.13504,-4.66972 3.96621,-12.33028 0.34537,-3.18326 0.97123,-5.23487 1.67281,-5.5041 0.15368,-0.059 0.66807,-0.0916 1.48395,-0.10789 z"
         id="path4529"
         inkscape:connector-curvature="0" />
      <text
         sodipodi:linespacing="125%"
         id="text3065-1"
         y="422.28629"
         x="90.415894"
         style="font-size:8.67873668999999914px;font-style:normal;font-variant:normal;font-weight:normal;font-stretch:normal;line-height:125%;letter-spacing:0px;word-spacing:0px;fill:none;fill-opacity:1;stroke:#000000;stroke-width:0.30944719;stroke-miterlimit:4;stroke-opacity:1;stroke-dasharray:none;display:inline;font-family:Liberation Sans;-inkscape-font-specification:Liberation Sans;opacity:1"
         xml:space="preserve"><tspan
           style="font-size:20.95988957999999869px;letter-spacing:2.16968417000000002px;fill:none;fill-opacity:1;stroke:#000000;stroke-width:0.30944719;stroke-miterlimit:4;stroke-opacity:1;stroke-dasharray:none"
           y="422.28629"
           x="90.415894"
           id="tspan3067"
           sodipodi:role="line">To</tspan><tspan
           style="font-size:20.95988957999999869px;letter-spacing:2.16968417000000002px;fill:none;fill-opacity:1;stroke:#000000;stroke-width:0.30944719;stroke-miterlimit:4;stroke-opacity:1;stroke-dasharray:none"
           y="444.11951"
           x="90.415894"
           sodipodi:role="line"
           id="tspan4622">   Grandma &amp; Grandad</tspan></text>
      <text
         sodipodi:linespacing="125%"
         id="text3065-1-7"
         y="897.37646"
         x="300.01443"
         style="font-size:8.67873669px;font-style:normal;font-variant:normal;font-weight:normal;font-stretch:normal;line-height:125%;letter-spacing:0px;word-spacing:0px;fill:none;stroke:#000000;stroke-width:0.3094472;stroke-miterlimit:4;stroke-opacity:1;stroke-dasharray:none;display:inline;font-family:Liberation Sans;-inkscape-font-specification:Liberation Sans"
         xml:space="preserve"><tspan
           style="font-size:20.95989037px;letter-spacing:2.16968417px;fill:none;stroke:#000000;stroke-width:0.3094472;stroke-miterlimit:4;stroke-opacity:1;stroke-dasharray:none"
           y="897.37646"
           x="300.01443"
           sodipodi:role="line"
           id="tspan4622-2">Love From,</tspan><tspan
           style="font-size:20.95989037px;letter-spacing:2.16968417px;fill:none;stroke:#000000;stroke-width:0.3094472;stroke-miterlimit:4;stroke-opacity:1;stroke-dasharray:none"
           y="923.57635"
           x="300.01443"
           sodipodi:role="line"
           id="tspan4650">     Stu &amp; Aurora</tspan></text>
      <rect
         style="fill:none;stroke:#000000;stroke-width:0.00309447;stroke-miterlimit:4;stroke-opacity:1;stroke-dasharray:none"
         id="rect4656"
         width="22.5"
         height="22.5"
         x="98.548462"
         y="943.23273" />
      <rect
         y="943.23273"
         x="468.8382"
         height="22.5"
         width="22.5"
         id="rect4658"
         style="fill:none;stroke:#000000;stroke-width:0.00309447;stroke-miterlimit:4;stroke-opacity:1;stroke-dasharray:none" />
    </g>
  </g>
</svg>
