<?xml version="1.0" encoding="UTF-8" standalone="no"?>
<!-- Created with Inkscape (http://www.inkscape.org/) -->

<svg
   xmlns:dc="http://purl.org/dc/elements/1.1/"
   xmlns:cc="http://creativecommons.org/ns#"
   xmlns:rdf="http://www.w3.org/1999/02/22-rdf-syntax-ns#"
   xmlns:svg="http://www.w3.org/2000/svg"
   xmlns="http://www.w3.org/2000/svg"
   xmlns:xlink="http://www.w3.org/1999/xlink"
   xmlns:sodipodi="http://sodipodi.sourceforge.net/DTD/sodipodi-0.dtd"
   xmlns:inkscape="http://www.inkscape.org/namespaces/inkscape"
   inkscape:export-ydpi="90"
   inkscape:export-xdpi="90"
   inkscape:export-filename="/media/morgan/Acclaro/Projects/Derby Makers/Hello my name is v1-2.png"
   sodipodi:docname="Example_Christmas_Card_v1.svg"
   inkscape:version="0.48.4 r9939"
   version="1.1"
   id="svg3059"
   height="673.22833"
   width="531.49603">
  <sodipodi:namedview
     id="base"
     pagecolor="#ffffff"
     bordercolor="#666666"
     borderopacity="1.0"
     inkscape:pageopacity="0.0"
     inkscape:pageshadow="2"
     inkscape:zoom="1"
     inkscape:cx="364.62966"
     inkscape:cy="324.99991"
     inkscape:document-units="px"
     inkscape:current-layer="text3007"
     showgrid="true"
     inkscape:window-width="1920"
     inkscape:window-height="1025"
     inkscape:window-x="1280"
     inkscape:window-y="27"
     inkscape:window-maximized="1"
     units="cm"
     showguides="true"
     inkscape:guide-bbox="true"
     height="21cm"
     width="14.8cm"
     inkscape:snap-grids="true"
     inkscape:snap-to-guides="false">
    <inkscape:grid
       type="xygrid"
       id="grid3912"
       empspacing="10"
       visible="true"
       enabled="true"
       snapvisiblegridlinesonly="true"
       units="mm"
       dotted="false" />
  </sodipodi:namedview>
  <defs
     id="defs3061">
    <linearGradient
       inkscape:collect="always"
       id="linearGradient3904">
      <stop
         style="stop-color:#f9f9f9;stop-opacity:1;"
         offset="0"
         id="stop3906" />
      <stop
         style="stop-color:#f9f9f9;stop-opacity:0;"
         offset="1"
         id="stop3908" />
    </linearGradient>
    <linearGradient
       inkscape:collect="always"
       xlink:href="#linearGradient3904"
       id="linearGradient3910"
       x1="190.97148"
       y1="702.85077"
       x2="396.9415"
       y2="702.85077"
       gradientUnits="userSpaceOnUse"
       gradientTransform="translate(-5.5644373,-4.4725589)" />
  </defs>
  <metadata
     id="metadata3064">
    <rdf:RDF>
      <cc:Work
         rdf:about="">
        <dc:format>image/svg+xml</dc:format>
        <dc:type
           rdf:resource="http://purl.org/dc/dcmitype/StillImage" />
        <dc:title></dc:title>
      </cc:Work>
    </rdf:RDF>
  </metadata>
  <g
     transform="translate(0,-379.12165)"
     style="display:inline"
     id="layer1"
     inkscape:groupmode="layer"
     inkscape:label="Layer 1">
    <g
       transform="matrix(1.1450442,0,0,1.1450442,-72.842346,-65.693501)"
       id="text3007"
       style="font-size:12px;font-style:normal;font-variant:normal;font-weight:normal;font-stretch:normal;line-height:125%;letter-spacing:0px;word-spacing:0px;fill:none;stroke:#000000;stroke-width:0.37188435;stroke-miterlimit:4;stroke-opacity:1;stroke-dasharray:none;font-family:Purisa;-inkscape-font-specification:Purisa">
      <rect
         style="color:#000000;fill:none;stroke:#ff0000;stroke-width:0.63401449;stroke-linecap:butt;stroke-linejoin:miter;stroke-miterlimit:4;stroke-opacity:1;stroke-dasharray:none;stroke-dashoffset:0;marker:none;visibility:visible;display:inline;overflow:visible;enable-background:accumulate"
         id="rect2995"
         width="452.56552"
         height="580.90265"
         x="69.417931"
         y="391.99335"
         rx="19.702888"
         ry="45.132851" />
      <text
         xml:space="preserve"
         style="font-size:16.82174873px;font-style:normal;font-variant:normal;font-weight:normal;font-stretch:normal;line-height:125%;letter-spacing:0px;word-spacing:0px;fill:none;stroke:#000000;stroke-width:0.52147424;stroke-miterlimit:4;stroke-opacity:1;stroke-dasharray:none;font-family:Liberation Sans;-inkscape-font-specification:Liberation Sans"
         id="text3065"
         sodipodi:linespacing="125%"
         x="306.53412"
         y="0"
         transform="translate(6.1034854,-76.852911)"><textPath
           xlink:href="#path3978"
           id="textPath3981"
           style="font-size:48.90641022px;text-align:start;letter-spacing:4.20543718px;text-anchor:start;fill:none;stroke:#000000;stroke-width:0.52147424;stroke-miterlimit:4;stroke-opacity:1;stroke-dasharray:none"
           dx="5.3499999">Merry Christmas</textPath></text>
      <flowRoot
         xml:space="preserve"
         id="flowRoot3168"
         style="font-size:40px;font-style:normal;font-weight:normal;line-height:125%;letter-spacing:0px;word-spacing:0px;fill:#000000;fill-opacity:1;stroke:none;font-family:Sans"><flowRegion
           id="flowRegion3170"><rect
             id="rect3172"
             width="94.045204"
             height="74.953316"
             x="77.074638"
             y="118.85661" /></flowRegion><flowPara
           id="flowPara3174" /></flowRoot>      <flowRoot
         xml:space="preserve"
         id="flowRoot3176"
         style="font-size:40px;font-style:normal;font-weight:normal;line-height:125%;letter-spacing:0px;word-spacing:0px;fill:#000000;fill-opacity:1;stroke:none;font-family:Sans"><flowRegion
           id="flowRegion3178"><rect
             id="rect3180"
             width="362.74579"
             height="108.18734"
             x="137.88582"
             y="55.924114" /></flowRegion><flowPara
           id="flowPara3182" /></flowRoot>      <g
         id="g3926"
         transform="matrix(1.6066782,0,0,1.6066782,-179.16988,-496.84103)">
        <g
           id="g3891">
          <path
             id="path3886"
             d="m 287.06293,891.2596 c -0.04,-8e-4 -0.0826,-0.007 -0.10917,-0.0273 -0.42598,-0.32079 1.07921,-3.03431 3.35686,-6.05872 2.27764,-3.02441 4.4865,-5.23326 4.91247,-4.91247 0.42597,0.3208 -1.07922,3.03431 -3.35686,6.05872 -2.13529,2.83539 -4.20317,4.95226 -4.8033,4.93976 z m 17.27553,0 c -0.60013,0.0125 -2.66802,-2.10438 -4.80331,-4.93976 -2.27764,-3.02441 -3.78283,-5.73793 -3.35686,-6.05872 0.42598,-0.32079 2.63484,1.88806 4.91248,4.91247 2.27764,3.02441 3.78283,5.73793 3.35686,6.05872 -0.0266,0.02 -0.0692,0.0265 -0.10917,0.0273 z m -25.73591,-6.1133 c -0.0812,-0.002 -0.16423,-0.0412 -0.21833,-0.0819 -0.86504,-0.65146 2.19758,-6.1394 6.82288,-12.28119 4.6253,-6.14179 9.06907,-10.61286 9.93412,-9.96141 0.86504,0.65146 -2.1703,6.16669 -6.79559,12.30848 -4.33622,5.75792 -8.52439,10.04129 -9.74308,10.01599 z m 34.19628,0 c -1.21868,0.0253 -5.40686,-4.25806 -9.74307,-10.01599 -4.6253,-6.14179 -7.66063,-11.65702 -6.79559,-12.30848 0.86504,-0.65145 5.30882,3.81962 9.93411,9.96141 4.6253,6.14179 7.68792,11.62973 6.82288,12.28119 -0.0541,0.0407 -0.13708,0.0802 -0.21833,0.0819 z m -51.22619,-16.37491 c -0.16569,-0.003 -0.2991,-0.0535 -0.40937,-0.13646 -1.76428,-1.32866 4.43062,-12.5545 13.86409,-25.08091 9.43347,-12.52642 18.51332,-21.60625 20.27761,-20.2776 1.76429,1.32865 -4.43063,12.5545 -13.8641,25.08091 -8.84388,11.74352 -17.38265,20.46565 -19.86823,20.41406 z m 68.2561,0 c -2.48556,0.0516 -11.02435,-8.67055 -19.86823,-20.41406 -9.43347,-12.52642 -15.62837,-23.75226 -13.86409,-25.08091 1.76428,-1.32866 10.84413,7.75118 20.2776,20.2776 9.43347,12.52642 15.62838,23.75225 13.86409,25.08091 -0.11026,0.083 -0.24366,0.13302 -0.40937,0.13646 z m -64.10779,-44.97643 c -0.14388,-0.003 -0.25898,-0.0371 -0.35479,-0.10917 -1.53208,-1.15379 3.87094,-10.92813 12.06286,-21.80593 8.19192,-10.87779 16.07095,-18.75682 17.60303,-17.60303 1.53208,1.15379 -3.87093,10.90085 -12.06285,21.77864 -7.67993,10.19793 -15.0898,17.78429 -17.24825,17.73949 z m 59.95948,0 c -2.15843,0.0448 -9.56831,-7.54156 -17.24824,-17.73949 -8.19192,-10.8778 -13.59494,-20.62485 -12.06286,-21.77864 1.53209,-1.15379 9.41112,6.72524 17.60304,17.60303 8.19192,10.8778 13.59493,20.65214 12.06285,21.80593 -0.0958,0.0721 -0.21089,0.10618 -0.35479,0.10917 z m -51.41723,-46.3683 c -0.10237,-0.002 -0.20481,-0.0306 -0.27291,-0.0819 -1.08994,-0.8208 2.76904,-7.76306 8.59683,-15.50158 5.82776,-7.73853 11.43687,-13.34763 12.5268,-12.52681 1.08995,0.82081 -2.76904,7.76306 -8.59682,15.50159 -5.46353,7.25487 -10.71838,12.64058 -12.2539,12.60868 z m 42.87498,0 c -1.53552,0.0319 -6.79035,-5.35382 -12.25389,-12.60868 -5.82778,-7.73853 -9.68676,-14.68077 -8.59683,-15.50159 1.08993,-0.82081 6.69903,4.78829 12.52681,12.52681 5.82777,7.73852 9.68676,14.68077 8.59683,15.50158 -0.0681,0.0513 -0.17054,0.0798 -0.27292,0.0819 z"
             style="fill:#00ff00;stroke:#000000;stroke-width:0;stroke-miterlimit:4;stroke-dasharray:none"
             inkscape:connector-curvature="0" />
          <path
             style="fill:#00ff00;stroke:#000000;stroke-width:0;stroke-miterlimit:4;stroke-dasharray:none"
             d="m 287.06293,607.15682 c -0.04,8.1e-4 -0.0826,0.007 -0.10917,0.0273 -0.42598,0.32079 1.07921,3.03431 3.35686,6.05872 2.27764,3.02441 4.4865,5.23327 4.91247,4.91248 0.42597,-0.3208 -1.07922,-3.03431 -3.35686,-6.05872 -2.13529,-2.83539 -4.20317,-4.95227 -4.8033,-4.93977 z m 17.27553,0 c -0.60013,-0.0125 -2.66802,2.10438 -4.80331,4.93977 -2.27764,3.02441 -3.78283,5.73792 -3.35686,6.05872 0.42598,0.32079 2.63484,-1.88807 4.91248,-4.91248 2.27764,-3.02441 3.78283,-5.73793 3.35686,-6.05872 -0.0266,-0.0201 -0.0692,-0.0265 -0.10917,-0.0273 z m -25.73591,6.1133 c -0.0812,0.002 -0.16423,0.0412 -0.21833,0.0819 -0.86504,0.65145 2.19758,6.13939 6.82288,12.28118 4.6253,6.14179 9.06907,10.61286 9.93412,9.96141 0.86504,-0.65145 -2.1703,-6.16669 -6.79559,-12.30848 -4.33622,-5.75792 -8.52439,-10.04129 -9.74308,-10.01599 z m 34.19628,0 c -1.21869,-0.0253 -5.40686,4.25807 -9.74307,10.01599 -4.6253,6.14179 -7.66063,11.65703 -6.79559,12.30848 0.86504,0.65145 5.30882,-3.81962 9.93411,-9.96141 4.6253,-6.14179 7.68792,-11.62973 6.82288,-12.28118 -0.0541,-0.0407 -0.13708,-0.0802 -0.21833,-0.0819 z m -51.22619,16.37492 c -0.16569,0.003 -0.2991,0.0534 -0.40937,0.13645 -1.76428,1.32866 4.43062,12.55451 13.86409,25.08091 9.43347,12.52642 18.51332,21.60625 20.2776,20.27761 1.76429,-1.32866 -4.43062,-12.55451 -13.86409,-25.08091 -8.84388,-11.74352 -17.38266,-20.46566 -19.86823,-20.41406 z m 68.2561,0 c -2.48556,-0.0516 -11.02435,8.67054 -19.86823,20.41406 -9.43347,12.52641 -15.62837,23.75225 -13.86409,25.08091 1.76428,1.32865 10.84413,-7.75119 20.2776,-20.27761 9.43347,-12.52641 15.62838,-23.75225 13.86409,-25.08091 -0.11026,-0.083 -0.24366,-0.13301 -0.40937,-0.13645 z m -64.10779,44.97643 c -0.14389,0.003 -0.25898,0.0371 -0.35479,0.10916 -1.53208,1.15379 3.87094,10.92813 12.06286,21.80593 8.19192,10.8778 16.07095,18.75682 17.60303,17.60303 1.53208,-1.15379 -3.87093,-10.90084 -12.06285,-21.77863 -7.67993,-10.19794 -15.08981,-17.7843 -17.24825,-17.73949 z m 59.95948,0 c -2.15843,-0.0448 -9.56831,7.54155 -17.24824,17.73949 -8.19192,10.87779 -13.59494,20.62484 -12.06286,21.77863 1.53208,1.15379 9.41112,-6.72523 17.60304,-17.60303 8.19192,-10.8778 13.59493,-20.65214 12.06285,-21.80593 -0.0958,-0.0721 -0.21089,-0.10618 -0.35479,-0.10916 z m -51.41723,46.36829 c -0.10237,0.002 -0.20481,0.0306 -0.27291,0.0819 -1.08994,0.82081 2.76904,7.76306 8.59683,15.50158 5.82776,7.73853 11.43687,13.34764 12.5268,12.52681 1.08994,-0.8208 -2.76904,-7.76306 -8.59683,-15.50158 -5.46352,-7.25488 -10.71837,-12.64059 -12.25389,-12.60869 z m 42.87498,0 c -1.53552,-0.0319 -6.79035,5.35382 -12.25389,12.60869 -5.82778,7.73852 -9.68676,14.68077 -8.59683,15.50158 1.08993,0.82082 6.69903,-4.78828 12.52681,-12.52681 5.82777,-7.73852 9.68676,-14.68077 8.59683,-15.50158 -0.0681,-0.0513 -0.17055,-0.0797 -0.27292,-0.0819 z"
             id="path3863"
             inkscape:connector-curvature="0" />
          <path
             style="fill:#ffcc00;stroke:#000000;stroke-width:0.00309448;stroke-miterlimit:4;stroke-dasharray:none"
             d="m 299.95545,749.85582 c 0,82.68291 -1.90491,149.71065 -4.25476,149.71065 -2.34983,0 -4.25475,-67.02774 -4.25475,-149.71065 0,-82.68291 1.90492,-149.71065 4.25475,-149.71065 2.34985,0 4.25476,67.02774 4.25476,149.71065 z"
             id="path3088"
             inkscape:connector-curvature="0" />
        </g>
        <g
           transform="matrix(0.5,0.8660254,-0.8660254,0.5,797.24453,118.8436)"
           id="g3896">
          <path
             inkscape:connector-curvature="0"
             style="fill:#00ff00;stroke:#000000;stroke-width:0;stroke-miterlimit:4;stroke-dasharray:none"
             d="m 287.06293,891.2596 c -0.04,-8e-4 -0.0826,-0.007 -0.10917,-0.0273 -0.42598,-0.32079 1.07921,-3.03431 3.35686,-6.05872 2.27764,-3.02441 4.4865,-5.23326 4.91247,-4.91247 0.42597,0.3208 -1.07922,3.03431 -3.35686,6.05872 -2.13529,2.83539 -4.20317,4.95226 -4.8033,4.93976 z m 17.27553,0 c -0.60013,0.0125 -2.66802,-2.10438 -4.80331,-4.93976 -2.27764,-3.02441 -3.78283,-5.73793 -3.35686,-6.05872 0.42598,-0.32079 2.63484,1.88806 4.91248,4.91247 2.27764,3.02441 3.78283,5.73793 3.35686,6.05872 -0.0266,0.02 -0.0692,0.0265 -0.10917,0.0273 z m -25.73591,-6.1133 c -0.0812,-0.002 -0.16423,-0.0412 -0.21833,-0.0819 -0.86504,-0.65146 2.19758,-6.1394 6.82288,-12.28119 4.6253,-6.14179 9.06907,-10.61286 9.93412,-9.96141 0.86504,0.65146 -2.1703,6.16669 -6.79559,12.30848 -4.33622,5.75792 -8.52439,10.04129 -9.74308,10.01599 z m 34.19628,0 c -1.21868,0.0253 -5.40686,-4.25806 -9.74307,-10.01599 -4.6253,-6.14179 -7.66063,-11.65702 -6.79559,-12.30848 0.86504,-0.65145 5.30882,3.81962 9.93411,9.96141 4.6253,6.14179 7.68792,11.62973 6.82288,12.28119 -0.0541,0.0407 -0.13708,0.0802 -0.21833,0.0819 z m -51.22619,-16.37491 c -0.16569,-0.003 -0.2991,-0.0535 -0.40937,-0.13646 -1.76428,-1.32866 4.43062,-12.5545 13.86409,-25.08091 9.43347,-12.52642 18.51332,-21.60625 20.27761,-20.2776 1.76429,1.32865 -4.43063,12.5545 -13.8641,25.08091 -8.84388,11.74352 -17.38265,20.46565 -19.86823,20.41406 z m 68.2561,0 c -2.48556,0.0516 -11.02435,-8.67055 -19.86823,-20.41406 -9.43347,-12.52642 -15.62837,-23.75226 -13.86409,-25.08091 1.76428,-1.32866 10.84413,7.75118 20.2776,20.2776 9.43347,12.52642 15.62838,23.75225 13.86409,25.08091 -0.11026,0.083 -0.24366,0.13302 -0.40937,0.13646 z m -64.10779,-44.97643 c -0.14388,-0.003 -0.25898,-0.0371 -0.35479,-0.10917 -1.53208,-1.15379 3.87094,-10.92813 12.06286,-21.80593 8.19192,-10.87779 16.07095,-18.75682 17.60303,-17.60303 1.53208,1.15379 -3.87093,10.90085 -12.06285,21.77864 -7.67993,10.19793 -15.0898,17.78429 -17.24825,17.73949 z m 59.95948,0 c -2.15843,0.0448 -9.56831,-7.54156 -17.24824,-17.73949 -8.19192,-10.8778 -13.59494,-20.62485 -12.06286,-21.77864 1.53209,-1.15379 9.41112,6.72524 17.60304,17.60303 8.19192,10.8778 13.59493,20.65214 12.06285,21.80593 -0.0958,0.0721 -0.21089,0.10618 -0.35479,0.10917 z m -51.41723,-46.3683 c -0.10237,-0.002 -0.20481,-0.0306 -0.27291,-0.0819 -1.08994,-0.8208 2.76904,-7.76306 8.59683,-15.50158 5.82776,-7.73853 11.43687,-13.34763 12.5268,-12.52681 1.08995,0.82081 -2.76904,7.76306 -8.59682,15.50159 -5.46353,7.25487 -10.71838,12.64058 -12.2539,12.60868 z m 42.87498,0 c -1.53552,0.0319 -6.79035,-5.35382 -12.25389,-12.60868 -5.82778,-7.73853 -9.68676,-14.68077 -8.59683,-15.50159 1.08993,-0.82081 6.69903,4.78829 12.52681,12.52681 5.82777,7.73852 9.68676,14.68077 8.59683,15.50158 -0.0681,0.0513 -0.17054,0.0798 -0.27292,0.0819 z"
             id="path3898" />
          <path
             inkscape:connector-curvature="0"
             id="path3900"
             d="m 287.06293,607.15682 c -0.04,8.1e-4 -0.0826,0.007 -0.10917,0.0273 -0.42598,0.32079 1.07921,3.03431 3.35686,6.05872 2.27764,3.02441 4.4865,5.23327 4.91247,4.91248 0.42597,-0.3208 -1.07922,-3.03431 -3.35686,-6.05872 -2.13529,-2.83539 -4.20317,-4.95227 -4.8033,-4.93977 z m 17.27553,0 c -0.60013,-0.0125 -2.66802,2.10438 -4.80331,4.93977 -2.27764,3.02441 -3.78283,5.73792 -3.35686,6.05872 0.42598,0.32079 2.63484,-1.88807 4.91248,-4.91248 2.27764,-3.02441 3.78283,-5.73793 3.35686,-6.05872 -0.0266,-0.0201 -0.0692,-0.0265 -0.10917,-0.0273 z m -25.73591,6.1133 c -0.0812,0.002 -0.16423,0.0412 -0.21833,0.0819 -0.86504,0.65145 2.19758,6.13939 6.82288,12.28118 4.6253,6.14179 9.06907,10.61286 9.93412,9.96141 0.86504,-0.65145 -2.1703,-6.16669 -6.79559,-12.30848 -4.33622,-5.75792 -8.52439,-10.04129 -9.74308,-10.01599 z m 34.19628,0 c -1.21869,-0.0253 -5.40686,4.25807 -9.74307,10.01599 -4.6253,6.14179 -7.66063,11.65703 -6.79559,12.30848 0.86504,0.65145 5.30882,-3.81962 9.93411,-9.96141 4.6253,-6.14179 7.68792,-11.62973 6.82288,-12.28118 -0.0541,-0.0407 -0.13708,-0.0802 -0.21833,-0.0819 z m -51.22619,16.37492 c -0.16569,0.003 -0.2991,0.0534 -0.40937,0.13645 -1.76428,1.32866 4.43062,12.55451 13.86409,25.08091 9.43347,12.52642 18.51332,21.60625 20.2776,20.27761 1.76429,-1.32866 -4.43062,-12.55451 -13.86409,-25.08091 -8.84388,-11.74352 -17.38266,-20.46566 -19.86823,-20.41406 z m 68.2561,0 c -2.48556,-0.0516 -11.02435,8.67054 -19.86823,20.41406 -9.43347,12.52641 -15.62837,23.75225 -13.86409,25.08091 1.76428,1.32865 10.84413,-7.75119 20.2776,-20.27761 9.43347,-12.52641 15.62838,-23.75225 13.86409,-25.08091 -0.11026,-0.083 -0.24366,-0.13301 -0.40937,-0.13645 z m -64.10779,44.97643 c -0.14389,0.003 -0.25898,0.0371 -0.35479,0.10916 -1.53208,1.15379 3.87094,10.92813 12.06286,21.80593 8.19192,10.8778 16.07095,18.75682 17.60303,17.60303 1.53208,-1.15379 -3.87093,-10.90084 -12.06285,-21.77863 -7.67993,-10.19794 -15.08981,-17.7843 -17.24825,-17.73949 z m 59.95948,0 c -2.15843,-0.0448 -9.56831,7.54155 -17.24824,17.73949 -8.19192,10.87779 -13.59494,20.62484 -12.06286,21.77863 1.53208,1.15379 9.41112,-6.72523 17.60304,-17.60303 8.19192,-10.8778 13.59493,-20.65214 12.06285,-21.80593 -0.0958,-0.0721 -0.21089,-0.10618 -0.35479,-0.10916 z m -51.41723,46.36829 c -0.10237,0.002 -0.20481,0.0306 -0.27291,0.0819 -1.08994,0.82081 2.76904,7.76306 8.59683,15.50158 5.82776,7.73853 11.43687,13.34764 12.5268,12.52681 1.08994,-0.8208 -2.76904,-7.76306 -8.59683,-15.50158 -5.46352,-7.25488 -10.71837,-12.64059 -12.25389,-12.60869 z m 42.87498,0 c -1.53552,-0.0319 -6.79035,5.35382 -12.25389,12.60869 -5.82778,7.73852 -9.68676,14.68077 -8.59683,15.50158 1.08993,0.82082 6.69903,-4.78828 12.52681,-12.52681 5.82777,-7.73852 9.68676,-14.68077 8.59683,-15.50158 -0.0681,-0.0513 -0.17055,-0.0797 -0.27292,-0.0819 z"
             style="fill:#00ff00;stroke:#000000;stroke-width:0;stroke-miterlimit:4;stroke-dasharray:none" />
          <path
             inkscape:connector-curvature="0"
             id="path3902"
             d="m 299.95545,749.85582 c 0,82.68291 -1.90491,149.71065 -4.25476,149.71065 -2.34983,0 -4.25475,-67.02774 -4.25475,-149.71065 0,-82.68291 1.90492,-149.71065 4.25475,-149.71065 2.34985,0 4.25476,67.02774 4.25476,149.71065 z"
             style="fill:#ffcc00;stroke:#000000;stroke-width:0.00309448;stroke-miterlimit:4;stroke-dasharray:none" />
        </g>
        <g
           id="g3904"
           transform="matrix(-0.5,0.8660254,-0.8660254,-0.5,1092.6648,868.53751)">
          <path
             id="path3906"
             d="m 287.06293,891.2596 c -0.04,-8e-4 -0.0826,-0.007 -0.10917,-0.0273 -0.42598,-0.32079 1.07921,-3.03431 3.35686,-6.05872 2.27764,-3.02441 4.4865,-5.23326 4.91247,-4.91247 0.42597,0.3208 -1.07922,3.03431 -3.35686,6.05872 -2.13529,2.83539 -4.20317,4.95226 -4.8033,4.93976 z m 17.27553,0 c -0.60013,0.0125 -2.66802,-2.10438 -4.80331,-4.93976 -2.27764,-3.02441 -3.78283,-5.73793 -3.35686,-6.05872 0.42598,-0.32079 2.63484,1.88806 4.91248,4.91247 2.27764,3.02441 3.78283,5.73793 3.35686,6.05872 -0.0266,0.02 -0.0692,0.0265 -0.10917,0.0273 z m -25.73591,-6.1133 c -0.0812,-0.002 -0.16423,-0.0412 -0.21833,-0.0819 -0.86504,-0.65146 2.19758,-6.1394 6.82288,-12.28119 4.6253,-6.14179 9.06907,-10.61286 9.93412,-9.96141 0.86504,0.65146 -2.1703,6.16669 -6.79559,12.30848 -4.33622,5.75792 -8.52439,10.04129 -9.74308,10.01599 z m 34.19628,0 c -1.21868,0.0253 -5.40686,-4.25806 -9.74307,-10.01599 -4.6253,-6.14179 -7.66063,-11.65702 -6.79559,-12.30848 0.86504,-0.65145 5.30882,3.81962 9.93411,9.96141 4.6253,6.14179 7.68792,11.62973 6.82288,12.28119 -0.0541,0.0407 -0.13708,0.0802 -0.21833,0.0819 z m -51.22619,-16.37491 c -0.16569,-0.003 -0.2991,-0.0535 -0.40937,-0.13646 -1.76428,-1.32866 4.43062,-12.5545 13.86409,-25.08091 9.43347,-12.52642 18.51332,-21.60625 20.27761,-20.2776 1.76429,1.32865 -4.43063,12.5545 -13.8641,25.08091 -8.84388,11.74352 -17.38265,20.46565 -19.86823,20.41406 z m 68.2561,0 c -2.48556,0.0516 -11.02435,-8.67055 -19.86823,-20.41406 -9.43347,-12.52642 -15.62837,-23.75226 -13.86409,-25.08091 1.76428,-1.32866 10.84413,7.75118 20.2776,20.2776 9.43347,12.52642 15.62838,23.75225 13.86409,25.08091 -0.11026,0.083 -0.24366,0.13302 -0.40937,0.13646 z m -64.10779,-44.97643 c -0.14388,-0.003 -0.25898,-0.0371 -0.35479,-0.10917 -1.53208,-1.15379 3.87094,-10.92813 12.06286,-21.80593 8.19192,-10.87779 16.07095,-18.75682 17.60303,-17.60303 1.53208,1.15379 -3.87093,10.90085 -12.06285,21.77864 -7.67993,10.19793 -15.0898,17.78429 -17.24825,17.73949 z m 59.95948,0 c -2.15843,0.0448 -9.56831,-7.54156 -17.24824,-17.73949 -8.19192,-10.8778 -13.59494,-20.62485 -12.06286,-21.77864 1.53209,-1.15379 9.41112,6.72524 17.60304,17.60303 8.19192,10.8778 13.59493,20.65214 12.06285,21.80593 -0.0958,0.0721 -0.21089,0.10618 -0.35479,0.10917 z m -51.41723,-46.3683 c -0.10237,-0.002 -0.20481,-0.0306 -0.27291,-0.0819 -1.08994,-0.8208 2.76904,-7.76306 8.59683,-15.50158 5.82776,-7.73853 11.43687,-13.34763 12.5268,-12.52681 1.08995,0.82081 -2.76904,7.76306 -8.59682,15.50159 -5.46353,7.25487 -10.71838,12.64058 -12.2539,12.60868 z m 42.87498,0 c -1.53552,0.0319 -6.79035,-5.35382 -12.25389,-12.60868 -5.82778,-7.73853 -9.68676,-14.68077 -8.59683,-15.50159 1.08993,-0.82081 6.69903,4.78829 12.52681,12.52681 5.82777,7.73852 9.68676,14.68077 8.59683,15.50158 -0.0681,0.0513 -0.17054,0.0798 -0.27292,0.0819 z"
             style="fill:#00ff00;stroke:#000000;stroke-width:0;stroke-miterlimit:4;stroke-dasharray:none"
             inkscape:connector-curvature="0" />
          <path
             style="fill:#00ff00;stroke:#000000;stroke-width:0;stroke-miterlimit:4;stroke-dasharray:none"
             d="m 287.06293,607.15682 c -0.04,8.1e-4 -0.0826,0.007 -0.10917,0.0273 -0.42598,0.32079 1.07921,3.03431 3.35686,6.05872 2.27764,3.02441 4.4865,5.23327 4.91247,4.91248 0.42597,-0.3208 -1.07922,-3.03431 -3.35686,-6.05872 -2.13529,-2.83539 -4.20317,-4.95227 -4.8033,-4.93977 z m 17.27553,0 c -0.60013,-0.0125 -2.66802,2.10438 -4.80331,4.93977 -2.27764,3.02441 -3.78283,5.73792 -3.35686,6.05872 0.42598,0.32079 2.63484,-1.88807 4.91248,-4.91248 2.27764,-3.02441 3.78283,-5.73793 3.35686,-6.05872 -0.0266,-0.0201 -0.0692,-0.0265 -0.10917,-0.0273 z m -25.73591,6.1133 c -0.0812,0.002 -0.16423,0.0412 -0.21833,0.0819 -0.86504,0.65145 2.19758,6.13939 6.82288,12.28118 4.6253,6.14179 9.06907,10.61286 9.93412,9.96141 0.86504,-0.65145 -2.1703,-6.16669 -6.79559,-12.30848 -4.33622,-5.75792 -8.52439,-10.04129 -9.74308,-10.01599 z m 34.19628,0 c -1.21869,-0.0253 -5.40686,4.25807 -9.74307,10.01599 -4.6253,6.14179 -7.66063,11.65703 -6.79559,12.30848 0.86504,0.65145 5.30882,-3.81962 9.93411,-9.96141 4.6253,-6.14179 7.68792,-11.62973 6.82288,-12.28118 -0.0541,-0.0407 -0.13708,-0.0802 -0.21833,-0.0819 z m -51.22619,16.37492 c -0.16569,0.003 -0.2991,0.0534 -0.40937,0.13645 -1.76428,1.32866 4.43062,12.55451 13.86409,25.08091 9.43347,12.52642 18.51332,21.60625 20.2776,20.27761 1.76429,-1.32866 -4.43062,-12.55451 -13.86409,-25.08091 -8.84388,-11.74352 -17.38266,-20.46566 -19.86823,-20.41406 z m 68.2561,0 c -2.48556,-0.0516 -11.02435,8.67054 -19.86823,20.41406 -9.43347,12.52641 -15.62837,23.75225 -13.86409,25.08091 1.76428,1.32865 10.84413,-7.75119 20.2776,-20.27761 9.43347,-12.52641 15.62838,-23.75225 13.86409,-25.08091 -0.11026,-0.083 -0.24366,-0.13301 -0.40937,-0.13645 z m -64.10779,44.97643 c -0.14389,0.003 -0.25898,0.0371 -0.35479,0.10916 -1.53208,1.15379 3.87094,10.92813 12.06286,21.80593 8.19192,10.8778 16.07095,18.75682 17.60303,17.60303 1.53208,-1.15379 -3.87093,-10.90084 -12.06285,-21.77863 -7.67993,-10.19794 -15.08981,-17.7843 -17.24825,-17.73949 z m 59.95948,0 c -2.15843,-0.0448 -9.56831,7.54155 -17.24824,17.73949 -8.19192,10.87779 -13.59494,20.62484 -12.06286,21.77863 1.53208,1.15379 9.41112,-6.72523 17.60304,-17.60303 8.19192,-10.8778 13.59493,-20.65214 12.06285,-21.80593 -0.0958,-0.0721 -0.21089,-0.10618 -0.35479,-0.10916 z m -51.41723,46.36829 c -0.10237,0.002 -0.20481,0.0306 -0.27291,0.0819 -1.08994,0.82081 2.76904,7.76306 8.59683,15.50158 5.82776,7.73853 11.43687,13.34764 12.5268,12.52681 1.08994,-0.8208 -2.76904,-7.76306 -8.59683,-15.50158 -5.46352,-7.25488 -10.71837,-12.64059 -12.25389,-12.60869 z m 42.87498,0 c -1.53552,-0.0319 -6.79035,5.35382 -12.25389,12.60869 -5.82778,7.73852 -9.68676,14.68077 -8.59683,15.50158 1.08993,0.82082 6.69903,-4.78828 12.52681,-12.52681 5.82777,-7.73852 9.68676,-14.68077 8.59683,-15.50158 -0.0681,-0.0513 -0.17055,-0.0797 -0.27292,-0.0819 z"
             id="path3908"
             inkscape:connector-curvature="0" />
          <path
             style="fill:#ffcc00;stroke:#000000;stroke-width:0.00309448;stroke-miterlimit:4;stroke-dasharray:none"
             d="m 299.95545,749.85582 c 0,82.68291 -1.90491,149.71065 -4.25476,149.71065 -2.34983,0 -4.25475,-67.02774 -4.25475,-149.71065 0,-82.68291 1.90492,-149.71065 4.25475,-149.71065 2.34985,0 4.25476,67.02774 4.25476,149.71065 z"
             id="path3910"
             inkscape:connector-curvature="0" />
        </g>
      </g>
      <path
         style="fill:none;stroke:#000000;stroke-width:0;stroke-linecap:butt;stroke-linejoin:miter;stroke-opacity:1;stroke-miterlimit:4;stroke-dasharray:none"
         d="m 103.78667,616.66273 c 215.94058,-196.41723 387.8454,6.43664 384.2647,0"
         id="path3978"
         inkscape:connector-curvature="0"
         inkscape:transform-center-x="4.0019885"
         inkscape:transform-center-y="32.062474"
         sodipodi:nodetypes="cc" />
    </g>
  </g>
</svg>
