<?xml version="1.0" encoding="UTF-8" standalone="no"?>
<!-- Created with Inkscape (http://www.inkscape.org/) -->

<svg
   xmlns:dc="http://purl.org/dc/elements/1.1/"
   xmlns:cc="http://creativecommons.org/ns#"
   xmlns:rdf="http://www.w3.org/1999/02/22-rdf-syntax-ns#"
   xmlns:svg="http://www.w3.org/2000/svg"
   xmlns="http://www.w3.org/2000/svg"
   xmlns:xlink="http://www.w3.org/1999/xlink"
   xmlns:sodipodi="http://sodipodi.sourceforge.net/DTD/sodipodi-0.dtd"
   xmlns:inkscape="http://www.inkscape.org/namespaces/inkscape"
   inkscape:export-ydpi="90"
   inkscape:export-xdpi="90"
   inkscape:export-filename="/media/morgan/Acclaro/Projects/Derby Makers/Hello my name is v1-2.png"
   sodipodi:docname="SnowFlake_Christmas_Card_v2.svg"
   inkscape:version="0.48.4 r9939"
   version="1.1"
   id="svg3059"
   height="673.22833"
   width="602.36218">
  <sodipodi:namedview
     id="base"
     pagecolor="#ffffff"
     bordercolor="#666666"
     borderopacity="1.0"
     inkscape:pageopacity="0.0"
     inkscape:pageshadow="2"
     inkscape:zoom="1"
     inkscape:cx="127.96966"
     inkscape:cy="357.46266"
     inkscape:document-units="px"
     inkscape:current-layer="layer1"
     showgrid="true"
     inkscape:window-width="1920"
     inkscape:window-height="1025"
     inkscape:window-x="0"
     inkscape:window-y="27"
     inkscape:window-maximized="1"
     units="cm"
     showguides="true"
     inkscape:guide-bbox="true"
     height="21cm"
     width="14.8cm"
     inkscape:snap-grids="true"
     inkscape:snap-to-guides="false">
    <inkscape:grid
       dotted="false"
       units="mm"
       snapvisiblegridlinesonly="true"
       enabled="true"
       visible="true"
       empspacing="10"
       id="grid3912"
       type="xygrid" />
  </sodipodi:namedview>
  <defs
     id="defs3061">
    <linearGradient
       id="linearGradient3904"
       inkscape:collect="always">
      <stop
         id="stop3906"
         offset="0"
         style="stop-color:#f9f9f9;stop-opacity:1;" />
      <stop
         id="stop3908"
         offset="1"
         style="stop-color:#f9f9f9;stop-opacity:0;" />
    </linearGradient>
    <linearGradient
       gradientTransform="translate(-5.5644373,-4.4725589)"
       gradientUnits="userSpaceOnUse"
       y2="702.85077"
       x2="396.9415"
       y1="702.85077"
       x1="190.97148"
       id="linearGradient3910"
       xlink:href="#linearGradient3904"
       inkscape:collect="always" />
  </defs>
  <metadata
     id="metadata3064">
    <rdf:RDF>
      <cc:Work
         rdf:about="">
        <dc:format>image/svg+xml</dc:format>
        <dc:type
           rdf:resource="http://purl.org/dc/dcmitype/StillImage" />
        <dc:title></dc:title>
      </cc:Work>
    </rdf:RDF>
  </metadata>
  <g
     inkscape:label="Layer 1"
     inkscape:groupmode="layer"
     id="layer1"
     style="display:inline"
     transform="translate(0,-379.12165)">
    <path
       inkscape:connector-curvature="0"
       style="font-size:12px;font-style:normal;font-variant:normal;font-weight:normal;font-stretch:normal;line-height:125%;letter-spacing:0px;word-spacing:0px;color:#000000;fill:none;stroke:#00ff00;stroke-width:0.00354330000000000;stroke-linecap:butt;stroke-linejoin:miter;stroke-miterlimit:4;stroke-opacity:1;stroke-dasharray:none;stroke-dashoffset:0;marker:none;visibility:visible;display:inline;overflow:visible;enable-background:accumulate;font-family:Purisa;-inkscape-font-specification:Purisa"
       d="m 29.204931,383.15621 473.086169,0 c 12.49861,0 22.56068,23.04888 22.56068,51.67911 l 0,561.80099 c 0,28.63019 -10.06207,51.67909 -22.56068,51.67909 l -473.086169,0 c -12.498616,0 -22.5606777,-23.0489 -22.5606777,-51.67909 l 0,-561.80099 c 0,-28.63023 10.0620617,-51.67911 22.5606777,-51.67911 z"
       id="rect2995" />
    <path
       id="path3146"
       style="font-size:48.90641022px;font-style:normal;font-variant:normal;font-weight:normal;font-stretch:normal;text-align:start;line-height:125%;letter-spacing:4.20543718px;word-spacing:0px;text-anchor:start;fill:#000000;fill-opacity:1;stroke:#000000;stroke-width:0.0035433;stroke-miterlimit:4;stroke-opacity:1;stroke-dasharray:none;font-family:Liberation Sans;-inkscape-font-specification:Liberation Sans"
       d="M 86.219758,610.38783 70.051047,590.40724 c -1.788891,-2.21056 -3.445198,-4.38776 -4.968919,-6.53158 1.358251,3.09847 2.340149,5.58692 2.945683,7.46532 l 8.775562,26.66677 -2.848298,2.30491 -24.356155,-14.05863 -4.114462,-2.65027 -2.593529,-1.77052 1.973051,2.30781 3.335966,3.94856 16.168705,19.98058 -3.613508,2.92413 -24.235858,-29.94962 5.33524,-4.31738 24.776115,14.31677 c 0.959959,0.60674 1.958037,1.2823 2.994244,2.02664 1.036174,0.7444 1.768796,1.29474 2.197844,1.65104 -0.345334,-0.65855 -0.804611,-1.71148 -1.37782,-3.15882 -0.573232,-1.4473 -0.916482,-2.37135 -1.02975,-2.77216 l -8.98294,-27.09692 5.207706,-4.21419 24.235857,29.94962 z"
       inkscape:connector-curvature="0" />
    <path
       id="path3148"
       style="font-size:48.90641022px;font-style:normal;font-variant:normal;font-weight:normal;font-stretch:normal;text-align:start;line-height:125%;letter-spacing:4.20543718px;word-spacing:0px;text-anchor:start;fill:#000000;fill-opacity:1;stroke:#000000;stroke-width:0.0035433;stroke-miterlimit:4;stroke-opacity:1;stroke-dasharray:none;font-family:Liberation Sans;-inkscape-font-specification:Liberation Sans"
       d="m 96.314262,586.24215 c 1.863926,2.83235 3.888218,4.6317 6.072878,5.39805 2.18464,0.76638 4.40382,0.408 6.65752,-1.07514 1.78161,-1.17244 2.9737,-2.46978 3.57627,-3.89197 0.60254,-1.42217 0.73341,-2.80672 0.39259,-4.15366 l 4.28537,-1.34713 c 1.0883,4.87033 -0.98668,9.02912 -6.22496,12.47635 -3.65464,2.40508 -7.154,3.14766 -10.49807,2.22775 -3.344086,-0.9199 -6.429098,-3.52694 -9.255044,-7.82113 -2.685644,-4.08098 -3.789444,-7.83908 -3.311411,-11.2743 0.478056,-3.43516 2.491101,-6.32022 6.039123,-8.65517 7.263572,-4.78002 13.776412,-2.79211 19.538552,5.96374 l 0.36076,0.54819 z m 11.310708,-11.96066 c -1.94203,-2.45358 -3.85456,-3.9173 -5.7376,-4.39117 -1.88304,-0.47382 -3.852428,-0.0344 -5.908148,1.31849 -1.994816,1.31279 -3.136265,3.01869 -3.424335,5.1177 -0.288059,2.09905 0.288837,4.34354 1.7307,6.73346 z"
       inkscape:connector-curvature="0" />
    <path
       id="path3150"
       style="font-size:48.90641022px;font-style:normal;font-variant:normal;font-weight:normal;font-stretch:normal;text-align:start;line-height:125%;letter-spacing:4.20543718px;word-spacing:0px;text-anchor:start;fill:#000000;fill-opacity:1;stroke:#000000;stroke-width:0.0035433;stroke-miterlimit:4;stroke-opacity:1;stroke-dasharray:none;font-family:Liberation Sans;-inkscape-font-specification:Liberation Sans"
       d="M 131.25129,580.55368 120.28636,560.6829 c -1.00401,-1.81946 -2.16159,-3.80407 -3.47276,-5.95378 l 4.06992,-2.24584 c 1.74821,2.8663 2.78524,4.5947 3.1111,5.18521 l 0.0957,-0.0529 c -0.53789,-2.59719 -0.58453,-4.54937 -0.13992,-5.85659 0.44463,-1.30716 1.48092,-2.40992 3.10889,-3.30827 0.57457,-0.31703 1.20116,-0.55869 1.87977,-0.72499 l 2.17977,3.95022 c -0.66265,0.15748 -1.47279,0.50042 -2.43041,1.02882 -1.78756,0.98643 -2.72724,2.50954 -2.81902,4.56931 -0.0918,2.05983 0.65499,4.52618 2.24028,7.39905 l 7.45086,13.50254 z"
       inkscape:connector-curvature="0" />
    <path
       id="path3152"
       style="font-size:48.90641022px;font-style:normal;font-variant:normal;font-weight:normal;font-stretch:normal;text-align:start;line-height:125%;letter-spacing:4.20543718px;word-spacing:0px;text-anchor:start;fill:#000000;fill-opacity:1;stroke:#000000;stroke-width:0.0035433;stroke-miterlimit:4;stroke-opacity:1;stroke-dasharray:none;font-family:Liberation Sans;-inkscape-font-specification:Liberation Sans"
       d="m 152.03775,569.55744 -9.57971,-20.57442 c -0.87717,-1.88389 -1.89626,-3.94304 -3.05727,-6.17744 l 4.21404,-1.9621 c 1.54801,2.97918 2.46436,4.77449 2.74905,5.38591 l 0.0992,-0.0462 c -0.35894,-2.6279 -0.2719,-4.57871 0.2611,-5.85245 0.53302,-1.27366 1.64234,-2.30293 3.32795,-3.0878 0.59492,-0.27698 1.23658,-0.4752 1.92498,-0.59467 l 1.90439,4.09009 c -0.67187,0.11175 -1.50357,0.39848 -2.49511,0.86013 -1.85087,0.86182 -2.89255,2.31705 -3.12504,4.36573 -0.23248,2.04873 0.34377,4.56038 1.7288,7.53498 l 6.50957,13.98068 z"
       inkscape:connector-curvature="0" />
    <path
       id="path3154"
       style="font-size:48.90641022px;font-style:normal;font-variant:normal;font-weight:normal;font-stretch:normal;text-align:start;line-height:125%;letter-spacing:4.20543718px;word-spacing:0px;text-anchor:start;fill:#000000;fill-opacity:1;stroke:#000000;stroke-width:0.0035433;stroke-miterlimit:4;stroke-opacity:1;stroke-dasharray:none;font-family:Liberation Sans;-inkscape-font-specification:Liberation Sans"
       d="m 178.69924,570.40859 c -1.26918,0.45704 -2.36651,0.74565 -3.29199,0.86581 l -1.25072,-3.47306 c 0.68879,-0.1318 1.42765,-0.33977 2.21661,-0.62387 2.88134,-1.03764 4.39963,-3.97724 4.55486,-8.8188 l 0.0389,-1.26374 -21.0146,-23.73283 4.93946,-1.7788 11.40586,13.27207 c 0.17221,0.20924 0.37857,0.45946 0.61908,0.75065 0.24049,0.29122 1.02939,1.27136 2.36672,2.9404 1.3373,1.66906 2.07184,2.6058 2.2036,2.81022 l -0.0243,-5.71662 -0.28615,-19.9212 4.88803,-1.76028 -0.67789,31.69004 c -0.0806,3.38093 -0.35734,5.97513 -0.83017,7.78262 -0.47287,1.80749 -1.18569,3.28482 -2.13851,4.43203 -0.95282,1.1472 -2.19245,1.99564 -3.71887,2.54536 z"
       inkscape:connector-curvature="0" />
    <path
       id="path3156"
       style="font-size:48.90641022px;font-style:normal;font-variant:normal;font-weight:normal;font-stretch:normal;text-align:start;line-height:125%;letter-spacing:4.20543718px;word-spacing:0px;text-anchor:start;fill:#000000;fill-opacity:1;stroke:#000000;stroke-width:0.0035433;stroke-miterlimit:4;stroke-opacity:1;stroke-dasharray:none;font-family:Liberation Sans;-inkscape-font-specification:Liberation Sans"
       d="m 237.42124,507.61059 c -4.2287,0.56013 -7.33758,2.35562 -9.32661,5.38649 -1.98906,3.03092 -2.67003,6.91372 -2.04291,11.64838 0.61992,4.6805 2.3427,8.28168 5.16836,10.80359 2.82564,2.52191 6.3257,3.50642 10.5002,2.9535 5.34909,-0.70848 9.0193,-3.88849 11.01066,-9.54004 l 4.50874,1.55426 c -1.13662,3.49723 -3.01433,6.29272 -5.63315,8.38648 -2.61888,2.09376 -5.80772,3.38957 -9.56654,3.88741 -3.84921,0.50983 -7.28477,0.15118 -10.30668,-1.07594 -3.02193,-1.22711 -5.46616,-3.22949 -7.33271,-6.00717 -1.86655,-2.77764 -3.0691,-6.1995 -3.60764,-10.26557 -0.80663,-6.09002 0.20597,-11.07866 3.03779,-14.96594 2.83182,-3.88721 7.1572,-6.2162 12.97619,-6.98696 4.06603,-0.5385 7.56875,-0.19335 10.50818,1.03546 2.93938,1.2289 5.25766,3.32152 6.95483,6.27789 l -4.69095,2.27626 c -1.17993,-2.10545 -2.82804,-3.61567 -4.94433,-4.53064 -2.11634,-0.91491 -4.52082,-1.19406 -7.21343,-0.83746 z"
       inkscape:connector-curvature="0" />
    <path
       id="path3158"
       style="font-size:48.90641022px;font-style:normal;font-variant:normal;font-weight:normal;font-stretch:normal;text-align:start;line-height:125%;letter-spacing:4.20543718px;word-spacing:0px;text-anchor:start;fill:#000000;fill-opacity:1;stroke:#000000;stroke-width:0.0035433;stroke-miterlimit:4;stroke-opacity:1;stroke-dasharray:none;font-family:Liberation Sans;-inkscape-font-specification:Liberation Sans"
       d="m 274.82005,515.46006 c 1.10541,-1.90515 2.41203,-3.29013 3.91988,-4.15496 1.50783,-0.86477 3.40072,-1.2686 5.67865,-1.21149 3.20731,0.0805 5.5518,0.93708 7.03347,2.56978 1.48163,1.63274 2.17538,4.32611 2.08124,8.08012 l -0.49442,19.70865 -4.94766,-0.12413 0.47041,-18.7519 c 0.0521,-2.07746 -0.10054,-3.62669 -0.45781,-4.64772 -0.35734,-1.02097 -0.96742,-1.77935 -1.83024,-2.27513 -0.86286,-0.49572 -2.06877,-0.76302 -3.61775,-0.80191 -2.31438,-0.058 -4.18873,0.69729 -5.62305,2.26595 -1.43432,1.56871 -2.18554,3.7107 -2.25365,6.42597 l -0.4375,17.43982 -4.92032,-0.12342 1.01762,-40.56537 4.92033,0.12343 -0.26469,10.55137 c -0.0279,1.11166 -0.0886,2.25893 -0.18208,3.44183 -0.0935,1.18295 -0.15164,1.86529 -0.17443,2.04704 z"
       inkscape:connector-curvature="0" />
    <path
       id="path3160"
       style="font-size:48.90641022px;font-style:normal;font-variant:normal;font-weight:normal;font-stretch:normal;text-align:start;line-height:125%;letter-spacing:4.20543718px;word-spacing:0px;text-anchor:start;fill:#000000;fill-opacity:1;stroke:#000000;stroke-width:0.0035433;stroke-miterlimit:4;stroke-opacity:1;stroke-dasharray:none;font-family:Liberation Sans;-inkscape-font-specification:Liberation Sans"
       d="m 305.33978,541.84588 3.15689,-22.47469 c 0.28905,-2.05789 0.55438,-4.34005 0.796,-6.84646 l 4.60325,0.6466 c -0.32216,3.34187 -0.53014,5.34675 -0.62395,6.01464 l 0.10832,0.0152 c 1.12868,-2.40016 2.26313,-3.98958 3.40338,-4.76826 1.14021,-0.77863 2.63097,-1.03864 4.47229,-0.78003 0.64985,0.0913 1.29607,0.27413 1.93865,0.54843 l -0.62757,4.46786 c -0.62453,-0.27177 -1.47835,-0.48374 -2.56144,-0.63591 -2.02184,-0.28397 -3.68763,0.37024 -4.99737,1.96263 -1.30977,1.59242 -2.19285,4.01331 -2.64925,7.26264 l -2.14516,15.27195 z"
       inkscape:connector-curvature="0" />
    <path
       id="path3162"
       style="font-size:48.90641022px;font-style:normal;font-variant:normal;font-weight:normal;font-stretch:normal;text-align:start;line-height:125%;letter-spacing:4.20543718px;word-spacing:0px;text-anchor:start;fill:#000000;fill-opacity:1;stroke:#000000;stroke-width:0.0035433;stroke-miterlimit:4;stroke-opacity:1;stroke-dasharray:none;font-family:Liberation Sans;-inkscape-font-specification:Liberation Sans"
       d="m 336.08171,510.64107 1.00704,-4.59404 4.80772,1.05389 -1.00704,4.59405 z m -7.68169,35.04294 6.33505,-28.89975 4.80772,1.0539 -6.33505,28.89974 z"
       inkscape:connector-curvature="0" />
    <path
       id="path3164"
       style="font-size:48.90641022px;font-style:normal;font-variant:normal;font-weight:normal;font-stretch:normal;text-align:start;line-height:125%;letter-spacing:4.20543718px;word-spacing:0px;text-anchor:start;fill:#000000;fill-opacity:1;stroke:#000000;stroke-width:0.0035433;stroke-miterlimit:4;stroke-opacity:1;stroke-dasharray:none;font-family:Liberation Sans;-inkscape-font-specification:Liberation Sans"
       d="m 368.90337,548.48157 c -0.83817,2.66015 -2.48865,4.3954 -4.95146,5.20577 -2.46285,0.81038 -5.50246,0.64583 -9.11886,-0.49359 -3.5121,-1.10657 -6.03792,-2.53789 -7.57744,-4.29394 -1.53955,-1.75605 -2.20999,-3.95022 -2.01134,-6.58251 l 4.40143,0.49804 c -0.0767,1.63863 0.39993,3.00723 1.4299,4.10581 1.02997,1.09858 2.6577,1.99846 4.88319,2.69965 2.38195,0.7505 4.23999,0.93455 5.57414,0.55218 1.3341,-0.38238 2.23124,-1.30381 2.69142,-2.76428 0.35057,-1.11274 0.25293,-2.13736 -0.29293,-3.07386 -0.54592,-0.9365 -1.59959,-1.89919 -3.16102,-2.8881 l -3.08493,-1.94672 c -2.47581,-1.54455 -4.17765,-2.83094 -5.10556,-3.85914 -0.92793,-1.02819 -1.5629,-2.12176 -1.90489,-3.28073 -0.34202,-1.15893 -0.29391,-2.43387 0.14435,-3.82481 0.81074,-2.57319 2.34554,-4.24455 4.60438,-5.0141 2.25882,-0.76951 5.14428,-0.60099 8.65638,0.50556 3.11218,0.98059 5.41286,2.30752 6.90206,3.98079 1.48914,1.67331 2.0964,3.79502 1.82181,6.36511 l -4.38929,-0.80956 c 0.1336,-1.33399 -0.26354,-2.51509 -1.19144,-3.54331 -0.92793,-1.02817 -2.34815,-1.84357 -4.26065,-2.44617 -2.12119,-0.6683 -3.78733,-0.83967 -4.99842,-0.51412 -1.21112,0.3256 -2.0221,1.14038 -2.43294,2.44436 -0.252,0.7998 -0.25153,1.52623 0.001,2.17928 0.25292,0.65309 0.73045,1.29091 1.4326,1.91348 0.70211,0.62261 2.26452,1.66914 4.68722,3.13962 2.28905,1.40929 3.89773,2.55163 4.82603,3.42703 0.92824,0.87542 1.60834,1.73475 2.04028,2.578 0.4319,0.84325 0.68888,1.74129 0.77096,2.69409 0.082,0.95281 -0.0468,1.96821 -0.3864,3.04617 z"
       inkscape:connector-curvature="0" />
    <path
       id="path3166"
       style="font-size:48.90641022px;font-style:normal;font-variant:normal;font-weight:normal;font-stretch:normal;text-align:start;line-height:125%;letter-spacing:4.20543718px;word-spacing:0px;text-anchor:start;fill:#000000;fill-opacity:1;stroke:#000000;stroke-width:0.0035433;stroke-miterlimit:4;stroke-opacity:1;stroke-dasharray:none;font-family:Liberation Sans;-inkscape-font-specification:Liberation Sans"
       d="m 386.87565,564.44927 c -1.66584,-0.2204 -3.28117,-0.65673 -4.84596,-1.30899 -3.63441,-1.51495 -4.59243,-4.33359 -2.87409,-8.45595 l 7.59577,-18.22246 -3.15486,-1.31506 1.37817,-3.30629 3.33153,1.3887 3.88361,-5.55023 3.02867,1.26246 -2.54595,6.1078 5.04778,2.1041 -1.37819,3.3063 -5.04776,-2.1041 -7.18548,17.23816 c -0.54707,1.31242 -0.71653,2.32306 -0.5084,3.03192 0.20813,0.70887 0.84221,1.28423 1.90225,1.72609 0.60572,0.25248 1.52976,0.49941 2.77213,0.74077 z"
       inkscape:connector-curvature="0" />
    <path
       id="path3168"
       style="font-size:48.90641022px;font-style:normal;font-variant:normal;font-weight:normal;font-stretch:normal;text-align:start;line-height:125%;letter-spacing:4.20543718px;word-spacing:0px;text-anchor:start;fill:#000000;fill-opacity:1;stroke:#000000;stroke-width:0.0035433;stroke-miterlimit:4;stroke-opacity:1;stroke-dasharray:none;font-family:Liberation Sans;-inkscape-font-specification:Liberation Sans"
       d="m 410.23341,576.34705 9.09022,-16.40803 c 1.38691,-2.50344 2.00258,-4.42347 1.84699,-5.76008 -0.15565,-1.33659 -1.12642,-2.4996 -2.9123,-3.48902 -1.83376,-1.0159 -3.67352,-1.1182 -5.51923,-0.30688 -1.84578,0.81135 -3.47537,2.49266 -4.88881,5.04395 l -8.3084,14.99684 -4.2814,-2.37194 11.27664,-20.35456 c 1.66963,-3.0137 2.64211,-4.88192 2.9175,-5.60466 l 4.06612,2.25268 c -0.0283,0.0886 -0.13156,0.31268 -0.30994,0.67229 -0.17842,0.35966 -0.38155,0.77333 -0.60938,1.24101 -0.22788,0.46772 -0.6748,1.34025 -1.34078,2.61761 l 0.0718,0.0397 c 1.94074,-1.32135 3.70785,-2.00954 5.30132,-2.06455 1.59343,-0.055 3.25121,0.39455 4.97337,1.34861 1.96128,1.0866 3.29555,2.33638 4.00282,3.74934 0.70722,1.41298 0.81145,3.09623 0.31273,5.04974 l 0.0718,0.0397 c 1.85583,-1.24336 3.62962,-1.89659 5.32136,-1.95968 1.69167,-0.0631 3.43845,0.40451 5.24034,1.40275 2.61503,1.44879 4.12343,3.21183 4.52521,5.28912 0.40166,2.07729 -0.29413,4.73441 -2.08739,7.97137 l -9.55401,17.24517 -4.25748,-2.35869 9.09023,-16.40802 c 1.38689,-2.50346 2.00255,-4.42349 1.84698,-5.76009 -0.15566,-1.3366 -1.12643,-2.4996 -2.91229,-3.48902 -1.88162,-1.0424 -3.73112,-1.15531 -5.54849,-0.3387 -1.81745,0.81661 -3.4373,2.50854 -4.85955,5.07577 l -8.30841,14.99684 z"
       inkscape:connector-curvature="0" />
    <path
       id="path3170"
       style="font-size:48.90641022px;font-style:normal;font-variant:normal;font-weight:normal;font-stretch:normal;text-align:start;line-height:125%;letter-spacing:4.20543718px;word-spacing:0px;text-anchor:start;fill:#000000;fill-opacity:1;stroke:#000000;stroke-width:0.0035433;stroke-miterlimit:4;stroke-opacity:1;stroke-dasharray:none;font-family:Liberation Sans;-inkscape-font-specification:Liberation Sans"
       d="m 445.35042,598.98553 c -2.40048,-1.75118 -3.74255,-3.70052 -4.0262,-5.84799 -0.28366,-2.14747 0.38027,-4.32572 1.99179,-6.53475 1.8049,-2.4741 4.00447,-3.78029 6.59871,-3.91855 2.59421,-0.13825 5.73495,1.06988 9.42225,3.62442 l 5.43239,3.82764 0.95079,-1.30332 c 1.41812,-1.94395 2.02103,-3.63645 1.80873,-5.07752 -0.21235,-1.44106 -1.20213,-2.8062 -2.96932,-4.09543 -1.78197,-1.29995 -3.29817,-1.94347 -4.54861,-1.93058 -1.25048,0.0129 -2.44017,0.62299 -3.56905,1.83021 l -3.87901,-3.4052 c 3.81452,-3.80601 8.57878,-3.62479 14.29283,0.54367 3.00424,2.19168 4.76255,4.52928 5.27493,7.01281 0.51232,2.48355 -0.18231,5.02865 -2.08388,7.63529 l -7.5097,10.29407 c -0.85951,1.17813 -1.35216,2.17822 -1.47799,3.00029 -0.12587,0.82204 0.24565,1.55 1.11455,2.18387 0.38288,0.27932 0.85493,0.54471 1.41614,0.79617 l -1.8049,2.47411 c -1.17335,-0.49494 -2.28282,-1.1238 -3.3284,-1.88657 -1.47271,-1.07436 -2.26206,-2.24254 -2.36808,-3.50451 -0.10604,-1.262 0.39838,-2.74992 1.51331,-4.46379 l -0.13255,-0.0966 c -2.34836,1.08482 -4.47293,1.51494 -6.37371,1.29035 -1.9008,-0.22461 -3.81581,-1.0406 -5.74502,-2.448 z m 3.08126,-2.32145 c 1.45794,1.0636 2.99563,1.67768 4.61308,1.84222 1.6174,0.16453 3.17547,-0.0922 4.67419,-0.77015 1.49869,-0.67798 2.6939,-1.62812 3.58563,-2.85045 l 1.43426,-1.96603 -4.41624,-3.08634 c -1.89182,-1.33497 -3.44895,-2.17758 -4.67137,-2.52784 -1.22247,-0.35025 -2.36001,-0.34521 -3.41261,0.0151 -1.05263,0.36032 -2.01404,1.13692 -2.88425,2.32979 -0.94544,1.29596 -1.32624,2.55254 -1.14239,3.76975 0.18384,1.2172 0.92373,2.29851 2.2197,3.24395 z"
       inkscape:connector-curvature="0" />
    <path
       id="path3172"
       style="font-size:48.90641022px;font-style:normal;font-variant:normal;font-weight:normal;font-stretch:normal;text-align:start;line-height:125%;letter-spacing:4.20543718px;word-spacing:0px;text-anchor:start;fill:#000000;fill-opacity:1;stroke:#000000;stroke-width:0.0035433;stroke-miterlimit:4;stroke-opacity:1;stroke-dasharray:none;font-family:Liberation Sans;-inkscape-font-specification:Liberation Sans"
       d="m 490.31199,624.42705 c -1.84865,2.0884 -4.06265,3.00131 -6.64202,2.73872 -2.57941,-0.2626 -5.28867,-1.65049 -8.12781,-4.16363 -2.75725,-2.44068 -4.48146,-4.77638 -5.17262,-7.00712 -0.69116,-2.23074 -0.41015,-4.50778 0.84305,-6.83112 l 3.8173,2.24697 c -0.73724,1.46542 -0.85914,2.90951 -0.36569,4.33227 0.49343,1.42275 1.61373,2.90741 3.36091,4.45397 1.87,1.6553 3.49212,2.57992 4.86636,2.77388 1.37421,0.19394 2.56879,-0.28238 3.58373,-1.42894 0.77326,-0.87359 1.10126,-1.84919 0.984,-2.92681 -0.11732,-1.07762 -0.68773,-2.38592 -1.71124,-3.9249 l -2.02502,-3.0341 c -1.63242,-2.41877 -2.66306,-4.28662 -3.09193,-5.60355 -0.4289,-1.3169 -0.56359,-2.57427 -0.40408,-3.77206 0.15948,-1.19778 0.72253,-2.34266 1.68914,-3.43465 1.78819,-2.02015 3.87053,-2.9218 6.24698,-2.70498 2.37642,0.21687 4.94326,1.54563 7.70054,3.98628 2.44327,2.16278 4.00435,4.31148 4.68323,6.44611 0.67882,2.13465 0.36961,4.31977 -0.92763,6.5554 l -3.67936,-2.52657 c 0.66515,-1.164 0.78331,-2.40447 0.35446,-3.7214 -0.42891,-1.31692 -1.39408,-2.63991 -2.89553,-3.96899 -1.6653,-1.47406 -3.11729,-2.30896 -4.35601,-2.50471 -1.23876,-0.19574 -2.31122,0.21825 -3.21738,1.24197 -0.55582,0.6279 -0.85116,1.29159 -0.88603,1.99105 -0.0349,0.69947 0.14157,1.47648 0.52939,2.33099 0.38779,0.85452 1.38872,2.44653 3.0028,4.77602 1.51692,2.2192 2.5211,3.91755 3.01254,5.09506 0.4914,1.17752 0.76268,2.23929 0.81388,3.18535 0.0512,0.94605 -0.0798,1.8709 -0.39278,2.77458 -0.31303,0.90365 -0.84409,1.77862 -1.59318,2.62491 z"
       inkscape:connector-curvature="0" />
    <g
       style="font-size:8.67873669px;font-style:normal;font-variant:normal;font-weight:normal;font-stretch:normal;line-height:125%;letter-spacing:0px;word-spacing:0px;fill:none;stroke:#000000;stroke-width:0.00309447;stroke-miterlimit:4;stroke-opacity:1;stroke-dasharray:none;display:inline;font-family:Liberation Sans;-inkscape-font-specification:Liberation Sans"
       id="text3065-2"
       transform="matrix(1.1450442,0,0,1.1450442,-65.853585,-9.6935125)">
      <path
         d="m 94.197095,368.70542 0,17.09814 -2.592695,0 0,-17.09814 -6.604548,0 0,-2.12874 15.801788,0 0,2.12874 -6.604545,0"
         style="font-size:27.94651985px;letter-spacing:2.16968417px;stroke:#000000;stroke-width:0.00309447;stroke-miterlimit:4;stroke-dasharray:none"
         id="path4889"
         inkscape:connector-curvature="0" />
      <path
         d="m 114.88408,378.40756 c -2e-5,2.5836 -0.56859,4.50765 -1.70572,5.77215 -1.13716,1.26451 -2.7883,1.89676 -4.95341,1.89676 -1.02799,0 -1.9468,-0.15465 -2.75645,-0.46395 -0.80965,-0.30931 -1.49649,-0.78236 -2.06051,-1.41916 -0.55493,-0.6368 -0.98249,-1.4328 -1.2827,-2.38801 -0.29111,-0.9643 -0.43666,-2.09689 -0.43666,-3.39779 0,-5.09441 2.20606,-7.64162 6.61819,-7.64163 1.14624,10e-6 2.13328,0.15921 2.96113,0.4776 0.83693,0.31842 1.51922,0.79602 2.04687,1.43281 0.53672,0.63681 0.93244,1.43281 1.18718,2.388 0.2547,0.95522 0.38206,2.06962 0.38208,3.34322 m -2.57905,0 c -1e-5,-1.14624 -0.091,-2.09235 -0.27292,-2.83832 -0.17285,-0.74596 -0.43212,-1.34182 -0.7778,-1.7876 -0.33661,-0.44575 -0.75053,-0.75505 -1.24177,-0.92791 -0.49126,-0.18193 -1.04618,-0.2729 -1.66478,-0.27291 -0.62771,10e-6 -1.19629,0.0955 -1.70572,0.28656 -0.50035,0.18195 -0.92792,0.50035 -1.2827,0.9552 -0.3548,0.44577 -0.62771,1.04164 -0.81875,1.78759 -0.18195,0.74598 -0.27292,1.67844 -0.27291,2.79739 -1e-5,1.14625 0.10006,2.0969 0.3002,2.85196 0.20014,0.74597 0.47305,1.34184 0.81875,1.78759 0.35478,0.44577 0.7687,0.75962 1.24176,0.94156 0.48215,0.18195 1.00523,0.27292 1.56926,0.27292 0.6277,0 1.19627,-0.0864 1.70572,-0.25927 0.50944,-0.18194 0.94155,-0.4958 1.29635,-0.94156 0.35478,-0.44576 0.6277,-1.04617 0.81875,-1.80124 0.19103,-0.75506 0.28655,-1.70571 0.28656,-2.85196"
         style="font-size:27.94651985px;letter-spacing:2.16968417px;stroke:#000000;stroke-width:0.00309447;stroke-miterlimit:4;stroke-dasharray:none"
         id="path4891"
         inkscape:connector-curvature="0" />
      <path
         d="m 142.69416,420.73671 0,-12.82702 c -1e-5,-0.46394 0.005,-0.93699 0.0136,-1.41916 0.009,-0.48213 0.0227,-0.92335 0.0409,-1.32364 0.0182,-0.46394 0.0409,-0.91425 0.0682,-1.35093 -0.12738,0.46398 -0.25929,0.92338 -0.39573,1.37823 -0.11828,0.39119 -0.25019,0.80966 -0.39573,1.25541 -0.13647,0.43667 -0.27293,0.8324 -0.40937,1.18718 l -4.96706,13.09993 -1.82853,0 -5.03529,-13.09993 c -0.0546,-0.13645 -0.11372,-0.29565 -0.17739,-0.4776 -0.0546,-0.18193 -0.11827,-0.37297 -0.19104,-0.57313 -0.0637,-0.20922 -0.13192,-0.41845 -0.20469,-0.6277 -0.0637,-0.21832 -0.12736,-0.4321 -0.19104,-0.64135 -0.15466,-0.48214 -0.30476,-0.98248 -0.45031,-1.50104 0.009,0.50946 0.0227,1.01435 0.0409,1.51468 0.0182,0.42759 0.0318,0.8779 0.0409,1.35093 0.009,0.46397 0.0136,0.87335 0.0136,1.22812 l 0,12.82702 -2.31978,0 0,-19.22688 3.42509,0 5.11716,13.33191 c 0.0637,0.18195 0.14099,0.41847 0.23198,0.70958 0.091,0.28202 0.17738,0.57313 0.25927,0.87333 0.0819,0.30021 0.15464,0.58677 0.21833,0.85968 0.0728,0.26382 0.1228,0.46851 0.1501,0.61406 0.0273,-0.14555 0.0773,-0.35479 0.15011,-0.62771 0.0728,-0.27291 0.15464,-0.55947 0.24562,-0.85968 0.10006,-0.3002 0.19558,-0.59131 0.28656,-0.87333 0.091,-0.282 0.17283,-0.51398 0.24562,-0.69593 l 5.02164,-13.33191 3.34322,0 0,19.22688 -2.34708,0"
         style="font-size:27.94651985px;letter-spacing:2.16968417px;stroke:#000000;stroke-width:0.00309447;stroke-miterlimit:4;stroke-dasharray:none"
         id="path4893"
         inkscape:connector-curvature="0" />
      <path
         d="m 153.81547,405.97199 0,9.361 c 0,0.71868 0.05,1.31909 0.1501,1.80124 0.10916,0.48215 0.28201,0.87333 0.51854,1.17353 0.23652,0.29111 0.54583,0.50035 0.92791,0.62771 0.39118,0.11826 0.87333,0.17739 1.44645,0.17739 0.58222,0 1.1053,-0.10006 1.56927,-0.3002 0.47304,-0.20924 0.87332,-0.50489 1.20082,-0.88698 0.33659,-0.39117 0.59586,-0.86878 0.77781,-1.4328 0.18194,-0.57312 0.27291,-1.22812 0.27292,-1.96499 l 0,-8.5559 2.45624,0 0,11.61255 c -2e-5,0.3093 -2e-5,0.6368 0,0.98249 0.009,0.3366 0.0182,0.65955 0.0273,0.96885 0.009,0.30021 0.0182,0.55948 0.0273,0.77781 0.009,0.21833 0.0182,0.35934 0.0273,0.42302 l -2.31978,0 c -0.009,-0.0455 -0.0182,-0.1683 -0.0273,-0.36844 -0.009,-0.20013 -0.0228,-0.42756 -0.0409,-0.68229 -0.009,-0.26381 -0.0182,-0.52763 -0.0273,-0.79145 -0.009,-0.27291 -0.0137,-0.50034 -0.0136,-0.68229 l -0.0409,0 c -0.23654,0.42757 -0.49581,0.8142 -0.77781,1.15989 -0.28202,0.3457 -0.60952,0.64135 -0.9825,0.88698 -0.37299,0.23652 -0.80056,0.41847 -1.2827,0.54583 -0.48216,0.13645 -1.04163,0.20468 -1.67843,0.20468 -0.81875,0 -1.52378,-0.10007 -2.11509,-0.3002 -0.59132,-0.20014 -1.07802,-0.50944 -1.4601,-0.92792 -0.38208,-0.41846 -0.66409,-0.9552 -0.84603,-1.6102 -0.17285,-0.65499 -0.25927,-1.44189 -0.25927,-2.36071 l 0,-9.8386 2.46988,0"
         style="font-size:27.94651985px;letter-spacing:2.16968417px;stroke:#000000;stroke-width:0.00309447;stroke-miterlimit:4;stroke-dasharray:none"
         id="path4895"
         inkscape:connector-curvature="0" />
      <path
         d="m 177.7365,420.73671 0,-9.36099 c -1e-5,-0.71867 -0.0455,-1.31908 -0.13646,-1.80124 -0.091,-0.48214 -0.24563,-0.86877 -0.46395,-1.15989 -0.20925,-0.3002 -0.48671,-0.50943 -0.8324,-0.62771 -0.3457,-0.12735 -0.76872,-0.19103 -1.26905,-0.19104 -0.51855,10e-6 -0.98705,0.10463 -1.40552,0.31385 -0.41847,0.20015 -0.77781,0.49581 -1.07801,0.88698 -0.29112,0.38209 -0.51854,0.85969 -0.68229,1.4328 -0.15466,0.56404 -0.23198,1.21448 -0.23198,1.95135 l 0,8.55589 -2.44259,0 0,-11.61254 c 0,-0.3093 -0.005,-0.63225 -0.0136,-0.96885 -1e-5,-0.34568 -0.005,-0.66863 -0.0137,-0.96885 -0.009,-0.30929 -0.0182,-0.57311 -0.0273,-0.79146 -0.009,-0.21831 -0.0182,-0.35932 -0.0273,-0.42302 l 2.31978,0 c 0.009,0.0455 0.0182,0.16832 0.0273,0.36844 0.009,0.20015 0.0182,0.43213 0.0273,0.69593 0.0182,0.25474 0.0318,0.51856 0.0409,0.79146 0.009,0.26383 0.0136,0.48671 0.0136,0.66864 l 0.0409,0 c 0.21833,-0.42755 0.45485,-0.81418 0.70958,-1.15989 0.25472,-0.34568 0.55037,-0.63679 0.88697,-0.87333 0.34569,-0.24561 0.73687,-0.4321 1.17354,-0.55947 0.44575,-0.13645 0.95974,-0.20468 1.54197,-0.20469 1.11894,1e-5 2.00137,0.22289 2.64728,0.66864 0.65498,0.44578 1.10984,1.15536 1.36457,2.12874 l 0.0409,0 c 0.21832,-0.42755 0.46394,-0.81418 0.73687,-1.15989 0.2729,-0.34568 0.59131,-0.63679 0.95521,-0.87333 0.36387,-0.24561 0.77324,-0.4321 1.22811,-0.55947 0.45485,-0.13645 0.97339,-0.20468 1.55562,-0.20469 0.74595,1e-5 1.3873,0.10008 1.92405,0.30021 0.54582,0.20015 0.99158,0.50945 1.33729,0.92791 0.34567,0.41848 0.60039,0.95976 0.76416,1.62384 0.16373,0.65501 0.2456,1.43737 0.24563,2.34707 l 0,9.8386 -2.42895,0 0,-9.36099 c -2e-5,-0.71867 -0.0455,-1.31908 -0.13646,-1.80124 -0.091,-0.48214 -0.24564,-0.86877 -0.46395,-1.15989 -0.20926,-0.3002 -0.48672,-0.50943 -0.8324,-0.62771 -0.34571,-0.12735 -0.76872,-0.19103 -1.26905,-0.19104 -0.51856,10e-6 -0.98706,0.10008 -1.40551,0.30021 -0.41849,0.19105 -0.77783,0.47761 -1.07802,0.85968 -0.29112,0.38209 -0.51855,0.85969 -0.68229,1.4328 -0.15466,0.57314 -0.23199,1.23723 -0.23198,1.99229 l 0,8.55589 -2.42894,0"
         style="font-size:27.94651985px;letter-spacing:2.16968417px;stroke:#000000;stroke-width:0.00309447;stroke-miterlimit:4;stroke-dasharray:none"
         id="path4897"
         inkscape:connector-curvature="0" />
      <path
         d="m 218.93306,420.90046 c -0.87334,0 -1.6375,-0.15011 -2.29248,-0.45031 -0.65501,-0.30021 -1.24633,-0.72778 -1.77395,-1.2827 -0.27293,0.23652 -0.58223,0.46395 -0.92791,0.68228 -0.34571,0.21834 -0.73234,0.41393 -1.15989,0.58677 -0.41848,0.17285 -0.87789,0.30931 -1.37823,0.40937 -0.49125,0.10917 -1.02798,0.16375 -1.6102,0.16375 -1.06437,0 -1.98773,-0.13645 -2.77009,-0.40937 -0.77326,-0.27291 -1.41006,-0.6459 -1.9104,-1.11895 -0.50035,-0.48215 -0.87333,-1.04617 -1.11895,-1.69208 -0.23653,-0.65499 -0.35479,-1.36002 -0.35479,-2.11509 0,-0.71867 0.11371,-1.36912 0.34114,-1.95134 0.23653,-0.59131 0.55947,-1.1235 0.96885,-1.59656 0.41847,-0.48214 0.91426,-0.90971 1.48739,-1.2827 0.57311,-0.38207 1.20082,-0.72321 1.88311,-1.02343 -0.16375,-0.30929 -0.31386,-0.63679 -0.45031,-0.9825 -0.12736,-0.35477 -0.24108,-0.70956 -0.34114,-1.06437 -0.10008,-0.35477 -0.1774,-0.70956 -0.23198,-1.06436 -0.0546,-0.35478 -0.0819,-0.69138 -0.0819,-1.00979 -1e-5,-0.6004 0.091,-1.15987 0.27291,-1.67843 0.18194,-0.52762 0.46395,-0.98248 0.84604,-1.36458 0.39117,-0.39116 0.88697,-0.69591 1.48739,-0.91426 0.6095,-0.22741 1.33727,-0.34113 2.18332,-0.34115 0.66408,2e-5 1.27359,0.0864 1.82853,0.25927 0.56401,0.17287 1.05071,0.42304 1.4601,0.75052 0.40936,0.32752 0.72776,0.73234 0.9552,1.21447 0.22742,0.48217 0.34113,1.03255 0.34114,1.65114 -1e-5,0.6823 -0.15011,1.29181 -0.45031,1.82853 -0.30022,0.52765 -0.70504,1.0007 -1.21447,1.41916 -0.50945,0.41848 -1.10077,0.80056 -1.77395,1.14625 -0.6732,0.3366 -1.38733,0.655 -2.14238,0.9552 0.56401,1.03709 1.17807,2.01503 1.84218,2.93384 0.66408,0.90972 1.38275,1.80579 2.15603,2.68821 0.55491,-0.81874 1.01432,-1.67842 1.37822,-2.57905 0.37297,-0.90971 0.69137,-1.91494 0.9552,-3.01571 l 1.97864,0.58677 c -0.31842,1.26451 -0.72325,2.4153 -1.21448,3.45238 -0.48216,1.02798 -1.04164,2.01048 -1.67843,2.94748 0.48214,0.49125 0.96429,0.83694 1.44646,1.03708 0.48213,0.20014 0.94609,0.30021 1.39186,0.3002 0.2911,10e-6 0.56856,-0.0136 0.83239,-0.0409 0.2729,-0.0364 0.52762,-0.0955 0.76417,-0.1774 l 0,1.84218 c -0.25474,0.10007 -0.55495,0.17285 -0.90062,0.21833 -0.33662,0.0546 -0.67776,0.0819 -1.02344,0.0819 m -4.42122,-15.6244 c -1e-5,-0.33658 -0.0637,-0.64133 -0.19104,-0.91427 -0.11828,-0.27289 -0.28657,-0.50487 -0.5049,-0.69593 -0.21834,-0.20012 -0.48671,-0.35022 -0.8051,-0.45031 -0.30931,-0.10915 -0.655,-0.16373 -1.03707,-0.16375 -0.87334,2e-5 -1.53743,0.23655 -1.99228,0.70958 -0.45487,0.46397 -0.6823,1.10987 -0.68229,1.9377 -1e-5,0.53675 0.0819,1.10077 0.24562,1.69207 0.17284,0.58224 0.38662,1.12807 0.64135,1.63749 0.59131,-0.23651 1.15079,-0.47758 1.67843,-0.72322 0.52763,-0.25471 0.98703,-0.52762 1.37822,-0.81875 0.39117,-0.30019 0.70047,-0.62769 0.92791,-0.98249 0.22742,-0.36387 0.34114,-0.77325 0.34115,-1.22812 m -1.00979,12.49952 c -0.80966,-0.9552 -1.58746,-1.95589 -2.33342,-3.00207 -0.74598,-1.04617 -1.41917,-2.12418 -2.01958,-3.23405 -1.02798,0.43668 -1.82398,0.99161 -2.388,1.66479 -0.55494,0.6732 -0.8324,1.48739 -0.8324,2.44259 0,0.50035 0.0773,0.96885 0.23198,1.40551 0.16375,0.42757 0.40937,0.80511 0.73687,1.1326 0.3275,0.3184 0.73687,0.57312 1.22812,0.76416 0.50034,0.18195 1.08256,0.27292 1.74666,0.27292 0.40027,0 0.7778,-0.0409 1.1326,-0.12281 0.36388,-0.091 0.70047,-0.20469 1.00978,-0.34115 0.3093,-0.13645 0.58676,-0.2911 0.8324,-0.46395 0.25471,-0.17285 0.47304,-0.34569 0.65499,-0.51854"
         style="font-size:27.94651985px;letter-spacing:2.16968417px;stroke:#000000;stroke-width:0.00309447;stroke-miterlimit:4;stroke-dasharray:none"
         id="path4899"
         inkscape:connector-curvature="0" />
      <path
         d="m 252.25604,410.92541 c -2e-5,1.60111 -0.2411,3.01572 -0.72323,4.24383 -0.48217,1.21902 -1.14171,2.24245 -1.97863,3.07029 -0.83696,0.81875 -1.82855,1.44191 -2.97478,1.86947 -1.13716,0.41847 -2.36528,0.62771 -3.68436,0.62771 l -7.19131,0 0,-19.22688 6.35892,0 c 1.48283,2e-5 2.84741,0.18651 4.09373,0.55948 1.2554,0.3639 2.33341,0.93247 3.23405,1.70572 0.9006,0.76418 1.60108,1.73757 2.10144,2.92019 0.50943,1.18264 0.76415,2.59271 0.76417,4.23019 m -2.61999,0 c -2e-5,-1.30089 -0.18651,-2.41074 -0.55948,-3.32957 -0.373,-0.9279 -0.89608,-1.68751 -1.56926,-2.27884 -0.6732,-0.5913 -1.4783,-1.02342 -2.4153,-1.29635 -0.93702,-0.282 -1.965,-0.423 -3.08394,-0.42302 l -3.698,0 0,15.05128 4.28477,0 c 1.00977,0 1.94223,-0.16375 2.79738,-0.49125 0.86422,-0.3275 1.61018,-0.81419 2.2379,-1.4601 0.62769,-0.64589 1.11894,-1.45099 1.47375,-2.4153 0.35477,-0.96429 0.53216,-2.08324 0.53218,-3.35685"
         style="font-size:27.94651985px;letter-spacing:2.16968417px;stroke:#000000;stroke-width:0.00309447;stroke-miterlimit:4;stroke-dasharray:none"
         id="path4901"
         inkscape:connector-curvature="0" />
      <path
         d="m 261.42599,421.00962 c -1.48285,0 -2.59725,-0.39117 -3.34321,-1.17353 -0.74597,-0.78236 -1.11896,-1.85582 -1.11896,-3.2204 0,-0.97339 0.18195,-1.7694 0.54583,-2.38801 0.37299,-0.6277 0.85514,-1.11894 1.44645,-1.47374 0.60041,-0.35478 1.2827,-0.60041 2.04687,-0.73687 0.76416,-0.13645 1.54196,-0.21378 2.33342,-0.23198 l 3.31592,-0.0546 0,-0.8051 c -10e-6,-0.6095 -0.0637,-1.12804 -0.19104,-1.55562 -0.12737,-0.42756 -0.32296,-0.77325 -0.58676,-1.03708 -0.26383,-0.2638 -0.59588,-0.45485 -0.99615,-0.57312 -0.39118,-0.12735 -0.85514,-0.19103 -1.39186,-0.19104 -0.47306,10e-6 -0.90063,0.0364 -1.2827,0.10916 -0.38209,0.0637 -0.71414,0.18651 -0.99615,0.36844 -0.28201,0.17286 -0.50944,0.41393 -0.68228,0.72323 -0.17285,0.30021 -0.28657,0.68229 -0.34115,1.14624 l -2.5654,-0.23198 c 0.091,-0.58221 0.26382,-1.11439 0.51854,-1.59655 0.25472,-0.49124 0.61405,-0.91426 1.07801,-1.26906 0.47305,-0.35477 1.05982,-0.62769 1.76031,-0.81874 0.70957,-0.20013 1.5647,-0.3002 2.5654,-0.30021 1.85581,1e-5 3.25223,0.42758 4.18925,1.2827 0.937,0.84605 1.4055,2.07417 1.40551,3.68436 l 0,6.35892 c -10e-6,0.72778 0.0955,1.27816 0.28656,1.65114 0.19103,0.36389 0.55492,0.54583 1.09166,0.54583 0.13645,0 0.2729,-0.009 0.40938,-0.0273 0.13644,-0.0182 0.26835,-0.0409 0.39572,-0.0682 l 0,1.52832 c -0.30931,0.0728 -0.61862,0.12736 -0.92791,0.16375 -0.30022,0.0364 -0.62317,0.0546 -0.96885,0.0546 -0.46397,0 -0.86424,-0.0591 -1.20082,-0.1774 -0.32751,-0.12736 -0.59588,-0.31385 -0.8051,-0.55948 -0.20925,-0.25472 -0.36845,-0.56402 -0.47761,-0.92791 -0.10917,-0.37298 -0.1774,-0.80509 -0.20468,-1.29634 l -0.0819,0 c -0.26382,0.47305 -0.55493,0.90062 -0.87332,1.2827 -0.30932,0.38208 -0.67321,0.70958 -1.09167,0.98249 -0.41847,0.26382 -0.89608,0.46851 -1.4328,0.61406 -0.52764,0.14556 -1.13715,0.21833 -1.82853,0.21833 m 0.55947,-1.84217 c 0.78235,0 1.46464,-0.14101 2.04687,-0.42302 0.59131,-0.29111 1.078,-0.65955 1.46009,-1.10531 0.39117,-0.44576 0.68228,-0.93246 0.87333,-1.4601 0.19103,-0.52763 0.28655,-1.03252 0.28656,-1.51468 l 0,-1.21447 -2.68821,0.0546 c -0.60042,0.009 -1.17354,0.0546 -1.71937,0.13646 -0.53674,0.0728 -1.00979,0.22289 -1.41916,0.45031 -0.40937,0.22744 -0.73687,0.54584 -0.98249,0.95521 -0.23653,0.40937 -0.35479,0.94611 -0.35479,1.6102 0,0.80055 0.21378,1.41916 0.64135,1.85582 0.43666,0.43667 1.05527,0.655 1.85582,0.655"
         style="font-size:27.94651985px;letter-spacing:2.16968417px;stroke:#000000;stroke-width:0.00309447;stroke-miterlimit:4;stroke-dasharray:none"
         id="path4903"
         inkscape:connector-curvature="0" />
      <path
         d="m 284.70567,418.36235 c -0.45487,0.9461 -1.05983,1.62384 -1.81488,2.03321 -0.74598,0.40938 -1.67389,0.61406 -2.78374,0.61406 -1.86492,0 -3.2386,-0.6277 -4.12102,-1.88311 -0.87333,-1.25541 -1.30999,-3.15672 -1.30999,-5.70393 0,-5.14899 1.81033,-7.72349 5.43101,-7.7235 1.11895,1e-5 2.05141,0.2047 2.79738,0.61406 0.74596,0.40938 1.34637,1.05983 1.80124,1.95134 l 0.0273,0 c -1e-5,-0.091 -0.005,-0.23196 -0.0136,-0.42302 -1e-5,-0.20012 -0.005,-0.40481 -0.0136,-0.61406 -10e-6,-0.21831 -10e-6,-0.423 0,-0.61406 -10e-6,-0.19102 -10e-6,-0.32748 0,-0.40937 l 0,-5.71757 2.45624,0 0,17.2073 c -1e-5,0.3548 -1e-5,0.69594 0,1.02344 0.009,0.3275 0.0182,0.6277 0.0273,0.90062 0.009,0.27291 0.0182,0.50944 0.0273,0.70958 0.009,0.19104 0.0182,0.32749 0.0273,0.40937 l -2.34707,0 c -0.0182,-0.091 -0.0364,-0.21833 -0.0546,-0.38208 -0.009,-0.17285 -0.0227,-0.36844 -0.0409,-0.58677 -0.009,-0.21833 -0.0182,-0.44576 -0.0273,-0.68229 -0.009,-0.24562 -0.0137,-0.4867 -0.0136,-0.72322 l -0.0546,0 m -7.45058,-5.02164 c -1e-5,1.01889 0.0637,1.89221 0.19104,2.61998 0.12735,0.72778 0.33204,1.32819 0.61406,1.80124 0.282,0.46396 0.64134,0.8051 1.07801,1.02343 0.43666,0.21834 0.96884,0.3275 1.59656,0.3275 0.64589,0 1.21446,-0.10461 1.70572,-0.31385 0.50033,-0.20923 0.91425,-0.54583 1.24176,-1.00979 0.33659,-0.47305 0.59131,-1.0871 0.76416,-1.84217 0.17284,-0.75506 0.25926,-1.67843 0.25927,-2.77009 -1e-5,-1.04617 -0.0864,-1.9286 -0.25927,-2.64728 -0.17285,-0.72776 -0.42757,-1.31453 -0.76416,-1.7603 -0.3366,-0.44575 -0.75053,-0.76415 -1.24176,-0.95521 -0.48216,-0.20012 -1.04164,-0.30019 -1.67843,-0.3002 -0.60042,1e-5 -1.11896,0.10463 -1.55562,0.31385 -0.43667,0.20925 -0.80056,0.54584 -1.09166,1.00978 -0.29111,0.46397 -0.50945,1.06893 -0.655,1.81489 -0.13646,0.73688 -0.20469,1.63295 -0.20468,2.68822"
         style="font-size:27.94651985px;letter-spacing:2.16968417px;stroke:#000000;stroke-width:0.00309447;stroke-miterlimit:4;stroke-dasharray:none"
         id="path4905"
         inkscape:connector-curvature="0" />
    </g>
    <g
       style="font-size:8.67873669px;font-style:normal;font-variant:normal;font-weight:normal;font-stretch:normal;line-height:125%;letter-spacing:0px;word-spacing:0px;fill:none;stroke:#000000;stroke-width:0.00309447;stroke-miterlimit:4;stroke-opacity:1;stroke-dasharray:none;display:inline;font-family:Liberation Sans;-inkscape-font-specification:Liberation Sans"
       id="text3065-2-5"
       transform="matrix(1.1450442,0,0,1.1450442,-65.853585,-9.6935125)">
      <path
         d="m 263.07713,820.72101 0,-19.22688 2.60634,0 0,17.09814 9.71578,0 0,2.12874 -12.32212,0"
         style="font-size:27.94651985px;letter-spacing:2.16968417px;stroke:#000000;stroke-width:0.00309447;stroke-miterlimit:4;stroke-dasharray:none"
         id="path4908"
         inkscape:connector-curvature="0" />
      <path
         d="m 292.87948,813.32501 c -2e-5,2.5836 -0.56859,4.50765 -1.70572,5.77215 -1.13716,1.26451 -2.7883,1.89676 -4.95341,1.89676 -1.02799,0 -1.94681,-0.15465 -2.75645,-0.46395 -0.80965,-0.30931 -1.49649,-0.78236 -2.06051,-1.41916 -0.55493,-0.6368 -0.98249,-1.4328 -1.2827,-2.38801 -0.29111,-0.9643 -0.43667,-2.09689 -0.43666,-3.39779 -1e-5,-5.09441 2.20606,-7.64162 6.61819,-7.64163 1.14624,10e-6 2.13328,0.15921 2.96113,0.4776 0.83693,0.31842 1.51922,0.79602 2.04686,1.43281 0.53672,0.63681 0.93245,1.43281 1.18719,2.388 0.2547,0.95522 0.38206,2.06962 0.38208,3.34322 m -2.57905,0 c -1e-5,-1.14624 -0.091,-2.09235 -0.27292,-2.83832 -0.17285,-0.74596 -0.43212,-1.34182 -0.77781,-1.7876 -0.3366,-0.44575 -0.75052,-0.75505 -1.24176,-0.92791 -0.49126,-0.18193 -1.04618,-0.2729 -1.66478,-0.27291 -0.62771,10e-6 -1.19629,0.0955 -1.70572,0.28656 -0.50035,0.18195 -0.92792,0.50035 -1.2827,0.9552 -0.3548,0.44577 -0.62771,1.04164 -0.81875,1.78759 -0.18195,0.74598 -0.27292,1.67844 -0.27292,2.79739 0,1.14625 0.10007,2.0969 0.30021,2.85196 0.20014,0.74597 0.47305,1.34184 0.81875,1.78759 0.35478,0.44577 0.7687,0.75962 1.24176,0.94156 0.48215,0.18195 1.00523,0.27292 1.56926,0.27292 0.6277,0 1.19627,-0.0864 1.70572,-0.25927 0.50944,-0.18194 0.94155,-0.4958 1.29635,-0.94156 0.35478,-0.44576 0.6277,-1.04617 0.81875,-1.80124 0.19103,-0.75506 0.28655,-1.70571 0.28656,-2.85196"
         style="font-size:27.94651985px;letter-spacing:2.16968417px;stroke:#000000;stroke-width:0.00309447;stroke-miterlimit:4;stroke-dasharray:none"
         id="path4910"
         inkscape:connector-curvature="0" />
      <path
         d="m 304.6012,820.72101 -2.90655,0 -5.36279,-14.76472 2.61999,0 3.24769,9.60662 c 0.0637,0.20014 0.13645,0.44577 0.21833,0.73687 0.091,0.28202 0.18194,0.57768 0.27292,0.88698 0.091,0.3093 0.17284,0.60951 0.24562,0.90062 0.0819,0.28201 0.1501,0.51854 0.20469,0.70958 0.0546,-0.19104 0.1228,-0.42757 0.20469,-0.70958 0.091,-0.29111 0.18193,-0.58677 0.27291,-0.88698 0.091,-0.3002 0.18194,-0.59131 0.27292,-0.87333 0.10006,-0.2911 0.18648,-0.53673 0.25927,-0.73687 l 3.35685,-9.63391 2.60634,0 -5.51288,14.76472"
         style="font-size:27.94651985px;letter-spacing:2.16968417px;stroke:#000000;stroke-width:0.00309447;stroke-miterlimit:4;stroke-dasharray:none"
         id="path4912"
         inkscape:connector-curvature="0" />
      <path
         d="m 316.14552,813.85719 c -10e-6,0.77327 0.0773,1.48739 0.23198,2.14238 0.16374,0.64591 0.40936,1.20538 0.73687,1.67843 0.33659,0.46396 0.76415,0.82785 1.2827,1.09166 0.51853,0.25473 1.14169,0.38209 1.86947,0.38209 1.06436,0 1.91494,-0.21379 2.55176,-0.64136 0.64588,-0.42756 1.08255,-0.96884 1.30999,-1.62384 l 2.15603,0.61406 c -0.15467,0.40937 -0.373,0.8233 -0.655,1.24176 -0.27293,0.40938 -0.64136,0.78236 -1.1053,1.11896 -0.46397,0.32749 -1.04619,0.60041 -1.74666,0.81874 -0.6914,0.20924 -1.52834,0.31385 -2.51082,0.31385 -2.18333,0 -3.84811,-0.65044 -4.99435,-1.95134 -1.13715,-1.30089 -1.70572,-3.23404 -1.70572,-5.79945 0,-1.38276 0.17284,-2.55175 0.51854,-3.50696 0.34569,-0.96429 0.81874,-1.74664 1.41916,-2.34707 0.60041,-0.6004 1.30089,-1.03252 2.10144,-1.29635 0.80055,-0.2729 1.65568,-0.40936 2.56541,-0.40937 1.2372,10e-6 2.26973,0.20015 3.09759,0.60041 0.83692,0.40029 1.50557,0.95522 2.00592,1.66479 0.50943,0.70049 0.86877,1.52833 1.07802,2.48352 0.21832,0.95522 0.32748,1.98774 0.3275,3.09759 l 0,0.3275 -10.53453,0 m 7.99641,-1.88311 c -0.13646,-1.55561 -0.53219,-2.68821 -1.18718,-3.3978 -0.655,-0.71866 -1.59656,-1.078 -2.82467,-1.07801 -0.40938,10e-6 -0.8415,0.0682 -1.29635,0.20468 -0.44576,0.12738 -0.85969,0.35935 -1.24176,0.69594 -0.38209,0.3366 -0.70504,0.79601 -0.96885,1.37822 -0.26382,0.57313 -0.41393,1.30545 -0.45031,2.19697 l 7.96912,0"
         style="font-size:27.94651985px;letter-spacing:2.16968417px;stroke:#000000;stroke-width:0.00309447;stroke-miterlimit:4;stroke-dasharray:none"
         id="path4914"
         inkscape:connector-curvature="0" />
      <path
         d="m 344.92445,803.62287 0,7.15038 10.72557,0 0,2.15603 -10.72557,0 0,7.79173 -2.60634,0 0,-19.22688 13.6594,0 0,2.12874 -11.05306,0"
         style="font-size:27.94651985px;letter-spacing:2.16968417px;stroke:#000000;stroke-width:0.00309447;stroke-miterlimit:4;stroke-dasharray:none"
         id="path4916"
         inkscape:connector-curvature="0" />
      <path
         d="m 361.21749,820.72101 0,-11.32598 c 0,-0.3093 -0.005,-0.62315 -0.0136,-0.94156 -10e-6,-0.32749 -0.005,-0.64134 -0.0136,-0.94156 -0.009,-0.30019 -0.0182,-0.5822 -0.0273,-0.84604 -0.009,-0.2638 -0.0182,-0.50033 -0.0273,-0.70958 l 2.31978,0 c 0.009,0.20925 0.0182,0.45033 0.0273,0.72323 0.0182,0.26383 0.0318,0.53675 0.0409,0.81875 0.0182,0.28202 0.0273,0.55494 0.0273,0.81874 0.009,0.25473 0.0136,0.47307 0.0136,0.655 l 0.0546,0 c 0.17285,-0.56401 0.35479,-1.05071 0.54584,-1.4601 0.20013,-0.41846 0.43211,-0.7596 0.69593,-1.02343 0.26381,-0.2729 0.57766,-0.47304 0.94156,-0.60041 0.36388,-0.13645 0.80509,-0.20468 1.32364,-0.20469 0.20013,10e-6 0.39117,0.0182 0.57312,0.0546 0.18193,0.0273 0.32294,0.0546 0.42302,0.0819 l 0,2.25155 c -0.16376,-0.0455 -0.3548,-0.0773 -0.57313,-0.0955 -0.21834,-0.0273 -0.46396,-0.0409 -0.73687,-0.0409 -0.56403,10e-6 -1.04618,0.12737 -1.44645,0.38208 -0.39118,0.25473 -0.71413,0.60952 -0.96885,1.06437 -0.24563,0.44577 -0.42757,0.98251 -0.54583,1.6102 -0.11826,0.61862 -0.1774,1.29636 -0.17739,2.03322 l 0,7.69621 -2.45624,0"
         style="font-size:27.94651985px;letter-spacing:2.16968417px;stroke:#000000;stroke-width:0.00309447;stroke-miterlimit:4;stroke-dasharray:none"
         id="path4918"
         inkscape:connector-curvature="0" />
      <path
         d="m 385.15217,813.32501 c -2e-5,2.5836 -0.56859,4.50765 -1.70572,5.77215 -1.13716,1.26451 -2.7883,1.89676 -4.95341,1.89676 -1.02799,0 -1.94681,-0.15465 -2.75645,-0.46395 -0.80965,-0.30931 -1.49649,-0.78236 -2.06051,-1.41916 -0.55493,-0.6368 -0.9825,-1.4328 -1.2827,-2.38801 -0.29111,-0.9643 -0.43667,-2.09689 -0.43666,-3.39779 -1e-5,-5.09441 2.20606,-7.64162 6.61819,-7.64163 1.14624,10e-6 2.13328,0.15921 2.96113,0.4776 0.83693,0.31842 1.51922,0.79602 2.04686,1.43281 0.53672,0.63681 0.93245,1.43281 1.18719,2.388 0.2547,0.95522 0.38206,2.06962 0.38208,3.34322 m -2.57905,0 c -1e-5,-1.14624 -0.091,-2.09235 -0.27292,-2.83832 -0.17285,-0.74596 -0.43212,-1.34182 -0.77781,-1.7876 -0.3366,-0.44575 -0.75052,-0.75505 -1.24176,-0.92791 -0.49126,-0.18193 -1.04618,-0.2729 -1.66478,-0.27291 -0.62771,10e-6 -1.19629,0.0955 -1.70572,0.28656 -0.50035,0.18195 -0.92792,0.50035 -1.2827,0.9552 -0.3548,0.44577 -0.62771,1.04164 -0.81875,1.78759 -0.18195,0.74598 -0.27292,1.67844 -0.27292,2.79739 0,1.14625 0.10007,2.0969 0.30021,2.85196 0.20014,0.74597 0.47305,1.34184 0.81875,1.78759 0.35478,0.44577 0.7687,0.75962 1.24176,0.94156 0.48215,0.18195 1.00523,0.27292 1.56926,0.27292 0.6277,0 1.19627,-0.0864 1.70572,-0.25927 0.50944,-0.18194 0.94155,-0.4958 1.29635,-0.94156 0.35478,-0.44576 0.6277,-1.04617 0.81875,-1.80124 0.19103,-0.75506 0.28655,-1.70571 0.28656,-2.85196"
         style="font-size:27.94651985px;letter-spacing:2.16968417px;stroke:#000000;stroke-width:0.00309447;stroke-miterlimit:4;stroke-dasharray:none"
         id="path4920"
         inkscape:connector-curvature="0" />
      <path
         d="m 398.98898,820.72101 0,-9.36099 c -1e-5,-0.71867 -0.0455,-1.31908 -0.13646,-1.80124 -0.091,-0.48214 -0.24563,-0.86877 -0.46396,-1.15989 -0.20924,-0.3002 -0.4867,-0.50943 -0.83239,-0.62771 -0.3457,-0.12735 -0.76872,-0.19103 -1.26905,-0.19104 -0.51855,10e-6 -0.98705,0.10463 -1.40552,0.31385 -0.41847,0.20015 -0.77781,0.49581 -1.07801,0.88698 -0.29112,0.38209 -0.51854,0.85969 -0.68229,1.4328 -0.15466,0.56404 -0.23198,1.21448 -0.23198,1.95135 l 0,8.55589 -2.44259,0 0,-11.61254 c 0,-0.3093 -0.005,-0.63225 -0.0136,-0.96885 -1e-5,-0.34568 -0.005,-0.66863 -0.0136,-0.96885 -0.009,-0.30929 -0.0182,-0.57311 -0.0273,-0.79146 -0.009,-0.21831 -0.0182,-0.35932 -0.0273,-0.42302 l 2.31978,0 c 0.009,0.0455 0.0182,0.16832 0.0273,0.36844 0.009,0.20015 0.0182,0.43213 0.0273,0.69593 0.0182,0.25474 0.0318,0.51856 0.0409,0.79146 0.009,0.26383 0.0136,0.48671 0.0136,0.66864 l 0.0409,0 c 0.21833,-0.42755 0.45485,-0.81418 0.70958,-1.15989 0.25471,-0.34568 0.55037,-0.63679 0.88697,-0.87333 0.34569,-0.24561 0.73687,-0.4321 1.17354,-0.55947 0.44575,-0.13645 0.95974,-0.20468 1.54197,-0.20469 1.11894,10e-6 2.00137,0.22289 2.64728,0.66864 0.65498,0.44578 1.10984,1.15536 1.36457,2.12874 l 0.0409,0 c 0.21832,-0.42755 0.46394,-0.81418 0.73687,-1.15989 0.2729,-0.34568 0.5913,-0.63679 0.95521,-0.87333 0.36387,-0.24561 0.77324,-0.4321 1.22811,-0.55947 0.45485,-0.13645 0.97339,-0.20468 1.55562,-0.20469 0.74595,10e-6 1.3873,0.10008 1.92405,0.30021 0.54581,0.20015 0.99158,0.50945 1.33729,0.92791 0.34567,0.41848 0.60039,0.95976 0.76416,1.62384 0.16373,0.65501 0.2456,1.43737 0.24562,2.34707 l 0,9.8386 -2.42894,0 0,-9.36099 c -2e-5,-0.71867 -0.0455,-1.31908 -0.13646,-1.80124 -0.091,-0.48214 -0.24564,-0.86877 -0.46395,-1.15989 -0.20926,-0.3002 -0.48672,-0.50943 -0.8324,-0.62771 -0.34571,-0.12735 -0.76872,-0.19103 -1.26905,-0.19104 -0.51856,10e-6 -0.98706,0.10008 -1.40552,0.30021 -0.41848,0.19105 -0.77782,0.47761 -1.07801,0.85968 -0.29112,0.38209 -0.51855,0.85969 -0.68229,1.4328 -0.15466,0.57314 -0.23199,1.23723 -0.23198,1.99229 l 0,8.55589 -2.42894,0"
         style="font-size:27.94651985px;letter-spacing:2.16968417px;stroke:#000000;stroke-width:0.00309447;stroke-miterlimit:4;stroke-dasharray:none"
         id="path4922"
         inkscape:connector-curvature="0" />
      <path
         d="m 419.23929,817.73259 0,2.29248 c -10e-6,0.48215 -0.0227,0.91882 -0.0682,1.31 -0.0364,0.40027 -0.10007,0.76871 -0.19104,1.1053 -0.091,0.34569 -0.20469,0.66864 -0.34114,0.96885 -0.12737,0.30021 -0.28202,0.59586 -0.46396,0.88698 l -1.67843,0 c 0.40937,-0.59132 0.72322,-1.18719 0.94156,-1.7876 0.22743,-0.60041 0.34114,-1.19628 0.34114,-1.78759 l -1.20082,0 0,-2.98842 2.66092,0"
         style="font-size:27.94651985px;letter-spacing:2.16968417px;stroke:#000000;stroke-width:0.00309447;stroke-miterlimit:4;stroke-dasharray:none"
         id="path4924"
         inkscape:connector-curvature="0" />
      <path
         d="m 327.74443,850.34596 c -2e-5,0.80965 -0.15922,1.55562 -0.4776,2.2379 -0.30932,0.68229 -0.79147,1.27361 -1.44645,1.77395 -0.65501,0.49125 -1.48286,0.87788 -2.48353,1.15989 -0.99161,0.27292 -2.16969,0.40937 -3.53425,0.40937 -2.39257,0 -4.25749,-0.41847 -5.59477,-1.25541 -1.33728,-0.83693 -2.18787,-2.04686 -2.55175,-3.62977 l 2.52446,-0.50489 c 0.12736,0.50035 0.32295,0.9552 0.58677,1.36457 0.26381,0.40938 0.6186,0.76417 1.06437,1.06437 0.45485,0.29112 1.01433,0.51854 1.67843,0.68229 0.66408,0.16375 1.46009,0.24563 2.38801,0.24562 0.77325,10e-6 1.48282,-0.0637 2.12873,-0.19104 0.64589,-0.13645 1.20082,-0.34114 1.66479,-0.61406 0.46394,-0.27291 0.82328,-0.62315 1.07801,-1.05072 0.26381,-0.43666 0.39572,-0.9552 0.39573,-1.55562 -1e-5,-0.62769 -0.14557,-1.13714 -0.43666,-1.52832 -0.28203,-0.39117 -0.68231,-0.71412 -1.20083,-0.96885 -0.51855,-0.25471 -1.13716,-0.4685 -1.85583,-0.64135 -0.71868,-0.17284 -1.51468,-0.35933 -2.388,-0.55948 -0.53674,-0.11825 -1.07803,-0.24561 -1.62385,-0.38208 -0.53674,-0.14554 -1.05528,-0.31384 -1.55562,-0.50489 -0.49125,-0.20013 -0.9552,-0.43211 -1.39186,-0.69594 -0.43667,-0.2638 -0.8142,-0.57765 -1.1326,-0.94155 -0.31841,-0.37298 -0.56858,-0.80054 -0.75052,-1.2827 -0.18194,-0.49124 -0.27292,-1.05526 -0.27291,-1.69208 -10e-6,-0.9097 0.18194,-1.68751 0.54583,-2.33342 0.37298,-0.65498 0.88697,-1.19172 1.54197,-1.6102 0.65499,-0.41846 1.42825,-0.72321 2.31978,-0.91427 0.89151,-0.19102 1.85581,-0.28654 2.8929,-0.28656 1.19172,2e-5 2.2106,0.0955 3.05665,0.28656 0.84602,0.18196 1.56015,0.45943 2.14238,0.83239 0.58221,0.373 1.04616,0.83696 1.39187,1.39187 0.35477,0.54585 0.63679,1.18265 0.84604,1.91041 l -2.5654,0.45031 c -0.12738,-0.46394 -0.31387,-0.87787 -0.55948,-1.24177 -0.23654,-0.36387 -0.55039,-0.66862 -0.94156,-0.91426 -0.39119,-0.24561 -0.86879,-0.4321 -1.4328,-0.55948 -0.55494,-0.12734 -1.20994,-0.19102 -1.96499,-0.19104 -0.89153,2e-5 -1.64205,0.0819 -2.25155,0.24562 -0.60042,0.15467 -1.08712,0.36845 -1.4601,0.64135 -0.36389,0.27293 -0.62771,0.59588 -0.79145,0.96885 -0.15466,0.3639 -0.23199,0.75963 -0.23198,1.18718 -10e-6,0.57314 0.141,1.04619 0.42302,1.41916 0.2911,0.3639 0.68228,0.66866 1.17353,0.91427 0.49124,0.24563 1.05982,0.45032 1.70572,0.61406 0.64589,0.16376 1.33273,0.32751 2.06051,0.49125 0.59131,0.13646 1.17808,0.27747 1.76031,0.42301 0.5913,0.13647 1.15532,0.30477 1.69207,0.5049 0.53672,0.19105 1.03706,0.41848 1.50103,0.68229 0.47304,0.26382 0.88241,0.58677 1.22812,0.96884 0.34568,0.38209 0.61404,0.8324 0.8051,1.35093 0.20012,0.51855 0.30019,1.12806 0.30021,1.82854"
         style="font-size:27.94651985px;letter-spacing:2.16968417px;stroke:#000000;stroke-width:0.00309447;stroke-miterlimit:4;stroke-dasharray:none"
         id="path4926"
         inkscape:connector-curvature="0" />
      <path
         d="m 338.78386,855.54499 c -0.37299,0.10007 -0.75507,0.1774 -1.14625,0.23198 -0.38208,0.0637 -0.82784,0.0955 -1.33728,0.0955 -1.96499,0 -2.94749,-1.1144 -2.94749,-3.34321 l 0,-9.85224 -1.70572,0 0,-1.7876 1.80124,0 0.72323,-3.30227 1.63749,0 0,3.30227 2.72915,0 0,1.7876 -2.72915,0 0,9.32005 c 0,0.70959 0.11371,1.20993 0.34115,1.50104 0.23652,0.28201 0.64134,0.42302 1.21447,0.42302 0.23652,0 0.46395,-0.0182 0.68229,-0.0546 0.22742,-0.0364 0.47304,-0.0819 0.73687,-0.13645 l 0,1.81488"
         style="font-size:27.94651985px;letter-spacing:2.16968417px;stroke:#000000;stroke-width:0.00309447;stroke-miterlimit:4;stroke-dasharray:none"
         id="path4928"
         inkscape:connector-curvature="0" />
      <path
         d="m 345.42935,840.88944 0,9.361 c 0,0.71868 0.05,1.31909 0.15011,1.80124 0.10916,0.48215 0.282,0.87333 0.51854,1.17353 0.23652,0.29111 0.54582,0.50035 0.92791,0.62771 0.39117,0.11826 0.87332,0.17739 1.44645,0.17739 0.58221,0 1.1053,-0.10006 1.56926,-0.3002 0.47304,-0.20924 0.87332,-0.5049 1.20083,-0.88698 0.33658,-0.39117 0.59585,-0.86878 0.77781,-1.4328 0.18193,-0.57312 0.2729,-1.22812 0.27291,-1.96499 l 0,-8.5559 2.45624,0 0,11.61255 c -1e-5,0.3093 -1e-5,0.6368 0,0.98249 0.009,0.3366 0.0182,0.65955 0.0273,0.96885 0.009,0.30021 0.0182,0.55948 0.0273,0.77781 0.009,0.21833 0.0182,0.35934 0.0273,0.42302 l -2.31978,0 c -0.009,-0.0455 -0.0182,-0.1683 -0.0273,-0.36844 -0.009,-0.20013 -0.0228,-0.42756 -0.0409,-0.68229 -0.009,-0.26381 -0.0182,-0.52763 -0.0273,-0.79145 -0.009,-0.27291 -0.0136,-0.50034 -0.0136,-0.68229 l -0.0409,0 c -0.23654,0.42757 -0.49581,0.8142 -0.77781,1.15989 -0.28202,0.3457 -0.60952,0.64135 -0.98249,0.88698 -0.373,0.23652 -0.80056,0.41847 -1.2827,0.54583 -0.48216,0.13645 -1.04164,0.20468 -1.67843,0.20468 -0.81875,0 -1.52378,-0.10007 -2.1151,-0.3002 -0.59132,-0.20014 -1.07801,-0.50944 -1.46009,-0.92792 -0.38209,-0.41846 -0.6641,-0.9552 -0.84604,-1.6102 -0.17285,-0.65499 -0.25927,-1.44189 -0.25927,-2.36071 l 0,-9.8386 2.46988,0"
         style="font-size:27.94651985px;letter-spacing:2.16968417px;stroke:#000000;stroke-width:0.00309447;stroke-miterlimit:4;stroke-dasharray:none"
         id="path4930"
         inkscape:connector-curvature="0" />
      <path
         d="m 385.07031,855.81791 c -0.87334,0 -1.63751,-0.15011 -2.29249,-0.45031 -0.65501,-0.30021 -1.24632,-0.72778 -1.77395,-1.2827 -0.27292,0.23652 -0.58223,0.46395 -0.92791,0.68228 -0.3457,0.21834 -0.73233,0.41393 -1.15989,0.58677 -0.41848,0.17285 -0.87788,0.30931 -1.37822,0.40937 -0.49126,0.10917 -1.02799,0.16375 -1.6102,0.16375 -1.06438,0 -1.98774,-0.13645 -2.77009,-0.40937 -0.77326,-0.27291 -1.41006,-0.6459 -1.91041,-1.11895 -0.50034,-0.48215 -0.87333,-1.04617 -1.11895,-1.69208 -0.23653,-0.65499 -0.35479,-1.36002 -0.35479,-2.11509 0,-0.71867 0.11371,-1.36912 0.34115,-1.95134 0.23652,-0.59131 0.55947,-1.1235 0.96884,-1.59656 0.41847,-0.48214 0.91427,-0.90971 1.48739,-1.2827 0.57312,-0.38207 1.20082,-0.72321 1.88312,-1.02343 -0.16376,-0.30929 -0.31386,-0.63679 -0.45031,-0.9825 -0.12737,-0.35477 -0.24108,-0.70956 -0.34115,-1.06437 -0.10007,-0.35477 -0.1774,-0.70956 -0.23197,-1.06436 -0.0546,-0.35478 -0.0819,-0.69138 -0.0819,-1.00979 0,-0.6004 0.091,-1.15987 0.27292,-1.67843 0.18193,-0.52762 0.46395,-0.98248 0.84603,-1.36458 0.39118,-0.39116 0.88697,-0.69591 1.48739,-0.91426 0.6095,-0.22741 1.33728,-0.34113 2.18332,-0.34115 0.66409,2e-5 1.2736,0.0864 1.82854,0.25927 0.56401,0.17287 1.05071,0.42304 1.46009,0.75052 0.40936,0.32752 0.72776,0.73234 0.95521,1.21447 0.22741,0.48217 0.34113,1.03255 0.34114,1.65114 -1e-5,0.6823 -0.15012,1.29181 -0.45031,1.82853 -0.30022,0.52765 -0.70504,1.0007 -1.21447,1.41916 -0.50946,0.41848 -1.10077,0.80056 -1.77395,1.14625 -0.6732,0.3366 -1.38733,0.655 -2.14239,0.9552 0.56402,1.03709 1.17808,2.01503 1.84218,2.93384 0.66408,0.90972 1.38276,1.80579 2.15603,2.68821 0.55492,-0.81874 1.01432,-1.67842 1.37822,-2.57905 0.37297,-0.90971 0.69137,-1.91494 0.95521,-3.01571 l 1.97863,0.58677 c -0.31842,1.26451 -0.72324,2.4153 -1.21447,3.45238 -0.48217,1.02798 -1.04164,2.01048 -1.67843,2.94748 0.48214,0.49125 0.96429,0.83694 1.44645,1.03708 0.48214,0.20014 0.94609,0.30021 1.39187,0.3002 0.29109,10e-6 0.56855,-0.0136 0.83239,-0.0409 0.2729,-0.0364 0.52762,-0.0955 0.76416,-0.1774 l 0,1.84218 c -0.25474,0.10007 -0.55494,0.17285 -0.90062,0.21833 -0.33661,0.0546 -0.67775,0.0819 -1.02343,0.0819 m -4.42123,-15.6244 c -1e-5,-0.33658 -0.0637,-0.64133 -0.19104,-0.91427 -0.11827,-0.27289 -0.28657,-0.50487 -0.50489,-0.69593 -0.21834,-0.20012 -0.48671,-0.35022 -0.8051,-0.45031 -0.30931,-0.10915 -0.65501,-0.16373 -1.03708,-0.16375 -0.87334,2e-5 -1.53743,0.23655 -1.99228,0.70958 -0.45487,0.46397 -0.68229,1.10987 -0.68229,1.9377 0,0.53675 0.0819,1.10077 0.24563,1.69207 0.17284,0.58224 0.38662,1.12807 0.64135,1.63749 0.59131,-0.23651 1.15078,-0.47758 1.67843,-0.72322 0.52762,-0.25471 0.98703,-0.52762 1.37822,-0.81875 0.39117,-0.30019 0.70047,-0.62769 0.92791,-0.98249 0.22742,-0.36387 0.34113,-0.77325 0.34114,-1.22812 m -1.00978,12.49952 c -0.80966,-0.9552 -1.58747,-1.95589 -2.33343,-3.00207 -0.74597,-1.04617 -1.41916,-2.12418 -2.01957,-3.23405 -1.02799,0.43668 -1.82399,0.9916 -2.38801,1.66479 -0.55493,0.6732 -0.83239,1.48739 -0.83239,2.44259 0,0.50035 0.0773,0.96885 0.23198,1.40551 0.16374,0.42757 0.40937,0.80511 0.73687,1.1326 0.32749,0.3184 0.73686,0.57312 1.22812,0.76416 0.50034,0.18195 1.08255,0.27292 1.74665,0.27292 0.40027,0 0.7778,-0.0409 1.1326,-0.12281 0.36388,-0.091 0.70048,-0.20469 1.00979,-0.34115 0.30929,-0.13645 0.58676,-0.2911 0.83239,-0.46395 0.25471,-0.17285 0.47304,-0.34569 0.655,-0.51854"
         style="font-size:27.94651985px;letter-spacing:2.16968417px;stroke:#000000;stroke-width:0.00309447;stroke-miterlimit:4;stroke-dasharray:none"
         id="path4932"
         inkscape:connector-curvature="0" />
      <path
         d="m 413.94476,855.65416 -2.19697,-5.62206 -8.76058,0 -2.21061,5.62206 -2.70186,0 7.84631,-19.22688 2.96113,0 7.7235,19.22688 -2.66092,0 m -5.44466,-14.00055 c -0.14556,-0.36388 -0.28657,-0.73231 -0.42302,-1.10531 -0.12737,-0.37297 -0.24108,-0.70956 -0.34114,-1.00979 -0.10008,-0.30928 -0.1865,-0.564 -0.25927,-0.76416 -0.0637,-0.20922 -0.10008,-0.33658 -0.10917,-0.38208 -0.0182,0.0455 -0.0591,0.17286 -0.12281,0.38208 -0.0637,0.20925 -0.15011,0.46852 -0.25927,0.77781 -0.10008,0.30932 -0.21834,0.65046 -0.35479,1.02343 -0.12737,0.373 -0.25928,0.74144 -0.39572,1.10531 l -2.45624,6.31799 7.19131,0 -2.46988,-6.34528"
         style="font-size:27.94651985px;letter-spacing:2.16968417px;stroke:#000000;stroke-width:0.00309447;stroke-miterlimit:4;stroke-dasharray:none"
         id="path4934"
         inkscape:connector-curvature="0" />
      <path
         d="m 423.14201,840.88944 0,9.361 c -1e-5,0.71868 0.05,1.31909 0.1501,1.80124 0.10916,0.48215 0.28201,0.87333 0.51854,1.17353 0.23652,0.29111 0.54583,0.50035 0.92791,0.62771 0.39117,0.11826 0.87332,0.17739 1.44645,0.17739 0.58221,0 1.1053,-0.10006 1.56927,-0.3002 0.47304,-0.20924 0.87331,-0.5049 1.20082,-0.88698 0.33659,-0.39117 0.59586,-0.86878 0.77781,-1.4328 0.18193,-0.57312 0.2729,-1.22812 0.27292,-1.96499 l 0,-8.5559 2.45623,0 0,11.61255 c -1e-5,0.3093 -1e-5,0.6368 0,0.98249 0.009,0.3366 0.0182,0.65955 0.0273,0.96885 0.009,0.30021 0.0182,0.55948 0.0273,0.77781 0.009,0.21833 0.0182,0.35934 0.0273,0.42302 l -2.31978,0 c -0.009,-0.0455 -0.0182,-0.1683 -0.0273,-0.36844 -0.009,-0.20013 -0.0228,-0.42756 -0.0409,-0.68229 -0.009,-0.26381 -0.0182,-0.52763 -0.0273,-0.79145 -0.009,-0.27291 -0.0137,-0.50034 -0.0137,-0.68229 l -0.0409,0 c -0.23653,0.42757 -0.4958,0.8142 -0.7778,1.15989 -0.28203,0.3457 -0.60952,0.64135 -0.9825,0.88698 -0.37299,0.23652 -0.80056,0.41847 -1.2827,0.54583 -0.48216,0.13645 -1.04163,0.20468 -1.67843,0.20468 -0.81875,0 -1.52378,-0.10007 -2.11509,-0.3002 -0.59132,-0.20014 -1.07802,-0.50944 -1.4601,-0.92792 -0.38208,-0.41846 -0.66409,-0.9552 -0.84604,-1.6102 -0.17284,-0.65499 -0.25927,-1.44189 -0.25926,-2.36071 l 0,-9.8386 2.46988,0"
         style="font-size:27.94651985px;letter-spacing:2.16968417px;stroke:#000000;stroke-width:0.00309447;stroke-miterlimit:4;stroke-dasharray:none"
         id="path4936"
         inkscape:connector-curvature="0" />
      <path
         d="m 438.52078,855.65416 0,-11.32598 c 0,-0.3093 -0.005,-0.62315 -0.0136,-0.94156 -1e-5,-0.32749 -0.005,-0.64134 -0.0136,-0.94156 -0.009,-0.30019 -0.0182,-0.5822 -0.0273,-0.84604 -0.009,-0.2638 -0.0182,-0.50033 -0.0273,-0.70958 l 2.31978,0 c 0.009,0.20925 0.0182,0.45033 0.0273,0.72323 0.0182,0.26383 0.0318,0.53675 0.0409,0.81875 0.0182,0.28202 0.0273,0.55494 0.0273,0.81874 0.009,0.25473 0.0136,0.47307 0.0136,0.655 l 0.0546,0 c 0.17284,-0.56402 0.35478,-1.05071 0.54583,-1.4601 0.20013,-0.41846 0.43211,-0.7596 0.69593,-1.02343 0.26381,-0.2729 0.57767,-0.47304 0.94156,-0.60041 0.36388,-0.13645 0.80509,-0.20468 1.32364,-0.20469 0.20013,10e-6 0.39117,0.0182 0.57312,0.0546 0.18193,0.0273 0.32294,0.0546 0.42302,0.0819 l 0,2.25155 c -0.16376,-0.0455 -0.3548,-0.0773 -0.57312,-0.0955 -0.21834,-0.0273 -0.46397,-0.0409 -0.73688,-0.0409 -0.56403,10e-6 -1.04618,0.12737 -1.44645,0.38208 -0.39118,0.25473 -0.71413,0.60952 -0.96885,1.06437 -0.24562,0.44577 -0.42757,0.98251 -0.54583,1.6102 -0.11826,0.61862 -0.1774,1.29636 -0.17739,2.03322 l 0,7.69621 -2.45624,0"
         style="font-size:27.94651985px;letter-spacing:2.16968417px;stroke:#000000;stroke-width:0.00309447;stroke-miterlimit:4;stroke-dasharray:none"
         id="path4938"
         inkscape:connector-curvature="0" />
      <path
         d="m 462.45546,848.25816 c -2e-5,2.5836 -0.56859,4.50765 -1.70572,5.77215 -1.13716,1.26451 -2.7883,1.89676 -4.95341,1.89676 -1.02799,0 -1.9468,-0.15465 -2.75645,-0.46395 -0.80965,-0.30931 -1.49649,-0.78236 -2.06051,-1.41916 -0.55493,-0.6368 -0.98249,-1.4328 -1.2827,-2.38801 -0.29111,-0.9643 -0.43666,-2.09689 -0.43666,-3.39779 0,-5.09441 2.20606,-7.64162 6.61819,-7.64163 1.14624,10e-6 2.13328,0.15921 2.96113,0.4776 0.83693,0.31842 1.51922,0.79602 2.04687,1.43281 0.53672,0.63681 0.93244,1.43281 1.18718,2.388 0.2547,0.95522 0.38206,2.06962 0.38208,3.34322 m -2.57905,0 c -1e-5,-1.14624 -0.091,-2.09235 -0.27292,-2.83832 -0.17285,-0.74596 -0.43212,-1.34182 -0.7778,-1.7876 -0.33661,-0.44575 -0.75053,-0.75505 -1.24177,-0.92791 -0.49125,-0.18193 -1.04618,-0.2729 -1.66478,-0.27291 -0.62771,10e-6 -1.19629,0.0955 -1.70572,0.28656 -0.50035,0.18195 -0.92792,0.50035 -1.2827,0.9552 -0.3548,0.44577 -0.62771,1.04164 -0.81875,1.78759 -0.18195,0.74598 -0.27292,1.67844 -0.27291,2.79739 -1e-5,1.14625 0.10006,2.0969 0.3002,2.85196 0.20014,0.74597 0.47305,1.34184 0.81875,1.78759 0.35478,0.44577 0.7687,0.75962 1.24176,0.94156 0.48215,0.18195 1.00523,0.27292 1.56927,0.27292 0.62769,0 1.19626,-0.0864 1.70572,-0.25927 0.50943,-0.18194 0.94154,-0.4958 1.29634,-0.94156 0.35478,-0.44576 0.6277,-1.04617 0.81875,-1.80124 0.19103,-0.75506 0.28655,-1.70571 0.28656,-2.85196"
         style="font-size:27.94651985px;letter-spacing:2.16968417px;stroke:#000000;stroke-width:0.00309447;stroke-miterlimit:4;stroke-dasharray:none"
         id="path4940"
         inkscape:connector-curvature="0" />
      <path
         d="m 467.75003,855.65416 0,-11.32598 c 0,-0.3093 -0.005,-0.62315 -0.0136,-0.94156 0,-0.32749 -0.005,-0.64134 -0.0136,-0.94156 -0.009,-0.30019 -0.0182,-0.5822 -0.0273,-0.84604 -0.009,-0.2638 -0.0182,-0.50033 -0.0273,-0.70958 l 2.31978,0 c 0.009,0.20925 0.0182,0.45033 0.0273,0.72323 0.0182,0.26383 0.0318,0.53675 0.0409,0.81875 0.0182,0.28202 0.0273,0.55494 0.0273,0.81874 0.009,0.25473 0.0136,0.47307 0.0136,0.655 l 0.0546,0 c 0.17285,-0.56402 0.35479,-1.05071 0.54583,-1.4601 0.20014,-0.41846 0.43212,-0.7596 0.69594,-1.02343 0.26381,-0.2729 0.57766,-0.47304 0.94156,-0.60041 0.36388,-0.13645 0.80509,-0.20468 1.32364,-0.20469 0.20012,10e-6 0.39117,0.0182 0.57312,0.0546 0.18193,0.0273 0.32294,0.0546 0.42302,0.0819 l 0,2.25155 c -0.16376,-0.0455 -0.3548,-0.0773 -0.57313,-0.0955 -0.21834,-0.0273 -0.46396,-0.0409 -0.73687,-0.0409 -0.56403,10e-6 -1.04618,0.12737 -1.44645,0.38208 -0.39118,0.25473 -0.71413,0.60952 -0.96885,1.06437 -0.24563,0.44577 -0.42757,0.98251 -0.54583,1.6102 -0.11827,0.61862 -0.1774,1.29636 -0.17739,2.03322 l 0,7.69621 -2.45624,0"
         style="font-size:27.94651985px;letter-spacing:2.16968417px;stroke:#000000;stroke-width:0.00309447;stroke-miterlimit:4;stroke-dasharray:none"
         id="path4942"
         inkscape:connector-curvature="0" />
      <path
         d="m 482.96506,855.92707 c -1.48284,0 -2.59724,-0.39118 -3.34321,-1.17353 -0.74597,-0.78236 -1.11895,-1.85582 -1.11895,-3.2204 0,-0.97339 0.18194,-1.7694 0.54583,-2.38801 0.37298,-0.6277 0.85513,-1.11895 1.44645,-1.47374 0.60041,-0.35478 1.2827,-0.60041 2.04687,-0.73687 0.76415,-0.13645 1.54196,-0.21378 2.33342,-0.23198 l 3.31592,-0.0546 0,-0.8051 c -1e-5,-0.6095 -0.0637,-1.12804 -0.19104,-1.55562 -0.12737,-0.42756 -0.32296,-0.77325 -0.58677,-1.03708 -0.26382,-0.2638 -0.59587,-0.45485 -0.99614,-0.57312 -0.39118,-0.12735 -0.85514,-0.19103 -1.39187,-0.19104 -0.47306,10e-6 -0.90062,0.0364 -1.2827,0.10916 -0.38208,0.0637 -0.71413,0.18651 -0.99614,0.36844 -0.28201,0.17286 -0.50944,0.41393 -0.68229,0.72323 -0.17285,0.30021 -0.28656,0.68229 -0.34114,1.14624 l -2.5654,-0.23198 c 0.091,-0.58221 0.26381,-1.11439 0.51854,-1.59655 0.25471,-0.49124 0.61405,-0.91426 1.07801,-1.26906 0.47305,-0.35477 1.05982,-0.62769 1.7603,-0.81874 0.70958,-0.20013 1.56471,-0.3002 2.56541,-0.30021 1.85581,1e-5 3.25223,0.42758 4.18925,1.2827 0.93699,0.84605 1.4055,2.07417 1.40551,3.68436 l 0,6.35892 c -10e-6,0.72778 0.0955,1.27816 0.28656,1.65114 0.19103,0.36389 0.55491,0.54583 1.09166,0.54583 0.13644,0 0.2729,-0.009 0.40938,-0.0273 0.13644,-0.0182 0.26835,-0.0409 0.39572,-0.0682 l 0,1.52832 c -0.30932,0.0728 -0.61862,0.12736 -0.92791,0.16375 -0.30022,0.0364 -0.62317,0.0546 -0.96885,0.0546 -0.46397,0 -0.86424,-0.0591 -1.20083,-0.1774 -0.32751,-0.12736 -0.59587,-0.31385 -0.8051,-0.55948 -0.20924,-0.25472 -0.36844,-0.56402 -0.4776,-0.92791 -0.10917,-0.37298 -0.1774,-0.80509 -0.20468,-1.29634 l -0.0819,0 c -0.26383,0.47305 -0.55494,0.90062 -0.87333,1.2827 -0.30931,0.38208 -0.6732,0.70958 -1.09166,0.98249 -0.41848,0.26382 -0.89608,0.46851 -1.4328,0.61406 -0.52765,0.14556 -1.13716,0.21833 -1.82854,0.21833 m 0.55948,-1.84217 c 0.78235,0 1.46464,-0.14101 2.04687,-0.42302 0.5913,-0.29111 1.078,-0.65955 1.46009,-1.10531 0.39117,-0.44576 0.68228,-0.93246 0.87333,-1.4601 0.19103,-0.52763 0.28655,-1.03252 0.28656,-1.51468 l 0,-1.21447 -2.68821,0.0546 c -0.60042,0.009 -1.17355,0.0546 -1.71937,0.13646 -0.53674,0.0728 -1.00979,0.22289 -1.41916,0.45031 -0.40938,0.22744 -0.73687,0.54584 -0.98249,0.95521 -0.23653,0.40937 -0.3548,0.94611 -0.35479,1.6102 -1e-5,0.80055 0.21378,1.41916 0.64135,1.85582 0.43666,0.43667 1.05526,0.655 1.85582,0.655"
         style="font-size:27.94651985px;letter-spacing:2.16968417px;stroke:#000000;stroke-width:0.00309447;stroke-miterlimit:4;stroke-dasharray:none"
         id="path4944"
         inkscape:connector-curvature="0" />
    </g>
    <path
       id="path3886"
       d="m 265.9135,540.67269 c -0.80235,0 -1.55532,6.61334 -2.23323,18.07259 -0.66986,-1.06468 -1.49727,-2.26345 -2.44,-3.51526 -2.59936,-3.45161 -5.10064,-6.03252 -5.8312,-6.0173 -0.0487,6.5e-4 -0.11245,-0.003 -0.14475,0.0207 -0.51855,0.39052 1.32159,3.70033 4.09424,7.38207 1.5376,2.04171 3.02607,3.76342 4.15629,4.83864 -0.25186,4.63863 -0.47771,10.04641 -0.70305,16.02547 -1.4755,-2.49639 -3.47489,-5.48708 -5.85187,-8.64341 -5.27865,-7.00932 -10.36496,-12.21014 -11.84852,-12.17934 -0.0989,0.001 -0.20296,0.0538 -0.26881,0.1034 -1.05305,0.79303 2.66133,7.47359 8.29188,14.9502 3.61485,4.80005 7.15286,8.74104 9.49122,10.75259 -0.38074,11.086 -0.73561,24.04077 -1.01322,38.48179 -3.05986,-5.40575 -7.59637,-12.26053 -13.04784,-19.49937 -10.76595,-14.29579 -21.1675,-24.91781 -24.19329,-24.85499 -0.2017,0.003 -0.36204,0.0643 -0.49626,0.16543 -2.14774,1.61742 5.38956,15.27194 16.87325,30.52075 8.12519,10.78921 16.02711,19.44881 20.71938,23.03533 -0.2011,11.94948 -0.37629,24.66888 -0.49626,38.17163 -2.62997,-4.45686 -6.26773,-9.86917 -10.54579,-15.54988 -9.34905,-12.41431 -18.38133,-21.6424 -21.00889,-21.58786 -0.17515,0.003 -0.3176,0.0364 -0.43423,0.12411 -1.86505,1.40456 4.72976,13.30865 14.70208,26.55058 6.63869,8.81529 13.09081,15.98338 17.22478,19.39599 -0.0569,7.77727 -0.0966,15.71957 -0.1241,23.86244 -4.56995,-10.68717 -9.46725,-18.81868 -10.98003,-18.17599 -0.0955,0.0405 -0.18374,0.14143 -0.24813,0.24813 -0.96824,1.5994 1.50828,10.41963 5.83121,20.59531 0.0273,0.0643 0.0554,0.12191 0.0827,0.18611 -0.24744,-0.33414 -0.47,-0.65564 -0.72373,-0.99254 -6.65094,-8.83162 -13.06029,-15.4026 -14.92953,-15.36377 -0.12464,10e-4 -0.24796,0.041 -0.33086,0.1034 -1.32682,0.99918 3.36869,9.45866 10.46309,18.87903 0.47667,0.63294 0.95411,1.21169 1.42677,1.81966 -7.2822,-4.17526 -14.37042,-8.20019 -21.33971,-12.15868 -0.88959,-5.28733 -3.87508,-14.47416 -8.18848,-24.62752 -6.48172,-15.25724 -13.50438,-26.90519 -15.65328,-25.99227 -0.13429,0.057 -0.24011,0.1603 -0.33085,0.31016 -1.361,2.24825 2.13261,14.68693 8.20917,28.99059 2.77762,6.53823 5.64578,12.38981 8.1885,16.89394 -11.72303,-6.6344 -22.84264,-12.86649 -33.29162,-18.67225 -0.76791,-5.86486 -4.32226,-17.01426 -9.5946,-29.42482 -7.46404,-17.56959 -15.51529,-30.93102 -17.98987,-29.87974 -0.15459,0.0657 -0.30955,0.17867 -0.41357,0.35152 -1.56728,2.58899 2.43163,16.90283 9.42919,33.37432 3.53199,8.314 7.19411,15.6602 10.33901,21.00888 -12.598,-6.96072 -23.95751,-13.13755 -33.78789,-18.38275 -0.58161,-3.03597 -2.25378,-8.02296 -4.59053,-13.52343 -3.65966,-8.61448 -7.57483,-15.1968 -8.78815,-14.68137 -0.0758,0.0322 -0.17594,0.10168 -0.22746,0.1861 -0.76845,1.2694 1.20094,8.3009 4.63186,16.37699 1.5238,3.58681 3.09846,6.77302 4.50782,9.28444 -5.2322,-2.77052 -10.0465,-5.30176 -14.2058,-7.42342 -0.37521,-1.51061 -1.11345,-3.61879 -2.08848,-5.91391 -1.80215,-4.24206 -3.7449,-7.47046 -4.34238,-7.21663 -0.0376,0.0158 -0.0576,0.0411 -0.0827,0.0827 -0.37844,0.62507 0.58509,4.10818 2.27459,8.08512 0.58748,1.38281 1.19149,2.6387 1.75764,3.72202 -11.06788,-5.58278 -17.63394,-8.47822 -18.05192,-7.75425 -0.41781,0.72367 5.35495,4.97725 15.71531,11.7658 -1.21686,0.0517 -2.61068,0.16982 -4.09427,0.35151 -4.28886,0.52533 -7.77436,1.40685 -8.12645,2.04714 -0.0235,0.0426 -0.0464,0.10454 -0.0414,0.14474 0.079,0.64433 3.86184,0.70507 8.43662,0.14475 2.46491,-0.30191 4.64585,-0.72942 6.14139,-1.15798 3.91389,2.53923 8.51251,5.45882 13.52342,8.60207 -2.87707,0.0358 -6.41552,0.27145 -10.27697,0.7444 -8.70957,1.06675 -15.7653,2.87678 -16.48039,4.17696 -0.0476,0.0867 -0.0514,0.18701 -0.0414,0.2688 0.16027,1.3085 7.78984,1.42738 17.08005,0.28952 5.9234,-0.7255 11.07675,-1.79925 13.99903,-2.81221 9.46987,5.89855 20.50895,12.65653 32.85737,20.09903 -6.208,-0.0511 -14.40637,0.45092 -23.38685,1.55084 -17.76349,2.17572 -32.16398,5.86756 -33.62246,8.51936 -0.0973,0.17679 -0.12372,0.35018 -0.1034,0.51695 0.32688,2.6687 15.9361,2.96176 34.88383,0.64102 13.37783,-1.63854 24.80652,-4.14364 30.27262,-6.4102 10.25323,6.14666 21.20805,12.66363 32.81603,19.49938 -5.16955,0.0507 -11.66965,0.50199 -18.71363,1.36476 -15.42561,1.88935 -27.93081,5.07926 -29.19735,7.38204 -0.0844,0.15354 -0.12114,0.31003 -0.1034,0.45492 0.28384,2.31747 13.85996,2.55295 30.31399,0.53763 10.94621,-1.34071 20.38828,-3.33812 25.41328,-5.21086 6.24042,3.66179 12.60356,7.37016 19.12716,11.16612 -11.16821,-1.28135 -20.21413,-1.09662 -20.40921,0.49629 -0.0129,0.10306 0.0227,0.22171 0.0827,0.33084 0.90097,1.63823 9.76617,3.90814 20.74003,5.25221 1.49317,0.18289 2.95166,0.32361 4.36307,0.45493 -1.52375,0.13783 -3.07217,0.29763 -4.69391,0.49627 -10.97386,1.3441 -19.85975,3.61398 -20.76072,5.25221 -0.06,0.10923 -0.0954,0.22783 -0.0827,0.33086 0.19962,1.62973 9.67099,1.79474 21.19498,0.41354 -6.55749,3.81553 -12.93827,7.56876 -19.20989,11.24886 -5.02499,-1.87274 -14.46706,-3.89084 -25.41329,-5.23155 -16.45401,-2.0153 -30.0508,-1.75915 -30.33465,0.55831 -0.0176,0.14486 0.019,0.3014 0.10339,0.45492 1.26654,2.30279 13.77175,5.49268 29.19737,7.38205 7.05175,0.86372 13.562,1.31482 18.73429,1.36475 -11.61325,6.83884 -22.57952,13.32962 -32.83671,19.47871 -5.47429,-2.26429 -16.89098,-4.75307 -30.25193,-6.38952 -18.94775,-2.32074 -34.55697,-2.02768 -34.88384,0.64102 -0.0205,0.16675 0.006,0.34045 0.1034,0.51694 1.45851,2.65182 15.83829,6.34365 33.6018,8.51935 8.98047,1.09995 17.19951,1.60196 23.40752,1.55085 -12.34775,7.44209 -23.3879,14.20073 -32.85739,20.09905 -2.92228,-1.01299 -8.07561,-2.08671 -13.99902,-2.81221 -9.29022,-1.13788 -16.94046,-1.01901 -17.10072,0.28948 -0.0103,0.0818 -0.006,0.182 0.0414,0.26881 0.71511,1.3002 7.7915,3.11021 16.50107,4.17696 3.86455,0.47334 7.39873,0.70889 10.27697,0.74441 -5.01092,3.14326 -9.60954,6.06282 -13.52343,8.60206 -1.49582,-0.43022 -3.66692,-0.8549 -6.14137,-1.15797 -4.57478,-0.56034 -8.35771,-0.49958 -8.43663,0.14476 -0.006,0.0404 0.0179,0.10214 0.0414,0.14473 0.35213,0.6403 3.83761,1.52183 8.12647,2.04712 1.49185,0.18273 2.87268,0.30019 4.09426,0.35154 -10.36345,6.79042 -16.15385,11.02133 -15.73599,11.74511 0.41793,0.72387 6.98744,-2.15265 18.05193,-7.73357 -0.56536,1.08224 -1.15041,2.34137 -1.73697,3.72203 -1.68948,3.97693 -2.6737,7.43936 -2.29524,8.06444 0.0251,0.0416 0.0661,0.0876 0.10339,0.10339 0.59748,0.25381 2.54025,-2.97458 4.34239,-7.21663 0.97472,-2.29438 1.69248,-4.40338 2.0678,-5.91391 4.15272,-2.11829 8.98347,-4.63759 14.20581,-7.40273 -1.40664,2.50869 -2.96721,5.68601 -4.48712,9.26375 -3.43097,8.07609 -5.40035,15.10761 -4.63189,16.37699 0.0511,0.0846 0.13093,0.13315 0.20677,0.16543 1.21332,0.51545 5.14918,-6.04621 8.80884,-14.66071 2.33676,-5.50048 4.00891,-10.48749 4.59052,-13.52343 9.84085,-5.25079 21.19459,-11.45437 33.80857,-18.42412 -3.15056,5.35213 -6.81814,12.71377 -10.35968,21.05022 -6.99755,16.47148 -10.99647,30.78536 -9.42919,33.37432 0.10443,0.17261 0.23827,0.28586 0.39289,0.35154 2.47458,1.05127 10.54651,-12.31016 18.01056,-29.87974 5.27233,-12.41056 8.82669,-23.55998 9.5946,-29.42484 10.44474,-5.80346 21.5534,-12.04095 33.27094,-18.67225 -2.54073,4.50225 -5.39316,10.36264 -8.16783,16.89395 -6.07656,14.30365 -9.57016,26.74234 -8.20916,28.99058 0.0907,0.14988 0.19653,0.23237 0.33083,0.28949 2.14891,0.91291 9.17158,-10.71436 15.65326,-25.97158 4.31344,-10.15336 7.27825,-19.3402 8.16783,-24.62754 6.17559,-3.50765 12.4546,-7.07299 18.87902,-10.75256 -6.68194,9.01956 -11.04064,16.94277 -9.76002,17.90716 0.083,0.0625 0.20624,0.10111 0.33086,0.1034 1.86925,0.0389 8.27859,-6.51149 14.92953,-15.34308 1.21632,-1.61514 2.31337,-3.18912 3.37053,-4.7146 -0.79265,1.67847 -1.58728,3.41169 -2.37799,5.2729 -4.32289,10.17569 -6.79946,18.99591 -5.8312,20.59531 0.0645,0.1066 0.1526,0.20759 0.24813,0.24813 1.47583,0.62699 6.15741,-7.11097 10.62851,-17.41089 0.0256,7.39466 0.0534,14.61796 0.1034,21.71192 -4.13448,3.4166 -10.57182,10.58916 -17.20411,19.39599 -9.9723,13.24191 -16.56713,25.14603 -14.70207,26.55057 0.1166,0.0877 0.25909,0.14096 0.43422,0.14476 2.62756,0.0545 11.65985,-9.19425 21.0089,-21.60854 4.27329,-5.67439 7.91647,-11.07514 10.54579,-15.52919 0.11595,13.47609 0.25826,26.21448 0.4549,38.17162 -4.69682,3.60391 -12.5743,12.25397 -20.67802,23.01465 -11.4837,15.24883 -19.02098,28.90333 -16.87326,30.52075 0.13423,0.10099 0.29456,0.16164 0.49626,0.16544 3.02579,0.0627 13.42734,-10.53853 24.1933,-24.83432 5.43808,-7.22106 9.96746,-14.079 13.02715,-19.4787 0.27093,14.3977 0.59895,27.34181 0.97186,38.4818 -2.33837,2.02693 -5.84444,5.97185 -9.42918,10.7319 -5.63053,7.47663 -9.34492,14.15716 -8.29188,14.95022 0.0658,0.0496 0.16997,0.0804 0.26881,0.0827 1.48357,0.0308 6.56988,-5.17004 11.84852,-12.17934 2.34342,-3.11179 4.31972,-6.06439 5.78985,-8.54003 0.21644,5.90638 0.44052,11.3481 0.68237,16.0048 -1.12109,1.08006 -2.5718,2.7618 -4.07358,4.75593 -2.77266,3.68173 -4.6128,6.99155 -4.09425,7.38206 0.0324,0.0247 0.0961,0.0199 0.14475,0.0206 0.73056,0.0152 3.23184,-2.56567 5.83121,-6.01732 0.90249,-1.19839 1.70269,-2.3397 2.35728,-3.3705 0.69917,12.3799 1.47985,19.49937 2.31594,19.49937 0.8361,0 1.63745,-7.11947 2.33662,-19.49937 0.65417,1.02987 1.4352,2.17355 2.33661,3.3705 2.59937,3.4516 5.12132,6.03254 5.85189,6.01732 0.0485,-6.7e-4 0.0917,0.003 0.12411,-0.0206 0.51857,-0.3905 -1.30091,-3.70035 -4.07355,-7.38206 -1.49215,-1.98136 -2.95518,-3.65419 -4.07359,-4.73526 0.24222,-4.66132 0.46561,-10.11093 0.68238,-16.02547 1.46995,2.47505 3.42669,5.42951 5.76917,8.54003 5.27862,7.00933 10.38565,12.21017 11.86918,12.17934 0.0988,-10e-4 0.20298,-0.0331 0.26881,-0.0827 1.05305,-0.79306 -2.68201,-7.47359 -8.31256,-14.95022 -3.58992,-4.76696 -7.09077,-8.70758 -9.42918,-10.7319 0.37293,-11.14011 0.70093,-24.08388 0.97187,-38.4818 3.0597,5.40027 7.60851,12.25596 13.04784,19.4787 10.76596,14.29579 21.14685,24.8971 24.1726,24.83432 0.20172,-0.003 0.36205,-0.0645 0.49628,-0.16544 2.14773,-1.61742 -5.38958,-15.2719 -16.87327,-30.52075 -8.11737,-10.77881 -15.98408,-19.44246 -20.67802,-23.03532 0.19647,-11.9512 0.35968,-24.68268 0.47559,-38.15095 2.62891,4.45234 6.27536,9.8586 10.54579,15.52919 9.34904,12.41429 18.36067,21.66309 20.9882,21.60854 0.17517,-0.002 0.3176,-0.0569 0.43422,-0.14476 1.86508,-1.40454 -4.70907,-13.30866 -14.68139,-26.55057 -6.63641,-8.81231 -13.09062,-15.98197 -17.22478,-19.39599 0.0542,-7.6816 0.0986,-15.50004 0.12411,-23.53158 0.18354,0.44368 0.34671,0.87397 0.53762,1.3234 4.61112,10.85406 9.57538,19.13561 11.10411,18.48615 0.0955,-0.0405 0.18351,-0.12087 0.24813,-0.22746 0.96827,-1.59939 -1.50828,-10.41962 -5.8312,-20.59533 -0.41679,-0.98107 -0.84151,-1.91901 -1.26135,-2.85356 0.41256,0.5638 0.80961,1.12319 1.24068,1.69561 6.65097,8.83158 13.03959,15.38196 14.90884,15.34308 0.12463,-10e-4 0.24796,-0.041 0.33086,-0.1034 1.27949,-0.96356 -3.06732,-8.8767 -9.73934,-17.88649 6.77287,3.87854 13.39884,7.64571 19.89225,11.33157 0.89104,5.28843 3.85628,14.45795 8.16781,24.60683 6.48171,15.25724 13.50437,26.90518 15.65326,25.99227 0.13434,-0.057 0.24014,-0.16027 0.33086,-0.31017 1.36099,-2.24823 -2.1326,-14.66623 -8.20919,-28.9699 -2.78251,-6.54977 -5.66311,-12.42805 -8.20916,-16.93531 11.76017,6.65124 22.8577,12.86859 33.31229,18.67226 0.76215,5.85915 4.31597,17.02012 9.5946,29.44551 7.46404,17.56958 15.53596,30.931 18.01056,29.87974 0.15462,-0.0656 0.2884,-0.15824 0.39288,-0.33084 1.56728,-2.58899 -2.43163,-16.90284 -9.42917,-33.37433 -3.54291,-8.33967 -7.20834,-15.71829 -10.35969,-21.07091 12.63456,6.97424 24.02335,13.1725 33.80855,18.38276 0.57341,3.03115 2.24176,8.05669 4.59053,13.58545 3.65968,8.6145 7.57486,15.17617 8.78816,14.66072 0.0758,-0.0322 0.17621,-0.10146 0.22745,-0.1861 0.76847,-1.26939 -1.20094,-8.28025 -4.63187,-16.35631 -1.53986,-3.62467 -3.10785,-6.84461 -4.52848,-9.36714 5.28626,2.79192 10.0866,5.28256 14.22648,7.38205 0.36682,1.51604 1.09102,3.66938 2.08848,6.01732 1.80214,4.24203 3.74493,7.49111 4.34238,7.2373 0.0374,-0.0158 0.0783,-0.0617 0.1034,-0.10339 0.37845,-0.62506 -0.60576,-4.08749 -2.29528,-8.06442 -0.61579,-1.44952 -1.23003,-2.77161 -1.81966,-3.88746 10.26575,5.14403 16.34795,7.8082 16.7492,7.11322 0.40106,-0.69465 -4.93651,-4.64603 -14.51597,-10.95936 1.25843,-0.0476 2.70154,-0.16068 4.25967,-0.3515 4.28889,-0.52532 7.77437,-1.42753 8.12646,-2.0678 0.0235,-0.0426 0.0466,-0.0837 0.0414,-0.12412 -0.0789,-0.64434 -3.86185,-0.70508 -8.43664,-0.14475 -2.53717,0.31076 -4.76916,0.73742 -6.26543,1.17864 -3.88981,-2.5364 -8.46099,-5.43986 -13.52342,-8.62273 2.89956,-0.0297 6.47935,-0.26407 10.40103,-0.74441 8.70956,-1.06677 15.78596,-2.87676 16.50106,-4.17696 0.0472,-0.0868 0.0514,-0.20769 0.0414,-0.28949 -0.16026,-1.30849 -7.81052,-1.4067 -17.10073,-0.26881 -5.97817,0.73223 -11.17435,1.79079 -14.08173,2.8122 -9.41344,-5.8744 -20.46658,-12.65737 -32.83668,-20.1197 6.21507,0.055 14.4388,-0.4266 23.44886,-1.53017 17.76351,-2.17571 32.16397,-5.86756 33.62247,-8.51935 0.0977,-0.17652 0.12385,-0.35015 0.1034,-0.51696 -0.32687,-2.66868 -15.93612,-2.98244 -34.88383,-0.6617 -13.41207,1.64274 -24.86468,4.13905 -30.31398,6.4102 -10.23449,-6.14068 -21.15856,-12.63375 -32.77468,-19.47871 5.1723,-0.0498 11.68256,-0.52171 18.7343,-1.38541 15.42563,-1.88937 27.93082,-5.07928 29.19737,-7.38206 0.0844,-0.15353 0.12099,-0.28938 0.10339,-0.43425 -0.28384,-2.31744 -13.88065,-2.5736 -30.33466,-0.55829 -10.95754,1.34208 -20.41295,3.33644 -25.43396,5.21087 -7.11962,-4.18028 -14.38658,-8.42292 -21.87735,-12.77904 0.76458,0.10557 1.50694,0.21362 2.29526,0.31017 11.70546,1.43371 21.38593,1.27646 21.58787,-0.3722 0.0129,-0.10305 -0.0227,-0.22158 -0.0827,-0.33086 -0.88234,-1.60435 -9.43931,-3.796 -20.09903,-5.14881 10.50385,-1.35608 18.87436,-3.51986 19.74752,-5.10747 0.0603,-0.10913 0.0954,-0.22783 0.0827,-0.33085 -0.20191,-1.64866 -9.86171,-1.80593 -21.56717,-0.37221 -0.48974,0.0599 -0.94589,0.12257 -1.4268,0.1861 7.42154,-4.31621 14.63472,-8.53238 21.69126,-12.67562 5.02045,1.87466 14.45416,3.88924 25.41329,5.23153 16.454,2.01531 30.0508,1.75916 30.33466,-0.5583 0.0177,-0.14488 -0.019,-0.28072 -0.1034,-0.43425 -1.26655,-2.30277 -13.77176,-5.51336 -29.19737,-7.40273 -7.05307,-0.86386 -13.56155,-1.31495 -18.7343,-1.36474 11.63452,-6.85572 22.56733,-13.35006 32.81602,-19.49936 5.45797,2.26878 16.89886,4.79028 30.2933,6.43085 18.94772,2.32075 34.55698,2.007 34.88383,-0.6617 0.0205,-0.16675 -0.006,-0.34017 -0.1034,-0.51695 -1.45849,-2.65177 -15.85896,-6.34365 -33.62246,-8.51933 -8.99619,-1.10189 -17.21644,-1.60403 -23.42821,-1.55086 12.35994,-7.45632 23.40895,-14.22863 32.81602,-20.09903 2.90994,1.01999 8.09206,2.08113 14.06107,2.8122 9.29018,1.13788 16.94045,1.01899 17.10072,-0.28949 0.0103,-0.0818 0.006,-0.18213 -0.0414,-0.26882 -0.7151,-1.30019 -7.77083,-3.11018 -16.48039,-4.17696 -3.91216,-0.47916 -7.50495,-0.71376 -10.40103,-0.7444 5.06971,-3.18746 9.63011,-6.10449 13.52343,-8.64342 1.49625,0.44156 3.72636,0.88834 6.26544,1.19932 4.57477,0.56032 8.35771,0.4996 8.43663,-0.14474 0.006,-0.0404 -0.0179,-0.0814 -0.0414,-0.12411 -0.35209,-0.6403 -3.83758,-1.5425 -8.12647,-2.0678 -1.54974,-0.18982 -3.0058,-0.30343 -4.25967,-0.35153 9.575,-6.31059 14.91694,-10.26488 14.51598,-10.95936 -0.40098,-0.6945 -6.49623,1.95548 -16.7492,7.09257 0.58691,-1.1122 1.20718,-2.42507 1.81966,-3.8668 1.68952,-3.97693 2.65305,-7.43935 2.27459,-8.06442 -0.0252,-0.0417 -0.0451,-0.0877 -0.0827,-0.10339 -0.59749,-0.25385 -2.54025,2.99525 -4.34239,7.23731 -0.99788,2.34893 -1.74251,4.48048 -2.10916,5.99661 -4.1402,2.09964 -8.93963,4.6105 -14.22648,7.40273 1.42112,-2.52301 3.00863,-5.74084 4.54917,-9.36714 3.43093,-8.07609 5.40033,-15.1076 4.63188,-16.377 -0.0515,-0.0844 -0.15162,-0.13315 -0.22746,-0.16542 -1.21332,-0.51544 -5.12849,6.04622 -8.78815,14.66072 -2.34877,5.52879 -4.01715,10.55431 -4.59053,13.58547 -9.79514,5.21543 -21.17805,11.41988 -33.82924,18.40343 3.15525,-5.35496 6.81022,-12.73647 10.35967,-21.09158 6.99756,-16.47148 10.99648,-30.78533 9.4292,-33.37432 -0.10408,-0.17286 -0.23821,-0.28583 -0.39289,-0.35153 -2.47457,-1.05127 -10.52585,12.33084 -17.98988,29.90043 -5.28087,12.4306 -8.85517,23.58837 -9.61528,29.4455 -10.43922,5.79517 -21.52997,12.01133 -33.27093,18.65157 2.54256,-4.50398 5.41113,-10.37699 8.18849,-16.91463 6.07659,-14.30365 9.54952,-26.72166 8.18849,-28.96991 -0.0907,-0.14986 -0.19655,-0.25302 -0.33084,-0.31017 -2.1489,-0.91291 -9.15088,10.73503 -15.63258,25.99228 -4.31691,10.16154 -7.30162,19.34224 -8.18849,24.62752 -7.28618,4.13586 -14.71936,8.34092 -22.35296,12.717 0.46819,-0.60237 0.93403,-1.17214 1.40612,-1.799 7.09434,-9.42038 11.78989,-17.87984 10.46308,-18.87904 -0.083,-0.0625 -0.20623,-0.10065 -0.33086,-0.10339 -1.77622,-0.0369 -7.65111,5.915 -13.93697,14.08171 3.93081,-9.52902 6.15173,-17.58644 5.23152,-19.10647 -0.0645,-0.10683 -0.1526,-0.18689 -0.24813,-0.22746 -1.52874,-0.64947 -6.51368,7.63205 -11.12478,18.48614 -0.31055,0.73103 -0.57765,1.43553 -0.86848,2.15052 -0.0269,-8.79631 -0.0835,-17.34779 -0.14474,-25.72346 4.1332,-3.40662 10.59726,-10.58873 17.24547,-19.41668 9.97231,-13.24192 16.54646,-25.14601 14.6814,-26.55057 -0.11661,-0.0877 -0.25907,-0.12048 -0.43424,-0.12411 -2.62754,-0.0545 -11.63914,9.17354 -20.98819,21.58785 -4.27808,5.68071 -7.9365,11.09303 -10.56646,15.54988 -0.11998,-13.49491 -0.29533,-26.20738 -0.49629,-38.15096 4.68933,-3.57535 12.58056,-12.24867 20.71937,-23.05599 11.4837,-15.24884 19.02102,-28.90333 16.87329,-30.52076 -0.13422,-0.10111 -0.29455,-0.16123 -0.49628,-0.16543 -3.02577,-0.0628 -13.40664,10.55919 -24.17261,24.85499 -5.45785,7.24732 -10.00862,14.11145 -13.0685,19.52005 -0.2777,-14.44961 -0.61164,-27.411 -0.99255,-38.50247 2.33835,-2.01242 5.85737,-5.95478 9.47052,-10.75259 5.63055,-7.4766 9.36562,-14.15716 8.31258,-14.9502 -0.0658,-0.0496 -0.16992,-0.10133 -0.26882,-0.1034 -1.48356,-0.0308 -6.59056,5.17003 -11.86918,12.17936 -2.37591,3.15487 -4.3559,6.1477 -5.8312,8.6434 -0.22575,-5.98922 -0.47141,-11.40204 -0.72374,-16.04613 1.1291,-1.07596 2.64403,-2.78246 4.17697,-4.81797 2.77263,-3.68176 4.59211,-6.99156 4.07356,-7.38207 -0.0324,-0.0245 -0.0754,-0.0197 -0.12411,-0.0206 -0.73057,-0.0152 -3.25253,2.56569 -5.85188,6.0173 -0.93776,1.2452 -1.75129,2.43402 -2.41934,3.49459 -0.67762,-11.44641 -1.45202,-18.05195 -2.2539,-18.05195 z"
       style="font-size:12px;font-style:normal;font-variant:normal;font-weight:normal;font-stretch:normal;line-height:125%;letter-spacing:0px;word-spacing:0px;fill:#ff0000;stroke:#ff0000;stroke-width:0.00354330000000000;stroke-miterlimit:4;stroke-opacity:1;stroke-dasharray:none;display:inline;font-family:Purisa;-inkscape-font-specification:Purisa"
       inkscape:connector-curvature="0" />
    <path
       inkscape:connector-curvature="0"
       id="rect4810"
       d="m 39.999999,1016.3496 25.96636,0 0,25.9663 -25.96636,0 z"
       style="font-size:12px;font-style:normal;font-variant:normal;font-weight:normal;font-stretch:normal;line-height:125%;letter-spacing:0px;word-spacing:0px;fill:#00ff00;fill-opacity:1;stroke:#00ff00;stroke-width:0.00354330000000000;stroke-miterlimit:4;stroke-opacity:1;stroke-dasharray:none;font-family:Purisa;-inkscape-font-specification:Purisa" />
    <path
       inkscape:connector-curvature="0"
       id="rect4823"
       d="m 453.99816,1016.3496 25.96635,0 0,25.9664 -25.96635,0 z"
       style="font-size:12px;font-style:normal;font-variant:normal;font-weight:normal;font-stretch:normal;line-height:125%;letter-spacing:0px;word-spacing:0px;fill:#00ff00;fill-opacity:1;stroke:#00ff00;stroke-width:0.00354330000000000;stroke-miterlimit:4;stroke-opacity:1;stroke-dasharray:none;font-family:Purisa;-inkscape-font-specification:Purisa" />
    <path
       inkscape:connector-curvature="0"
       id="rect4880"
       d="m 536.0001,382.35012 25.76349,0 0,324.57946 -25.76349,0 z"
       style="font-size:12px;font-style:normal;font-variant:normal;font-weight:normal;font-stretch:normal;line-height:125%;letter-spacing:0px;word-spacing:0px;fill:#00ff00;fill-opacity:1;stroke:#00ff00;stroke-width:0.00354330000000000;stroke-miterlimit:4;stroke-opacity:1;stroke-dasharray:none;font-family:Purisa;-inkscape-font-specification:Purisa" />
    <path
       inkscape:connector-curvature="0"
       id="rect4882"
       d="m 536.0001,722.34732 25.76349,0 0,324.57948 -25.76349,0 z"
       style="font-size:12px;font-style:normal;font-variant:normal;font-weight:normal;font-stretch:normal;line-height:125%;letter-spacing:0px;word-spacing:0px;fill:#00ff00;fill-opacity:1;stroke:#00ff00;stroke-width:0.00354330000000000;stroke-miterlimit:4;stroke-opacity:1;stroke-dasharray:none;font-family:Purisa;-inkscape-font-specification:Purisa" />
  </g>
</svg>
